<mxfile host="app.diagrams.net" modified="2023-05-23T04:14:46.337Z" agent="Mozilla/5.0 (Windows NT 10.0; Win64; x64) AppleWebKit/537.36 (KHTML, like Gecko) Chrome/113.0.0.0 Safari/537.36" etag="8RL7-ObtS7noWtEUs9yr" version="21.3.2" type="github">
  <diagram name="Page-1" id="F34xvEOVVVP0ipVrpbaf">
    <mxGraphModel dx="1750" dy="1032" grid="0" gridSize="10" guides="1" tooltips="1" connect="1" arrows="1" fold="1" page="1" pageScale="1" pageWidth="1600" pageHeight="900" background="#000000" math="0" shadow="0">
      <root>
        <mxCell id="0" />
        <mxCell id="1" parent="0" />
        <mxCell id="71RtiXY1q0ciw2-miaiB-1" value="" style="shape=image;imageAspect=0;aspect=fixed;verticalLabelPosition=bottom;verticalAlign=top;image=data:image/jpeg,/9j/4AAQSkZJRgABAQEAYABgAAD/2wBDAAMCAgMCAgMDAwMEAwMEBQgFBQQEBQoHBwYIDAoMDAsKCwsNDhIQDQ4RDgsLEBYQERMUFRUVDA8XGBYUGBIUFRT/2wBDAQMEBAUEBQkFBQkUDQsNFBQUFBQUFBQUFBQUFBQUFBQUFBQUFBQUFBQUFBQUFBQUFBQUFBQUFBQUFBQUFBQUFBT/wAARCAGtAhIDASIAAhEBAxEB/8QAHwAAAQUBAQEBAQEAAAAAAAAAAAECAwQFBgcICQoL/8QAtRAAAgEDAwIEAwUFBAQAAAF9AQIDAAQRBRIhMUEGE1FhByJxFDKBkaEII0KxwRVS0fAkM2JyggkKFhcYGRolJicoKSo0NTY3ODk6Q0RFRkdISUpTVFVWV1hZWmNkZWZnaGlqc3R1dnd4eXqDhIWGh4iJipKTlJWWl5iZmqKjpKWmp6ipqrKztLW2t7i5usLDxMXGx8jJytLT1NXW19jZ2uHi4+Tl5ufo6erx8vP09fb3+Pn6/8QAHwEAAwEBAQEBAQEBAQAAAAAAAAECAwQFBgcICQoL/8QAtREAAgECBAQDBAcFBAQAAQJ3AAECAxEEBSExBhJBUQdhcRMiMoEIFEKRobHBCSMzUvAVYnLRChYkNOEl8RcYGRomJygpKjU2Nzg5OkNERUZHSElKU1RVVldYWVpjZGVmZ2hpanN0dXZ3eHl6goOEhYaHiImKkpOUlZaXmJmaoqOkpaanqKmqsrO0tba3uLm6wsPExcbHyMnK0tPU1dbX2Nna4uPk5ebn6Onq8vP09fb3+Pn6/9oADAMBAAIRAxEAPwD9BL+afSpgSNh7H1pq6suoKFYYYd6d/a1vq8P2e4GJKzpLE2ZODle1c8jKRneILgxKwLcgZBrGs/EEN/GlvOcSq2Fb1pviDVhuaNhlCMH2rAhSO1vEdiZo2XcB6N2o6C6HY3TKiiI/ezlagvZ/Kt5CO6YqC31JbqMGRdtVNV1BUhLH54zw3stY3sZPc5ldUtr4Od2y5hOB71JeTebGG2+XNjG3+9XD6pbzpcTz225oFJPydvrWpYeJoNTsxb3LeVcIMJJ2qZLqXy2VzpdMvEn3xyfNGOSvpWL4u0tGuLaQDzInZQ6jqFzVb+0JNP1CJZl+aQYG3+P3rJ1TxuljexrKOFl2slSZa9BdYtdNgtb5hCx8kch/7ue1eNa60CXjta5eAnPzdRnmvV/F95AdEv7m0PmxXCjJTqvOOa8Ua8eGVjtynQrW1LY3o36l7TfFEthDLau3mW0w+ZW6j/dqrYXdxpN9HfwxMUUkoB3PvVC7s5VtPtoBeAtjev8AC3vVjwnq4tdUijuHU224swbp06itm2kzeWzIr6+j1y6klFuY7pmy6R/MGGeeO1dfr2pPYapocEEYRwi48sYOSAeTXK6rb2+j+KIJreUz2crCUSL0PAyv55ro/GF9Yapd6dqdlIpkt2TzIovvBfX8K56jTSUdjnn0R6JqlmmpaTIZFdHaMCTy2+bHfFfOni7SItMvpBb3KTwFzzG+WX2Ir0y8+KlrY3UPlsJEEXz5+4Tjv74rh/EEuj6xv1O3tZjbyf65V+/G394fKeKilzU99jKlzQdnsclp2ppp90ryoJIejo3Rl9D710Gjtp3iHUjp4muLa1kG6OOZvlRu4H4Vxl/iKbMe/wAr+Eydce/Fbfw9v7Oy8QefeoHiRSQvYtiuqpF25kddRaXNfx5o7eDtQtvsrOsDxZO19u4evvXINJGt1HPbyMyMNx3feVq931abSfEWn2U8aQ3d5afvRbY4depU15hrl94UuteCWFlc2wuEImt2GTHJu6KPSuenNOLOenUvE9M+H+rRapo4Eik3KHBY+mK0rixhu98UhYI6jlGx+deYaHfXXhW9AxIgJwBIMZT6V6Lazfak89JVkjk6bex9K4JJ3ujz6i5ZHF+HvDC2fjW6knbdaQHc3OMjPHP1rL+Nfg22sJINb06PbDIwWVN27DHPzVu6h4isNNu7hngmR2HlzFegXPDH8aqr8QtG8QFfDt1GJUlYqs4XndjOK3TmnoawnU5rpXL+teKoNN+HumWxtZG3QITJD8pU/wB41v6fo/hz7LbReR9pkvbbc3mnLNxyc/WuX8Ua1o+l+HY4EuoVurcYWGVVYHH8LA9KfZfEGyhtbRxaebdG3/dNCAR93lcD3rPV6mfvPVKzueZ6tNOt1Jaw2cxnsrlmjUKu3y/9omuq8NeGbLxddJqU1q9lGoVCpAKs34Vgz3euanMdXiaGMxv5UiYwwU92HoK2PBet33h/UrjTdR8lYJ0M0KqOGPqK6J35fd3OifMo6bmd4m02x8H+OLSWCQNEsi7go+7zU/xu1b7VZxeTaNFC/wAxkxw1ch8RfEEGpX0VxCSs+7DBuDwcf0rXvvETeMNHj0y1kUYh53ozZYenpTUX7smXy/DNmF8NtcutJ1SWW1tTdgqokWNMkLnn6Vv/ABa02wktbbV7Tzg0jbZo7h/M2Ljggdua43wbq39iatKJcIUjdT5hOCcdq6vw/OPG3hjVrWX93ND+8jdFycddp+taTXvqRrUf7xSPMxNynfjHXOa7b4V+KIPDPiq2urqFprc5R0TaCVP1bmuBlzDKyNwVODxVi1ujDMkilQY2BwRnP1FdUveVjpkuaJ9H6LeabrVrrYsftKReeZIrZkVdpx97Ga6+xuN2i2spibcowztjnivLPA+salBrNkZrS1MV4u0NHHwT23V6L/azSaFqVtKnly2rksEHvkY9BXkVItNxR4tROPuo6uS6W30pHwpBXOfwqn4V1awmhaKVMSk5z/s1xOnfE7RNX0tkFwJmgysjRltnmd1Dd2z+XSuN0nxg1trvmhtkG87lwRhf8ayjF21MqdOVrnvd1f2epWt5axnI2nA3LXyn4yjWDU5QBjDkdq9l8M61HqniG7t4m3I8eR7CvLfHPh1lF7frOpiimZSvfrXXSlZ2OvDtRdih4Vt9O1DT7z7XeG3dOi+ZsyvOPrzW9b69JOvhmDyyEhJUNIyojnP96uV8DXmnLcXUV7ZzXYkjO0RnJHXkCup1LeuiaDbQxxyW6vvMix/PGcjCn3xXU3rY6pO0rHoN0kNzqWvziKefy7Zdyqoxnn07V5D4NmH/AAltiX+6swJVeMV7BoiT6RqGr2aTnF1bBi0yYw3PGa8Z8M3Q03xjBIx3Kk+WZeeN3P61lR2kTTd1NHu9rqVlpfiub7WjGW5RfJz82Fyc8/Wus09WmaMq2FPrxxXj914jbxR44EwUxJGVSNWGDjJ7V6lp2oNamPccjHFcU1ynDVXLZHottCkcIBOML19ayNYvPJ0mZsAbs9Wot9bVbEyMeVJOM57elcd4+8Qmz0OAiPyhIxLcY7U4O4oOPMrEul6XbahFJPdqZIydoUNXlHxA0oaJqojj/wBVJll5rpfDHjmCO0kt7ptiqfMU1xnxA8TQ65qkbwjYiIVJ9a66Kk5a7HZSU+doxFm+YfMo6/e78dq9Y0OW2tfh6IpUkikuH2K0rKB/vDNeNQM0kiIOrEYx7ev516rNdqg0uyuYllSGMsywq2Tj1rprN7I7Kj2SPU9C06KHQUWTF3EkW5Txzjt+NYMDQ2+myRtGY7i8mKgB8bV9K0LXxFG3hjzrKL+Dyo1YE7iR6VyOo+JrnT76yiubeOIW6CR2EW4EkZ5HbrXDGLlucVPmbZ6F59vZ2kcb2kv2S3iGXVlOPYf7R6/jXk2vapFqGsTzQKyw7/lWTG4fXHeu1/th4fAWp387bHu5P3W8YyPavK47gNljnHXn1zXXQVveOihdN3Oz8JRA3wnaF5YY+TtXI/GvafDNrEtnNd9LibhY1C4C9K8e0TTb+Oxt4N22K4fedo5PHevYdFupobePcqHyYwoAHXis60veFWk09DmvH10I/KtI49jH5j/kV0fwss1WzkkDfvJOAPxrn9UsJNd1IO4L8/dFdb4OmtrJpWWMwQR/IWIwC31obvEhzTidTq0ksXkQqcK33qju0lYIvVgPlrFv/FEF1qESRYdFPzMDnJq3qPiI2/lyRgbwuBuOfyFQibPdFO6sVa8BuXEar827dg59q6HRibXSLi6YyP8Ae8sO3I/2qxHlTWmSIxuzlQ7sV4AzVO+8R+d58Mf7tI1MaJ/e9f0reMeY2im9zoIdXvWiQ+WzZUHO7rRXJx3snlrsfCYGPpRV8pofQc2ntazh92+In8qtSXoi2o3zqRWBB4sMUflXG2WMDGe9SMz6la+bA2Dggj15pSv1IlfqYPi63j/10JyM/NXP6Cpl1KISdA33ak13Vmjcqw2yIcYrQ8N3VtrEwdSBIgoewuhrah5fmII/k6/jWPqzmz0+Zx90Dlan1i++y3UUMny5b7/Y1leJpkk0+T94Ax+UY71g9zHqc5pUy7XubRt4yfNhbr/wGuT1ixaYSXdmrEeYVZfbFV2uLzRdU+XKEjHPQiursLFNU0wvE/l3aksw7HirkzZuzMnQ9Ym1xIrS5A3QAMsi/eAHY1V8aaTBeX1g5AQyNjzP4W+taugWK2Nw7SRhJtpGB/EDyawvHF07zJBwBhWjf+6c1ipamLk+bQo+KLlPDtq0MR+bGSknRl74rB13wzBN4SXUbeP963zsPRa6PxVHDqOkQm8kBZQEdh1Pp+tN1XXLfw54ZRWHmMYzH5b/AE7VXM1aw+a1rHh01/KiNGH/AHec7farmjLCmtWjhvtSk7tqdenQ1X1a1ikhN5anMXR4+6sap+Gle61u2gBwGPzFjjArsduW526ONzp7eOzufHH2C6kYWUjZC7uFYjOK1PFmmWOk6xYLbTllaQI21m4XuDiuPvdHu9N8TfLJuHmArJGc454yfpXd+LtTjt7WymmWGcGRFdW3ZDZxmuOd7xscs27pozfid4BSONdSsRGFMYDwq5OOB82K8v0TxJJ4fvGOFe3Y7ZY5PuyL0wa9x8SXgs7WZ7qX9zJGCjtnj5TwK+bbidndmAIB6Zrah7yakVR96LUjvfEuiwLp63FjtuLG4OVky2YGP8P51mfD3SPtXi6CC8iJjU/OCTjb2b86yfDviqXSWa0lHm2U/Dxs+0r6srduK77wfZR6drUFzNu8t+IbhixQxnopNTUk6aaFUbhFo6X4wada6H4at7y0XyLiKYfMpZcr68dec15drmnaZeabHrmn3/mXWQtxbujAhu7Zrt/jdrcMml2umh9ryNuDYIA9BmvF7DVp9BviJATEy7ZI1LYZfUms6EW4XRnQTlDQ9s8M/ZvFWiJHLJGk0WMNLu3FRW/pZt9JDxSsSr5VWJbA9K8Z0vW38PyQyI6yQSneuwk8Z+7muj8VeJI7vTIbyxLjnDKqtlT6n6VjOMuYwnB31EWO+1fxk6xLGsQ+VmkJ2bc96xPE3gHUNG8WWciMscc84EdxGGZASentW18N/EVx4guNQt5ZE85YcKzEjIz2q14q8RQw6lo0TysGinUyKG5ABxzRzSi+UOeUHyxL/wAR/hu2raBJqcUsLX1rgTLGxw4GRk1U0LSYJvhst5bJKup2iCRVd2KsB7Ctb/hKLSxh1xzLHPFOyqsZZu5Of0qxrmrReFfC/mNLGlq1qzJGvQk4IGfxrJylojH2k1ZM8c0fTTqV1JqGoXSwafcOVkEbsNsnTkVr+GdH0q88QQWg1N3uIZRtZWba8ec4DdvSuG8VXN5I/wBuhR7a0ueflfKs3Tp+FegfBbz9Q1SHUorSBUtzsmdC2WGMZKjrXZUi1C7OyacYczK3j7wrpereOILTQmYM/EkTgg7gSM81a8VfD6HwbDpt19paOPYvnyR/fXn5sfhXY2P2W38eXcU8Ec04X7TbSqzccn5a5r42eLoJdMjs9mHngQsOTh8k1zRlOUoxRyxnUm4wRht4NTR/FK3Fi8V/ps8BnWWQdFI5X64rhdL1j+zPEcjrLJbWskpTEe4DYegru9E8QaXd/Ce+vNY1Gaw/sdcmaEKWIIACAHqWPGK8Ej8XfbNaS0FvNNqdzOTBp9rl5gp+6rEcbiecds47V2wlzNqXQ7qcuZtS6HYeIo47XVJBC7SpI25GGTz7msR9YEkxhs4J9SuF4eKyj8zaf9o9B/wIivpnwt+xj4w8UeGD4t+J2q2vhXSLW33pZXBOVXGQXTI3E9MOwH+yetfP2pa/qPijWpfDHw6hDw27MkupCHZHEoP/ACzXJ5x6ZA7ADmpVbm92JtzaWRXm8eap4RSzur6LTdEuIWDpHfXZuJZB7QxKvH/Ax9a0NL8YXHjvWm1Dx1rmtWfh+dCpsbDTbiBLnsBIyKTswB8u98+q1x0Og3EWsy6P4KsH8QeJY0aXU9cuwG+zKBlmLSN5cQHTc3THUnBritc8URy3q2kcUev3uPLbylkWFz3GQRLOc/xO2P8AZIxVcvPqjHkUj6IHjj4dafax2sPiqxtCjFLe1jt5cKuMdRHtT/gWD9K9H8LQ+HNP8Mya1qup2cWntjZeG4VY2BHUOxP6HrmvkaFfEmnW6nXNbs/B9hIvFrHbxpK6f9cYlyR/vVVXxp4R0e3it4NFvvEIhLCOTVJwsa7iSSkYBUAnJxjv61nKj/KRKg3azsfTHhP4i+F5PiJ5Gj6zbXgm/dxpGzDcx9Mcn8Kj8YXMcLa1BIzxy+apWOUsmTk5wn8XFfM1x4mTxgHOl+DLSxki/eC8sS0ZgbsxZQEH1YU7Vvit4kXT5LS78Sf2hcOgQyRIrsoAxgzFeTwOVB4/iHQaqioyTZcaUYyV3c9v8CsbrXBDbNFJKIyTHISCFIwOK7zxiqaFcaRBbP5d2pTzYWLbWbjOa+Xfhv8AEQeE7VZbrSrmdN7P9rSVYvMc+rsvtjj0r0WH4jab4i8L2viK8vFt72S8eCTT/OV5dowVYDILZzjpTnFynfoXNe/d7H0p4atIbjxBqd3rE8qRfZBIGhZtygZGAPTNcR8PPDsviDxc8+miOdIZt4M4yu33HrXfeEdDS1s9ReOa4fzrPHlM3zJkZ2jntnH4V5d8Mdf/AOEZ8dbLiWWGAu0b+T1wcda5Y3kp2OWF2puJ6l8SLYaH40sJsCPzI03+WMZP0rqNIdNQjix9415j8bNZjXxbbpbySSQqqPluqgnIq14N8VOqoucMMbTWLi3FXMpQ5oKTPfLPSfs9nJ5i7g4wB614z8Xrry76G1SbzViXJT0r1fQ7x9X0yKQS5fdtYfNzXH+N/BsN8t5dmFo5oV42E/N/tHP+eKzpvlkY02oy1PHtC0+fWL+OAHyxIdoasjVrdrHUJrd/vRuVr1vwV4btoNPkvJX2TK6iM56muC+J2nDTfEDEHPnAuT79676dXmnY9OnVTlZGHobQtqEfnsyQhsuwG7j29K7rSdRf7Xd3lm+YYU2CW53Oe/p04rifCrTJcS3EUsULRpkGRtv/AOutu0mNxbwQjM9xcTFpCCwG3t+ta1GbVOrPorwvpGnQ+H7ExsiyPAsjSKzHcxAJ/WvM/El5qN5rV42Y3tpp/J8yRTuADYO0H2Fd3ZX8UPhf+0BI0TRQ+RtLHG7GK4Sx8N26+Jopry78tIoBcMuWHJ567TXJB2bPPpO17mx42t3u/DsccAEkdnhwR8nyD+ded6Vtmvo1lfZGzZLEYwDycfhXRapavq+n3upR3oEAldViZyeMBeOPen3Gjnw/psepWS+cJ02GSQ7sMfT0rqhLlVjtpyjFWNzwzNaXupusLPGka7YS27PtXrFhDFa6fEfM33DH5m56Y5rx/wAN/wBoabPaQNFgF/OkDSbt3HH610zeOJNQvBC/yPnaVXoPWsZx1MavNJ6HqOh28cdsW6s2VH5VUvdFW4lhs4H2IxBkbd0HesHS9ajiuHnjbz4YI+d+7G72xWjpfiKz1TdDG3k3cpVm4I4z6ms7HP7yNKHwuseqRxx/KpHPPVRW7rVhb6bb/aSnyRR8AFvmbsDis9dUGn6tEjnIkPliTOdta+pSJJYvI0gaO3+difunHrTRopPZnMatqMOm6T5gdPtd2OAhPyL6VU8M7bizm3BWYkqTJ6Y4/WuM1TWpNU1F5GYuob5FPYVsaLcXFjGbkKNrZAdvp2rujHlidsYWiemW1jpC28Qkmt/M2Dd9cc0Vz9vpt5LBG/22QblB/MUVmZ2PWta0QzK1xassi9Qi9hWFZy3dnMGRWUDqK147iSCxtpUbdnKla08w3MMYZMPt6US2BybVjnby3ttcheKdfLkznd/ED7V57NaX+j6qY4so/Z4+6+9dV40kms8NHlPQ1g+HfEEsmoRrcsJQ3yjNEXaI4v3TpLWae8sI474Bt2drDr0rK8SaW7aUEd96Ltbd3610WoMGjVQNw/lVHVbgGylB5GzBHrXPe5zqT6HOXGhSXUcRlUycjy5V+8PVT+FSrpIsfmTO3oNvp71Y0O+kvLAjflkbAHtmrhQNE+38aRm23uZdtJFfZikIjljJCsO/FY3iLw1BeWiRu2ybG5Jq2LW1Vbpyeh5NUNe1JbeAm4XMY4B9KzbsQ79DyXxp4Z1Kzs2meVWhUbjub+QrKsdLv9Q0Vpr0SG1DDBPXdg4xXo3i29trjQI1uEaRJSFSRex7ZqO6uYbPw2zEhY4wivj7pHNWpvlVjZVJ6JHgGpWs+h3UbECRNiuD/Af9k+9axjXUtUiu/D0Sm7EBeS3Jzh8joKyrrW1N5LayhTaSTq3PVRk52/hVOw1r/hGfES3VncHyVBKNH1K9lP4V12clqdstYjtXvtVXxBOLpZI71iDJGBhsZqbxdpt7pTW87SSXNs4WULJ25+61aXhG5j1rxIuoO8bTtJh45fQ9K7H4jawYbSK1MUbq/wAsg29sjOKxnU5ZxRzSlyTijhdLOo+J1uo78TvZRpkqj7TFxkEDuK871a1NhcSJkMmcK4GMj1xX0DY6ei6HqPlxi3EyMAJBjcoGOD+FfP15rD3DGymYOqvtWQrnH41VF3kyqctWZUkgXCscjqT6V2/gHxTJIy6TcSM6FiYJAWJRvQCuEvI5LaYqfT5W7Gu1+Gd5YSaxCrWu+6baAxbjr2FXWScdTWs04am/8WvC+ozWdlezqDPHHgKEYGRfXNeU2sS6ir2/m+XOv3A5Y5/2QK+jPjBqK33h63jZzAY2OGmXjIH3RXgN9pMltEupadNgpzIsR2sjeoHesqFR2sc+Hk+WwugyfanGnXsskEW7K4Vmw3oR2rsbXSbvS7aVI5P3MnDkbsEH+LFYvhmym8UXkdw8ym6i4ZNnl7h/ez3r3eOxTUNC8l9kcka4AZMbsDqDWNao1LQxr1OWSR4x4f8Ah/rFnriXzpJb2fBS6TKhlJ6c+tQfF7wb/YWrWdzaXTXP2obsOWJU+mfrXpvha8PnNp1zA8yohkjkY7cMOi+9c/c63cah400+01kQx2UjshEiKMcfLz9azVaSdzL2s3PmPGtW0TWNJt1kuo54Y5QWBbd8y4r1jQ9Pvfih8H5opZI/tNi48ssW3MoHStP4jwm68N3v2oq4tlKoxxtGCMc15p+zLonxR+Ny3ui+DtU0vQlt5XlFxJAJH+X5fmYtgj22mt3N1Iqb6G7l9Yimt0ecab4x0OxvNS0jxVc3GkzQFvJ2q7oxzwQApqlafEO/8E3Davp8GoT6YflnintZYoZ0P8SygfK31BWuz8UfC/xba/GKz+GPjSwsb+9nvcx3+n2pEjOTxh0/1SHgkjngV39v+zP8ZND+JUfhLVpfsdtczCPTtc1C1E9hIOwmki+YN78n5uec1bqw/U6fiVpHB/Dzxl4v+K3iVZ/h94O1XxHe2mFkYzlhEjcmNo1Viw46jj2rhvir4Z8X603iPVtS8Kanpk+nvvvLy6vN8VuCcCMEKoGeyYHTnnmvuf4e/sx/Eb9l/VD8QvCGk2mqalGGt9f8J2t2rQ38P/PWzZgp8wD+B1HIOMnk+0aT8ePg3+1B4VvvBusXsdjcXCCO/wDDOvL9jvY3XsAx5YMfxrm+sJPmgrohWi7o/J/wF4J1TXfh3eeIdde+TwVYXiJK25mN5cH7sY9vQepr9Kv2NP2Q9M8D2dl4/wDEmiW1p4mvrdf7O03yhjS7dgCjMDyZWGCT2JI7V0994M+HVx8RfAvwU0jT7VLLwqR4ourBM+VlBiAPn77MxJP/AAGvafiz44i+Gvw38S+KJnXbp1lJMgYYPmYIX8c/rXJWxM6uiVhtvZHx/wDtfeN/Ef7RHxf074DeALlookYT65qCN8kC5+Znx3UHH4113jj9nzwn+zp8AZdD0e6/4R7SJoifEnitgGvDAFG6GAH7zyNkBemACckYr4+8IfGq4+E/7Nfi/wAd2d3t+IPxC1uSzS8VsSW9ohJkIPVSeVyO1dn/AMFJvi9cXHgH4U+CbG5mWzuNFi1S7XPMhZQE3epyDz3610eyk5Qgthcr2Z86eOPivL8RFTwD8O9LXwr4GEpdrSJ8zXu3rcXsvWQ9W+b5RnAAxXBX/iyx8GrJpvhM/wCkf6ufWnAaeU9xFjhEP/fR60tq/wDwifwzmukAXUNfkaANnmO2XBP/AH02R/wGuAY7mJ5I6mvWhBWstjaJcihutZ1FIlD3V1cPtUbsszH1NddDH4c8DZF9B/wkmtJ1t92yzgPox6yEdwPl6g1i2N9/wjmltJGQNSvEIRx/ywizz+LVzsnDGrt0ZZ22tfFK91pYo5dN01LWL/V2yxN5a/RN20fgKzf+Ew1K4kSKzgsbZm+VRZWMSOc+jBN361zq425x+PNbOm3upXTC00uGRHkXBjso23uPcr8xHt0o5YoTVjb/AOEbbUJRceJNam06TbybwLJL6ABPM8zGMdFq7ceFdMaOGPSddsQoO7LbhO5HTHyq2f8AZUfmeazrX4R+Lb5QyaHcKDyPN2xfnuIxWjH8LvHGlwkJpjCHvGZ4ZUY+67sH8jUNrpMnTqdN4C+OGu+Edae08T6nq1zpzIyfMWNxFgYRk3kHb0+U8enNei+BdYHiDxBY3Wn3qO00uFnl+UM3HDjJwfrzXgl14P164kWN/CV9FMPlU20Mmzd6kEMuPoQKk0fVtW+GOtW4S5gD7lee1DCVUOT9/jG7GenQe9DUbOz1Fpyux9U+Mm1C88dXkWoeXLcxsiHyfuhfaum8F6W/26OMjAYhQayPB/iXw/8AEbxtc3ujTfarf90G/dPEiNjGCSvPSvaLXQorWVXjixgdef6ivNqT5Uonn1J8q5Ts9J0uTS47KGNsjcWdfVcVQ1m7neG7clZIs+WR3GRxW1a3HlrbyMM4Xb9K4vU9WgH9owl9ruw2+/Ncm7ucas9WRQ+GzeaO8tvJtKvjFeMfEjS73S9WWO6be5Ulf51714cvIzp88X/LZjgfnXkPxxlDapaFv9YI8H8K6aM3zWR2UJP2qSOR0m1VtNYtG3myuqIcMEHP3mIrobq5CXzQvcPGYUGya3LHDYNcdpOpPNJFbz7pbSP5/Lj6/jXQ2LFLPdFLDGl1OB5LBS2M9Tmu2V1qzulJ63PcPBHhA3Gg6RJPPKYVK3Dhy2W4yT+dcr441K2Ntqty1xNm5m8lPveYVXp/wHIr0XSbySTw7E8bxsPKMILKME4xXh3xKvhDNb6bGIwI18x2h6luvP51y0feqI5aV5T0K1nr12fDstmsQMJlDvIucB+v9K7zVoQujaUlwXCxgyFbcMwyPp0rl/B62d1obRzpKCWaUyY/dqQB1re8Va4l1o9vDDcK8km6Mb/7vHQbq6JN87SN5auy3MyPVCtnJP8AaZ47h/lWMbvue5rpfh7aXc00l5D5WQNg8wE8/U1wUayXeoJaQu02CUQYxzn617x8OdHg02KKQwRqYjlgxyd+PSnUagrF1JKKL19ZzWtrFAJNvHmygphM+5rjtDa81nxhDsYoVcYb5sKua7fxpeJ9jkfyws7L/CMDFY3w702e11KG785MyHAQfe21jCVlcwjKyudlLHND4gCEtcS7WMWzdjOPvUvi5L638JOgdWJG6Urnp+NdDpMMS6o0jgnaCqZ681F4ssftmkzQx4y33faiL1uRF9TxjSoRdTqreYyZBbA3fLj9K1JNQEk6pHuSJDgbznvUWp6c/h+PZHcgySfeUdcVWjtJo/LeRWSNum7613XuejzcyueoW+oXn2eLEyY2jH5UVUt/FyxW8Sb0+VQPyFFYmJ7JpaSy2qxzJ5ZA2qfWpLx9keB8rDirKTFpGjaPafvCsvUpjHdRj70bfe9qmRi3zIxdZvESPbdnfA3JrJbw7bTPFd2En7vqRWn4ztt2ms8ZycYrjvA99NHqz25ZtjLwO26joOK907FEnhxvOfaqmsKLyxkRD5b1qXkiGADOCG5HvWRq1wsdmztFjrg/hWCdjnbszJ0K1n0xsuclugrWWYsH2jFVNP1BZLeFmPmfLgVaWI5d85HWpvdgncrxxs6s3euT8cLLJZhffiuxhukO5T1PSsTXpEuIIllGFDZzQEjxrxTq2o6bpsVvPGr2quG+bt9K3tNtzNpa2xiafT71dzZ+9H9Kz/it50NqqMu+1kw26ul0G4S30WzlyCkUYdfek5NxTQ5Tdk0fP3i7w5JpF9cCL/SLMPxIn9fp0/CuRnk2jOQfpXfyeJWHiXUxFGs9nNK/m2Z/iXuRWL4o8JxLYpqWjSNcWhGHQfeib0Nd8alrRkd8J8tlI5/R725ttSgmtD/pCMpRfU5r0a9l1TVL5WYGzuGZXVZPu5/iYfhXB+A4w/ii0U9myfavavHGipd6VYLHJtke42ibd0J7Vy4hpSsjmrzippHnfj3x1fw6t5DA+RGipx0decmvLtSg8yM3cf8AqmOMdxX0b4q8I6XqWh/YYLdRd28e4zL99325wK+ankOm3zRyp5iI/wA8Z9O9a0XFx03Lw8lK9iS3v47m1+yXIHJ+SZuq+1Vbe4n0nVEkiJEsR3oR0z2pL60EkRuoBiHf93d0q/4R8rV9YtLGRA0ryqFk37c8/d963k0ou5vUajFtnb+MfE114m0K0tA8j3+ze6qc5HuKo+HtNvrO7hnvbGM25j2vFnb5i+oqv8RPDNx4b8aWar8sUzKqORxuzzj8K9I8b6bHH4H3CUyzW5Rl39hya4Jy5UlE86U1Tsl1KXg3wX9j1k6hZrssn5VZW3c/3Qa7mZZY1uHQbXxjZ6e1c58K/E1pdaJFDsWM9GUN0OPvV3VvHGqyfu1I2j5vXrzXDUk4ytI86s5c9mcH4o1yaXQVNimbtHVQPVs15h4s/tPxVrVpsWWLVUO1Y/4Rjq1e132m2FjbrcqirLJhPM9DXjOraldW3xM0+O6l8gxyYEq91Jzz+daU5p3srm1KWjVjmfil8RrzSdBtbXVoXjl83yFWJSxnIHQgcnrXnek+N7r4Yabcah4W8RXfhm5CtutF3hpGJAKrgB0BPX5gvFenftP+ItP0268OeXc2raza3/2i3t3A8uWJwFLO38Ayp5roPhT8XPDl/av4E+LXgCysdC11/KtvFNk6ySW0knCEy9CuGHB7V1xk/Z/CehQfNTvawzwP8WfjJ8CL+0+JepeCj4l0S9jR5ddjtZJkKEEMWdgxjfB+9uX6kV+mPw/+KmhfEL4Wab47tJ9mj3lkbl2YlxCAPnDfxHaQTkV8q/sb/HbTvhbfa58DPHGow6fqmg3sqaZfXLhEuoW5AYnheGGP4SDisb9r79pa1+A/xE0zwb4Rgt9JsbeOWS+t7bYsDLex5L+WOMZJ5HQ5NcNSLqStFWZdrs9r/aS+PWveCfDen3fhIpGt+RNp2vRxpeWF2uPnimBIZDjB+U/XmvH/AIa6/wCA/wBuW+1Dwr8SfBtnoPxI0+IyR6ppD+VO6DpLG/LHjHBYjt7V8f658XptNs7zwxcXtwvhOWc22oWkcoP2eZf9TcJjjkFcMOeG+YVg+BfjZrfwX+KGhaxeNHPrfh24WS3vgdq6lZkjdG57hk+ZW9RWtPDtRv1KUT7X+Gfwj8W/su/taaFqHiLVH8ReE/EWnSaJba47MGTGGjWY5OHXp1wRgivRv+CmXiKXQf2ZNRtUl8hr+8SDHPOM/LzXHab+1L4Y+Ly6/wDDXxJeNaG6j/tHwxr1yAu8gF4VLdAyN8obpgDPasb9rfxZJ8fP2B08SWqCXU9FvoodTjUkvFJEwjlc55OeDk8nOaxjGcqsXPe4krM/OLxRqklz8LfCVrvJijluMDPAIPPH4it349+Om+IFt8Pr5pfMaz8M22mOAMbWhZwf5ivOZ9UM2gwWLN80E7yINmPlYDPP1FUY5JJvKiZ8xg4VWOQMk9Pzr6HlNeh1PxIuPLvtK0xTlNOsIYQvozDc36tXGnr14rS8T6idW128uic+Y/pjoAP6Vl1XSxoPmmeaQu7bmOBn6DFKnTrj17mo66Twzd2uhRDVJ447u6Rv9EtXG5A4/wCWkg7qOy/xH6UXsI2NK8H6fodjBqfiqWSGGVd9vpcBxcTjsxzwie5qa7+Luo2cbWfh+ys/DtmP4bWNXlYerSMDk98jFcZq2q3WtahNd3szT3ErbnZ+pNU+OvT2FTyqT1QI2LvxZrV+xNzrN9MSc/PcuQPwzW1ovjTVNNAWPxDqKMBwLeIS8enzOP5Vlab4htNFVWt9Jtbi5x/rr9TMFP8AsxnC/wDfQb8OlbMPxg8V2q+XBqSQr2WGygA+nC0nG+nKDNxfiD4luLeRJI9Xu7aQbWJSNVI+giz+TCuf1K48OzYS50m4sJhyz2rSK3/Ao5C3/fQf/gNaC/HLxK8ZjuntLxf+msO0/gY9uKJ/isdStxHd6e7rnmM3AnjP1SdZD/3ywqVBrZCSsbfwx+NUnwrmSKyjj1XTvN85oZgyOMkAhXz6D+5X6H+FPE1p4t8M6VqtpH+5vLdJ4g2dw3DJH4HI/Cvy0u4oNYZpNN0/yZ+0dvJkHqDiMksOD6/TA4r65/Z3/aN0Hw54P0jwt4tW48O32nIYLe8uoGFvOhJK7j/AwyRz8vGdwrkxNNyXNHc4MVS5lzQ3PqtriW0uDKqsY9h3J61x73sE2l3kpRSxldcdxwK6b7daaxo9pcWE0d9p9wp8qaGRZFZccEMvB/D8zXE2/h9Psd5LJLtkXLKG+7wcc15Mbx3PK1T1L2jxXXlh7cZINeN/E67uJtXc3XDqSFr3bwrNt0mZs+WM8t+FeCfFKaWfWpHcgnkAFhXZh3eojuw0vfRh+HWtlWfzJZI53UrEFGFLY7multTeJcW8S29jmKIHcDkliCawNLgMNtAslpFJvO4tuGdtaWk7FvlPkIRJLhVZu2e1dr3Z6Dd7nu/2jUdP8AWEcVqVmKK/DdG69K+fde1KbUNWu5pzmUuQw9wcV9JXVxHH4MmmWUqViVVYnhexFfMNwpvNYlRXyzynkHAPPrWOFfvMxwmvMz27wPcRL8NpoWiilmdihSRsZyc4qLxw0GmwWtxbLZ7UQxMgOdrkdB+GKxPDNpZHRrgy2Vuzx7YhIs/8THHSs3x/pg0fVorFEjQeWjmQNy3+yaaV5stK8yXwjGWuhcyJMVX7uz5RnHH6V9CeFozHoikqqlsOecn868A8JfbEmWHfDJDt3mPzPk/GvbdJuvJ8Puq7d+R905FKs/esRiHrY19Q03+05fNLbkUZKt3qDwmz2+pMVhVSflCjsueataLI81qFdQc8mrGhzWsd85Aw7NtU1znNCV1Y62K8VdSCqOQp5qzvd1lZzujz+XFZ8aKmrI27qP6VYupkWOUZwe5pp2NVseYeKoJLjVHlBLInf0qtHJMzIsjeY7KQGb+Fcc1c8TTJFMcSM68fIxwC2eKj0nT4LrTr8SbBcDczEPkKNprthI7I/CdXa61pUdrChSIlUUfpRXFR6JcFFKyrtxx83aitSz6L0XxZBe26wzlUkxjMgwp+pqe9mMc/yrvRffPUZrktF0b7Rp9zM6klQQFHWudj8WXGm3e9yXEZ24brio5VLYzlFSeh1viy6WXTx5UoVw33D/Oub0yb7HIJLqApOhJEg6MuOtQ61q2n+JIoxFKba5ZwOematQ2N/Ywi3uwLiNukq/w/WsnpoZy0Re1TVv3ETYwjgEGs288W20Fv5cw3Rjqan1uF/sKmMKyKuGIrEvPDKzaJJsk3XBGRWUTFbF+xmiaB57OQSRPztbs3tV7S9Uby5A+ffNeeaF9p0mzkkBIkR9mD0NdpY30OoW+DiKXviobsRJcrNBpUkVpYm+7/AA1yfijxN9hVUdflYcmteFWtZG4yGJ5rA8VLa6hDFbSny5pH+T3qW09zO99znvFfiezm0bKRrcQ7lV429PauD8QeNvs+jy2VvFJG6yZSRuyHnFdd428JR6fo8U1szedGGb5e7ZHWrE2g2/irw3sliSO68px5gGBnA71ScVZmsJQVrnzhPezRXTTJJiQkturX8P8AiNrZjg7ZmdQ0Un+rlUk5NU/Fnhy98N37W91Ey85V85BFcxJOytvQ7RnJr0rRmkz1JLmtY9HstDPmjVdNAS6t5d0lqTlmU8/KPStXWPHN9rUmmWcY+zRfacbnGNr44Ncr8PfEkEnia3GqSmKPbhZlO3DdAD616t498M2f9l2t5btvuoZBKjKu0Nu4I/KuGppPU4KtoyszkfF3jq68M7ojHvumTa0o6Hj71eOXV0utS8kR3LMfmH8Wa+k9f8I2OraC8V6scbiHem45KccGvl/XNOfSdQkUndtOUkXoR61dBp3sGFcWnylaaeazdo3XK5wy+tP02aWx1K1urb70cgfavUemfxqaOWPVrWO0I/0tWZxIehXHetH4crbweLLWPUF8yBiFKv8AXjH411Styu51zdos9B+KGvS6vb6HI81ubhCJSGOCHwM4rP8AGPxQGp+D/sUUBiuZNonZTnKgYAJ9yKr/ABasPNs5Zo4TBHBMwwf4mrU8KeD7DXvhPc3N2yi9XJjf5s9Pu1wR5HFSfc4oqnyJvucx8PdYm0y4gm3xyxBwHXOQOehFfQv9tW9zZkpIiBlH3zgr+FfJfh/U7vQdUjjVQx34aJlOdue2a9A8QfEC50nUkIjZEkhQMsq/w5PSoxFPml7phXo881ynY3nizybyW3vdhs1m+Vwejdq8v+NPxMtreMz/AGRWeFCkeBh5XJGwA/3c16J4b08+NNItw21oll815nTGRjhQfrXln7SXhXTNFudGE8PnTXf7q3tWPDykhSzeyhs1nR5YzSbCn7NT5epo/Bj4VzfHHUrm3t1HiDWPOjGsXrkt5EbjDoMsPkRGIOOhUmvQ/EHwg+HfwH8I+J/AnxA8e2b63eeXLoCR2c00UcI/eLunKDhgRgqMDC/NU3w3/Zr+I37NPw8sPid4Q1WHUYL7T2OqaddOoi8hxtydwxhs8fePTp1r5I+MnibWte1R9HvNMnkdG8y1+0REzwL0McZV2DxjoO4AAPIrZR9pUai/dPQtrZFn4na9f/EJrK7lGPF/h+2+w30itma8hi/1Vxx99wvDN1IGTxzXnfjLxtqHjK+srrUZDJdWtslt5xbJZV6e3QjpxVe61W9t5rXzEktNTswFSY5R9oHAYHvjAB7jArM1G8N/eSTSIkbty3lrtBPrjsa9OMLGqR1eqag/ibQY72FmW/tLdLa+iUY8yFOEk/AbR+FVbLUk17S00fUZVWe2LfYbuXgKD1iY/wB0nkHsT71u/Bn4NeNvi74jj0/wfpclxdwgSyXTN5cMCnIDO56A9PX0716J4V/Y68ZeIPG9ro2uxN4ennmaCdrqBYzBIAQjiNtomiY/xwF8ZywHGc5Tpw0bIcoR0bPO9J1+51PRINJnkktPEGiyGbTLjOHK9WhPocjI+pFfYX7A3xO0zxlrXizwDr5V/D/jmy8i8sW4SC+CFfMVf7sigY9CpFePfEL9izxL4bNlH9sit9VicRT2t82GYAYE0E6jE8ef9lHj6OnQnzLTvAvjn4V/EXT44cWeqyS5tLxZD5Ny4OQquRjcSDw2DXPKVKrF8stSOaEtmWP2oP2cdf8A2bviPe6DqkMkmmSM0mmahjKXMG7gg+o6H3Brxt/vHAwK/Q65/a08L/FS4h8L/GjQhceHtT8q01BOl5o98owbmMn5lV+CcfKevevH/wBpb9hPW/hHov8AwmXhC+Xxp8PZ0EsWp2uHkhQ/d8xR2/2hWlGu7KFRamkZX0Pk+ilf7xpD1rtZoFFSwxtKQqKzt2VRmo2BViD/ACpAJRRRQAUUUUAKue1XrKPT3/4+p7iL/rhAr/zZaoUUAdXpuj6JqDKq3GrTE9fs9lG7fXZ5pNdHZ+DoI42k0bxLJbuow6XtuY4cf3ZHUuqfSUAV5ogOA2QPTsa2Y/FmrIsQN403ljCfaFWXYPbcDj8Kzad9Ba9D64/Y18feK4dauPh3fQ2g0m3guNTjlMP75d2MBHB27CTn7pHPHFe5a3Dd29xdrkeU0v7zGcb/AMSf8+nSvz28E/FTVvBvjTRfETSNfS6ZOsy27uY1kXIJQsvIVu/0Ffevw1+Jmm/ET4fxa5FZTW3nySQyJcMG2uox94dfvV5uJpOMuY8vE03GakdD4f1YafaSRyp5iN1FeKfFLUhq3iBhHH5W5QoAOOB6mvYNF1K3t47rcoldQWHOa8Y8Ya0mt+JFmiWO3SMHO4ZX8RWVH4iMP8TOc1mR4poYIxFGcAZR859c102lKi31tgW7KqjKxnknHf5TXJRQTTan9pfHlhuX2/IfqK6jwvfQLq1v5smxfO3PJ5bZ28gbfbNd89j0X8LO/wBW8TS2vgOaDzY5oZpigjh6q2O/FeceH7V5ppbmVIZI4R92ZmxXudj4P07WPCQVlU+a7SiQBgC2K8aj02X+0X0+BEkeNy2VRj0NYUZK1o7mNKStaO51ek6bdSaZIo+yx24/ffebLNkYUVpeLfD9+slvc3M8M8XJHnMQEyOhPeuDvfEVzHpZtVVsmX94zKccHhR+Ndfq3iGTWtH0uKV/ljGZZGjbO4YAVT+FW+aLuV7yd0UrFWsygljVB/rGfPl/KPfvXpXgfxJDeRur4SMfNt3cH0rzXxfry3zRW0YUDGPunP5mtPwrcG1SOJXHyjezEMcUTinG5U43jqe8pr9tYWoygJILFYzk7cd65Wz8WfbtStzAscCqxx5o2D8D3rlrjxTN9oSGMgySDdwpz0PrW14J0OPWLW2aeRkVJN7SbGDZx90GueMUlqYRjGK949MtfED/AG22hby3nZclk/u1a1XWJI7GS4BzHHks3cqK5681RtD1pIUUzvNEGVY1OQgAG0k07VNUt4VhDR4SRDx8x5JzjinZPYhavQ4vWtUS6mkvWOWf5UjZuQMelSeHre7m0+6kimWOIE+YnqMVz/ia+NxrtywTyxnAXGOnHT8Kt6RrUtlp11bozK8uCpTt65/Cu9JqOh6NrQ0Ozt7PU/s8Wy4UJtGPpiis+38Q3KwRhbRCoUAH14orP3jL3j6R0lY7WzAjYzRuN2R/C1eaeNrVFv5JYl2q3LD3716jpOnpDYqYJC2RkqegrlPHGm745H2AHb1FKMuWRKlyyPG7yRhICCRkdR1Fdd4V+IV15kVheYnhxtWRvvCuM1RWjkIq14P01tQ1q3iXOclznp0repa12dNSzjdnsUljBd2cjQEo7Ag56HisK4h8nStjs0Uqqdrx/TvVua1uLSIeW4GcKQO9Pk2f2XIk6/Jgg+3Fedp0PM9DkvDN1He6bLBd42M/Eo68Vo2ti0aOwclclVz9az9H09IrBljkDHczjd6e1R6fqjy/JExLK3+rPepvYmo9TTOoC1kEc5yp7+lcj42DSR299YSebJbMXZP9nvXT3FnHqke1j5bDLH868g8cnUvCesRzWUj/AGeYbNuWKlj7VMdWKHvOxc8ZfEpY/D9rHsWUzj94rdhntR4J8XWcUkEM8xns5yUcHdlVwPSue1TwjN4ihlknEVvcRxptZCQjMSTyKit/DNp4Z0uO8nmkW4jPDA8bq6HGFjeSjayMz4i+KLGbXL3R5G+2WAuFaK6TPmRrtbI5rjPHHg0+G5oJbWUXFhPGkkci9RnJGam1GSx8TXl0ystve+YGXLYjYAYI+pIrA/tK/wBBkRZQ0sLqhaKbmNk5wPzrohpblOuEXFWRTjlinjhwuy5DBW29GGeP1r2fxN4yhk8F6bBNL+/3orMPvoBwSPyrynT/AA7H4mmiFnIqzTNiS3ztK89V9QK9m8QeCrLSfCdmLpfMmjKxo7J/FWOIlHmSZzV5RbSZrapqFpfeGXb7SDE1s6LN3Pyivl3UL6dd9tOu63aUsrt97g4JX8BXvOp+E9R8OwR6lbor2ysm+0H3XBHzEivN9X02316w32i7LVJnzEBh48gHI9qyoPkbSM8O1C6Of8K2lsNakeS5WOEQna8hztVsAnH0qncSLBrj2tvOCsMzCG4RcbuRjP4VUs9LdvEUFnzMjSkbj/d5rpPhz4VtNc8RSW8x3IY2Vdn8LDgZ/Kuuckk2zrqSjZs7/wCLH2XUNB0u4a6QPlYZ0U53HaPm/Cp9P8SaP4f+H91ptvcm4dozjcMYbHGDUHxe8K21l4N08zN5LRL5SvH06r96uBuLOXw14VFsyPK1wfMEhXgD61wwUZRPOp8s4fM3/hnoR1vUbW9nG67gcMJJWUqV966f4qeGf+EovhcqhLxRhMEAY5NJ8JpIhZwM6rsPDLjPUCu+8QSW893cJbptYIR91sE1zVKjjUsctSrKNTQ840LxlaeE9Ks9PmnPlMqqyR/eQg9TXA/tPfZ/EXhvTdet3b7RpF0JBuI/eIWUEAf3s7TXpN14S0nXrUJNFFFOGJZ9hDZAJHJ9xVf9m/8AZp074/fGjXY9bnuZvA/hK4RGtBJs+13A4Kseu3dnkdPxrSLjGXtOxrT5JT5lub9r4H8efGb4Q2vjHxxqs+i+BtI09INI0eCJmmuz6FVYcHn5iRjH8fQfH/xUu59DYWSXqaFpjcx2ekqDLKP70hLg5PJ+XI555zX6G/8ABQD9o6w+E/w/tfhp4QaM6/eRpG9hZIdsFsAAkbKOuT1X2Wvy41rQ59LuJL7xXNM+py/vF05j/pDn1lP/ACzHTjrjsOtdOFi5N1Hsz1lG7ucfcENcOUyVJyC3U+596+jv2Of2U7r9oDxFLqGqbrbwfpci/bHbcpu2P/LGJx0bHJbsPrWX+y9+z74y+MHjC11TRvDWm3mhafcpJNP4gSU6ZnP+rYIQ8vuinnjccV+z3wK+DE3gfwzBDq1t4fgQO00On+G9IOmWsJIDEmITSAtknuta4nEOPuU9yakpN8sCr8OvgToum2+lTWumQ6NZ6bZGysmtYhHL5PHAz/CeSd3cmrHijQjoOpTWbHz4sBkY+navZ+cHPr715h8SZt3iQJ/ciT+teBVilG73OatS5IXe55z4z8Ow+K/Dd/p0yKzSRsYmZdzK4GQV9K+L/Enhm18S6XcaRqEIZSQof+KORT8sit2OVr7qTKBfbn6jAz+lfJvxO0caL461m1C7Yml8+Mf7B+b+tcKbvo7HnRPKvGPwv0P4gWEC63bLcXsaBV1Afu5QfUt0YezcVb8D+OvGv7NUE1tpIm8afDy6jaPUNAvVaV4QV+Z0XGNvfAPGcgEYrpG+8fzoVtrA/NwcjHBB9R611QxE07Sd0bxqzifD/wASfDem614nS+8JGCTT9WnYx2iSr/o8jHIjbIBHtuAJPYdK5/w/4B1HXvF0Xhy426PqDOYwt+Gj+f8AuHAJDN2z1/EV9heNPgh4W8azG7ns/wCz9S6/btPbyX3diV6E57kGte38FLd6RY2mvyQaxe2Mqyw36xNBKCowCxHIIAAyvDYr2P7QhGnZbnX9atHTc4GD4E2fh/UtE1a23rf6eFWeSFFAuNq/MSgwQecbh261yXxC+BVj4jeS+0jy9Mv9h/0dUHlzt9B9w+rdzk19JEliSep5zt2598dqpX2k2+oZMi7X/vodp/H1ry4YyopczdjlVWfxI/PHWtB1Dw/ePa6hayWs6nG2RMA/Q9xWW2Qxr9BL7wnJIrJiK6jODscBe/oeDXlnj74D2etpcT21qum3OJGUpEFWSXA2A7ei9fu/jXs08xjN2mreZ3U8SpbnybRXqOqfBXXvD/h241GazS5nWXYLe3PmlY8cyYH3vp2615lPG8UpV1KsOxFenGpGovdZ1KSlsR0UUVZQUUU9fu5/M8/rQA1c/nxX2V+yx49ivvg/qegzstvNpF35wkb/AJaRyKxwP9oMp/OvlCxbR73bFdibT5cf8fMIMkaj/aj6n6gj/dPWvZfhjrmn+FdEn8O3TrHe3M32yyv4X3QXSbcYz/eB4x2xjtWFaKnGzMqkVJWZ75pXi+KHWpIrh9sR3Iyn+Een4dPwrzy61Ly7nUrmJpfL3PGDHt5Hauaa6uLydo4wZHz90dafcBIbFAxJmJJKsOQKyhSUXoRCCi00d7HqzTeHLOOOKYM21RIrKg91z34p+kXUOn3Ymk88xA7I+VPHPy4rOjkkh8N2Ects4iUMwaVG6kAjGPbFV9P1SPS9ctS4JVfnYFTxnPrSjHcFq2fRfgfVrZvA+6O4/d4ONxAYHB4xXmWg6gr+Jbh7i9eHzCcFmXy3CjhTn3rtdB8PnW/hmGtUBkuHYxyMv3W3LnH4V5n4M0WzvfGdzYX8mY4dyqHbZlh1x68VyUUryuclFR942NH8QRtaXkMsME8jXTSksFOOR0qx4/8AFy+bbWll5ion7w7tu3fkE4H0p1voOiafo167O7slz8spjXBTI+Ws74lWOn2+oWj2aOryDONoxjI6Cto8spXZtGzkmWJro+JNUW4SMr5YAZnCgkZ4x+Neo6D4VeG333UbqT87MxXOa4aSGJtRgaCIoFUM4kjbJavarGRb2xgiKLGuxS3BGTj3rKrPWyJrTdzldO0aGx1CW9ky45VcFc57VueHfE1rCq2lx5kC+buDNjBbNSataf6GyCNW4IHDelc9pehr4suLNY4iiW2AcqdvX3qYtPczUlLVna2/iCw1fxrEEKMsMJLyN0P0rT1qxjutONxbySMVb5NvrkVlW/g+DT/FUz+Su0xj+Hiunk8nSbOWVQCm4fKo4HNTpfQUmuZWPEfGEMlvrUvm7vMYndu65qfQUEmm6hOwOFi2jb/e96b4/wBWj1TXJrhPug7f0rX8DmBvDWrhkLSMh+bHQbTj9a9Pamehze6XrNofskG7UI1Oxcj04oqza6RCbWEvZMX2LuO3vjmiseYy5j6YhkHlh7dlGRx71WvJrWTC3MY2sMHIwAO/P1qvo8kV5aGVDncQdn932qO+mkVyBGJRgg461DbWxm77I898Y/DkzWz3lhKsmSf3JORjtiua8D6fNpviSNJ1aI8j5vpXcXdpcW8bSWE7Qu77Hhk+62aI2d7hIb+0VZuivD0ocny6jdR2sy7JIscKlv73aqWt30cdizBsBvl/nUWsWMke1YnG1uoFYniCG5TTXDr8qjJrnS6nOu5k6fdZit7hGwka4b3pugXFpc3U+5fKlEhKt61j6Tot5cQs4bajNkrW5aaGYWBAwaHsEtjobeVQSGG4NkA15z4x8RRrqyaRNAGSZCI2+Xg5rtmeaxVSq7stg1xnxA8K2viCaEib7LqKDcvzYzWUPMyja+pi/EFT/wAIvH9gmV2RQlxsYbvbp71w9v4hZvBdzFqCvMkMgBRvv5wcYP1qTxZ4T1zwbGLkXDFGA3HtzUU3hm98SafbbrcweZkOy9Og5NdUVBRVztiocqueea1YwxLbXFpOrGRELxxtmRW5z+tZkmqteG1t70fuI8LmNVDhasaxp91oGsTIh3G1mJWSMZGfpV/S7WPxlJNG0cdvdrHvR1GFdsnOR9K7JNKN0dcmlG4ml2Muka5b3NjN5kIkUKYyCVDHvj6V9A+LIX1rw/AJ5jCZnV9+eN3avnr/AIR/W/DepQxKskCXTbVZhuVhnj6V33i7+3rmLR9PwEfcNkI6SMB1zXDWvKUWjza9pyi0d/4p8RReH/DiPeES9Ijg9Rt61832HiBlvrVIW2oZiyyjqATnB/2a9Z1bwXrV1pb2WpSB40t5JSvcHAOM188w3jaPq3mxtuMUhI3HOQP4arDwUky8NCGp6R4QSx8S+K3XcLaXe6SKu394MdE9zXf/AAv+G1x4fs9S8TRzKyRySLHbMQSEDbWZgP4hivIvh7a3mua9PdaZbxSXIy7QudoU54YevNdn4d+JfiOaz1fwjhIr2SRy0jJ8nJ5X2yc05x3QqkZO6TNr47q8fhGGV7syrNOrxRyLg7SwxXP6tqaXnw70OCOVmgkUCZmOdpAxisj4s+FfEB0qwkubd44re3VTGX3ZwcZrDbRNX03wvEZDmzZ9+3GMHFYxjH2em9zKEEoLXqew/C3Tmht7eNgGLMdjDuK7rxF5MKgAYkCZLK2CeO9cP8JZmuNFhWMblRhlv7p610OvLcRaq7TcLtBHuvNefVf7yx5VW7qtIzrHT7izvvtzXNuIwm4QF8nJzhsfVa9C/wCCefjGytdX+InhN5VXWJNWnuGYyLHIxBG1Yw332B+Y9gCCea8W1q81rXFS2srJkg2AfaArYGM9x/vV4t4d1DxR4I+N2peF9LmltNW8TXaxzahp0rLcPayH5oYz/CzHI3ds5rppw9omj0cIlzP0Pv2Hwv8AD74B/DXxh8QB5fi/x5qV3LBbahfKJ57rUGO2O2tWbrtYjJTjINfmvcfD2y1D40RaZ4+1u4GrTXLXOvLYobmcSE7vskKICXnYkKeQFydxGM1+mPjzwufhZ4B06dhby/E66sGsfD9vB81voFts/fNboflyifemb5nYjGQAK+J/2V002f8Aau0Wy8My6ebm0tLpp9S1Kze+aeU8yMpDoVlClsSkhVyflPStMPLkhKXY70+WLfY/SH9mjwlcQaLptnc+HLbwpplqpks/D9ud72kIA2pcMpAeZjy2MgHIy2Nx+kTnJyc89cEZ9+tcN8LbfK6hcDqZFiA9Opx0H8hXcK25QfUA1x0tU5dx4dWjfuL/AA15h8SbWSPxGJGX5Jok2H6cH+VenVQ1rRbXXrFrW5Vhk5SRPvI3YinUhzxsaVoOpGyPE15QCvn79orTfL8U2F4i8Xlr5bH/AGlO0foa+kda0ebRNQktJ8buqyDoy+teD/tKOrWuhIMBy8jDH93ArybWdjxeVx0Z4hu3fN/e5/Oij6dKKACiiigAooooAKRuAT36DPQ0tFA0Y+peH0m/e25Ecv8Adb7p+led+OPhzp/ijT5bLULRLe4k+aO7VB5iN7cDP5165Wfr0SyaXMWXcUwU9mzXRTqyjJcpack7o+HvHnwrvvBs9wR5k9jCqlr2ZPLWRm/hUZPPbr2NcFINrEf0r7b17w7aeIoZre7+bzIJIFLDITf94gf3uBXxl4g01tH1u9smbe1vK0ZbGM4OOlfT4XEe2TTPTo1PabmfRRRXcdIV2/wrsF1jxNDbTOzeRBNcQJu+UOqFun4VxFa3hu8udP1a1ns43mnVsiOMZLDnjFJ6hue76TJummlZyHIOBHu5Y8nP51JOyzajEr7UC7Q3DHPXPH1rL0mV5mgl2sgKq7hhgg45GN3ardrcQy6kzyFTu4AcMc9eg3VmlZjatc9B1jUJLjw9psXlloevEbDAHA/i9qzPA+n/ANveLoYWEjjO/YoLZxkY68Va8TalK3hXSgLbyoVTZveMgFsdvmqX4M3V7Z+JHns7b7TOsJGDJjA/ixzzxXPFtQlY5btQdj6V0XS/7B+HNxDFcN52xpIUc5KH0r5q0lbu68aFUcrcyXDbnG733dPau48TeNtauPCLR/Y7iACR2E+MfKDgKR9K5PwKt3Jrn2yGLzp2Lnb6cdfvdq56C5U5SOfDx5U5SNaGxW40O9ZborPBKD5ZDAFAyhRn3PP41B4l0PVNPXTbq8uBceciFdjMSpweKsRLqn9h6jBNpwWIyGd5y+3IB6deapXOvX+oR2kc9t5cUYzGu3tnr96tVzWujaPMtUen6BrWnxLefbIp0la2Ma7EYFj/AHia6bwz4gaGG2ifKr5Y2+ZuyfmNeaWPihbzUNrWu2IW3lcdd397rXfW+mO500Rq3yRqwQ/xc9a5p6/EYVUr3Z6JcN9qtp0OVJU8nPcZql4F1UW6xWkkBiLPtV26HntTrVJY1l89PLd8kKfpWD5txfwo+nwkT2r5JIwB+NZRTSOWFz1C5bzNXhjSQI4UjJ71j+N71dL0Vl35JNVNFkvbnUEa5i2SlMZBzx3rmfirJNFaZaTdg421rBXkjamr1EefXkj3TSz4zGrcmu++H9qf+Eb1MvlTOpVOPlGBnca4fS7SaXSbiYowj3IQSvydT1+auk8O69eWvhy/tra0MkTc+cqYwcc5OT2r0NXBpHpzfQ6G2iBt4ibmdvkHKrweKK5m3tdSe3jZIY9jKCvzdsUVhyEH1jFeRrDxGIiwyuOvNYFxrkml6oEw00LruZf4j9K49vEOo29vGrIXj24HGM/jXM3XiG9DofOf5G3L82QPY0+R30J9nqeqTappOsRMxkVH3bTg/OPpUUNvNDdKQ63EP3VkT7w+tePatrv2wrIyeRIrZLwnHy9+K7Pw9cXmn2Md1ZzvfwEcwycvz/dqZRaWpjONtTq9UePbHIj+XKjYCtVLXNQlm0sgxgljtJXpt71BqVxbalCUvYGsZmGVMgx29aqact1Z2LJITcwbsDBy2Peue9jGWwyC1WFYTC26PHNXLXEzOHGCvSoN0cduPK+SQtwtTQHy0LMPLz+tZ82pktzP1Zi0kYHTI/nXAeMrWUeJLedd2VcY/OvQ55JGkBA3/wB0elZPijTFvLJbhDtnh6CkpO+gJ2Zw3jTxFHa3MQvrd5rNXQyNjhRk5yO9Tz6fp2veHWfRZPOVzuUQyfdPp/s/SsHx402pWo06UC2ebaFkYfLn3NYPgHULvwq+oQPE81rHu3Mpyuf/ANdaxjdJo0UVJLl3PMLjVLrQtavYbiFnDM6PFMMdvvV1fwhayjuZLpVDzbgjQydNpB+YVVu/FWjeMNYuotWsorMyuFjuoW5UDj5vyqLT/B+qeF76G/smF5BInymEk/L2yBXXPl5LM7ajTp8rPQvFmsw32taBpk0a+Q7o2D2xnpXQ+Lrezjt9IurYsJLO4DAt1Axz+leEeKvGN/qHiPT5BF5dzbkbBgjkV6L488bOdJ0SVsxytMoZVC8kqAc5rhnTacbHnTpSio2PQNc8QWa6TcXMlyCjQMI2/wBlgAf0r4z8WWI0/V7ryn3wlm2N6rnivZ/H/wAQIPENvb6PBGLNoQVZwB8xC+1eE30lxCZYXbdGx539PwrpwtOUW2deEpuFzrvg/wCIDoOvSMBlZYjuGWPTB6Cr2k+MLC48aXF1cI0U0k0gDICM5bvmuf8Ahe1x/wAJPFJBtHlAu3mLwFA7Ut1cw614mmUQmC4ErsGUcNyNq/jWlZJtryLrJOUvQ9n+KHirSYtQ0m3d3KKqsxXpgnNdL4m/szWPA85t41kHlhwF6cZw34V4p8dPEz3E+lWLWEdjcW9uHmdF5bIAK1l6D8UdT0+xW3eL7TZeV5DRSD64xXL9WbjGSOF4Z2jJHb/B3x9FoaPaXSyOGkDDy1ydp45rtPiV8QIIZjFHkKIgqBupPNeU/D/RzrGlyvao8k0jKEk/hTkZDfhTfjZDdWniQoIyqQooGOhArPkjKrqRyxnWsz0vwL48tNch+zRyNM6QoGjP3M55/SvlzQte8YSftNQ3PhmAXPiz+1PJ0xblQwRtxEbHPG0DGfavU9C1xPBui2k1nHuur/DMmMttAA4/E1R/Y78Y2z/tkr4t8Qxxxw6fHeajIrnaEMcTYPucZ/OtqUfZ87Rth6bhOTPuzx7+zz46sfgpqsa383jr4n+JPLt9Y1G4lC4jYg/ZYCCFit1bknK5C992K+a/gL8BdWt/jf4g0Xw9rA0/w3ocP2HxFr+moIpLq7kw81tayBf3IYAJuGCqpwQTivub4a+KNZ8UfBOx8Q3erQ2WveMP3tk135jRwLKWEUccStksiYO1fvd+BXw58D/FE/w2+NXjP4d+D9JfUPEniHXlt28SXq5ghtYI83E5OD5jGTeQudoLZ56Vw05SlCdjolfkdj9Nfg34d07wt4LXTtLs47GwhkbZDAMcjueMk55JPJJJOSSa9U0+2VI/Mx8zZJ/OvO/hmnl+Flj8x5cO6eZJ95vc8Dn8BXo9hJ5kC/iPyNdWBV3qdNL4FcmZFlUqy8VjX0KwzbUGFYVtNhck1hXU3nTMwG7n5fauvFWtZGp598VIE+z2E+MOC0ZPtgY/Wvjj9oLVhdeNLWzU5Fjbjd/vkl6+u/iZqkc1/bWiv8tuvmSN6Mf/AKwFfBnjHWH17xVql+fmE1w/lj0UHA/QV8xW+I8Wt8ZjL91foP5UtJS1iYhRRRQAUUUUAFFFFABWX4jl8vTWX+JyAPzrUrE8UN+4t09ZD/KqjqwOcZgCR8w2MWyOvbpXyb8btJfTfiDqUqwLDb3R8yIx/dcYAY/99A596+otW1qDQ0t5rvclvJMsTThQVj3cLu9Bur5q+Mmso/ijUdOW1e3RWDSROwZVm4zIhH8LD+Zr3sCmp6HoYf4jzNvvHHSkp0nLE9M9qbXvM9AK2vCnmnWrUQTtby5O2Rex9/asWvVvgn4Th1K113XLgbk063Kwr6Sspw34DP51EmorUTlynTafcCCzlkc7pQu3OeCe5/OjSVWS6BkBKLg4H41nvO0cO3btjHA9h2H5Yqe2uDBAdr4Y5zjvxU6tFX0Oz8Uao1xoGkW/ltGFViGk+6eB0rY+EV1a22sXE88kgdYz5SxBvvdulcnqkjSaHpbNHMuzd87/AHTyvSus+E813pOoyXRh3Wpicszr97AyFH41ztNU3YwldQaR7w1re3Xwvnsbi3dTMJJAzYH8RPfmvL/AevWfh/XLhp7ny1MbR7UUZ+XpnC+teqw+PJLj4anUJLNhMi52t714l4Da01DW9Umu4YbgMNyRzfcBLZP8XpXLRV4O559HWLuabeN0utHv4s757iRhtkGVALKWYDHpT/FmqaVNpdi1nP511EFjYFMAp2x+NS/2bFJoniNY44Y4FvozHxgqN5yVOTxiq/jzS9NsbLT5LJUjlztPltnzFIzu/Wto8rsjqjyuyNGPxdIt1vmtZEP2VYvlXkHP3q9X8K+MbZbjTftKSRbEwHmHXrXjmnXhkkllubaYpFbKo2Ljp0JrorHW5PFGsackSEBBt5OeBgH9KmpFX0FUjFs9S1bx1DHqSSQZmQQqNvUlsHtVH4e+JpZNUjjmR44bjI3MMZbPpXCeJluvDfimUlSyP/qlU5AXJxxRouuXKyaOphZV+0g7yMA81EY3iQoJR0PetX8S2+hXkEYI3qp3Y65zXlvxIupbjWpzIzCKT513fWur1jU/7W8T2oijGY0Il3d1wcY/GvM/Gd7d3V0jXMTwtHEEUnoeadJa2DDxvNC/2k39nXEKBsOw3uOgUHFdj4Q8QW9l4Z1GxlEhabcUMY+6K4nT9UX+yZrAxGSSV9ysO1d94Rhij8K3sc1pE0zLLulkGCqeWcc/Wu6pJJWZ3Tsk7klr4qtY7WFeTtRR932oqW103T/ssO6yZm2Lk+Z1OKK4uaJzc0T6O0uK0+xw2ogx+4Vgfwyf1rmrjwVYalqjrj5GXO31NLpfiRJGTjP7rYT6cUzSxctcSSGQnGcVTbT0Jcmtjj/FHgdrEmNcMh+6B1pPhPZ3a+JFhlaRYlDERt0LVp6xrF1HclpDv25wPWtTwr4qsbu4XKLDOvAXGMfjT5nbUbm2tTc8WbDaILhAGbK4H0rPsbdIdGijX5Tjd9eam8VXkd0YXU+Y+do5zis7Ubjy7RCjbdg/OueUveOVyV9SW4iiMe3y9srchqaoeOEDHmc81Vt9SVo1L/eHWtOzVLlSQ2Mc1mvedgunsZqwq0wIbvzVHXvLkaGNj8hPNaV1IIZgR0HG6sTWrtIZ7XAWRWcn5u3HapasKWxxnxUsJrzR1iigMixyRuWjGHC5wef+BVR8L2Nsvh+/WDZPHdxssi5yRlT+tP8AHniZ7e4WOznWGRQhEdxtCOeflJNVPDGuWkml3VsWFvdsfMLqQVD/AN0GiLaSsZ+/ynhnibwpFHrV7BBIYZUmWMxTDBGSSDn+7zXUfC271TwjeXkF0f3cKh1VjlSeeR7GqHiaG90O3u724t0v0urgj7RliUbGNoxT/A2oJ4cilvdTdrrTrpQsinPmRkHGBn6V2zu4andJudLU7K88P6L4w1rT7gObLVXVZEU9HbJrU+K3gmzutE0mW4T545Y43cHAxgZ5+ua811DxVa3niKy1XTZcpa3Kwrb/APLRgc9K7nxB4+vI7KztJLESWsk4V1nO2QMQCMevWuSSnFxOCUZwasHiDwL4ZhkltYLJluRZtKkySZIbbxmvmBdSW31FUuUaeCN2yvtjn9a+o/Eviays/ELGN43lktHidD/CNvQCvl/VtJ+0Tl7YMWeQrhxjnPGPwrqwz5ruR14WUndydjpPAfhO28QXzSxzsts6uQkcipIDxj60/wAAaWB8VltYgXWGfJzjnBNc94Lttc/tZk0qFpLiJWV1PbPA/Wuo+G+vW3hvxxnV4/s99CSsrN/E2eVq6t0pW7GtW6UmnfQ9B+Mnhqx0zUbHUr5Vms7xfJZv4kx/Ev0rotL+FvhhfBty9qz3Rkj85Jm+h+WvMf2jta1m9m05LjjTmUzQeUvqMDNTfDjxd4im8EyWNvbNNHbsozGvz9DXDyzVNSR5/LP2Skjov2fdJZo5rdoz5BuCDj2rs/iV4OsNU1BojHkLApz6cms/4YTNP4fkNgiwySP+93jAD5Ga6qGzvNY8R3omCxmIqp9+tcM6kvaXR59Sry1L3szzrQPhbpmn3Nle3tyZGAIC4zuUgjbj8a+a/jvEPh38XPFMemJJt1i2DQyfd2pMoLgDvnlfwr6y8Q3r6U9lNdLGLRZihB6tya+df2nNZ0w/EbwlqEsDm2t9PV5I8ENMyyuwGff5R/wGuvCylKq3LsdOEqznWvJ3Vj6p8VfHpPDPxm+AXhCOWOfTPBekfbdUtzhUe4NqQqMO2CVHvil/Y11i88RfGP4panrV3pd7rk6wymVYXS5jRwWMSgNsSFc9cbmbPY18a+CR4n8WDXvGEbRSa1qcn2eC6vHbECZ+aTPQgYC4IbkDivsf9jv4J69qXgvSPEviG9i0zw9fOupx6NpsjGfV3BIWfUJ873AIysClVHGQORWuIhCEHc9itaMWmfox8OQF8NkDkefJg4xnnrjtnriu80lv3co/2q4b4exlfC0ZY5LySHIx6+1d3pSbbdj/AHmpYJe8ka0bqCQanIVg2Dq3X/drkvE/iCPw/p5lGGuG+WCPuT/ePsK6TUmL3e0dFAUfXqf0rxLxlqx1bXLlg26GI+TEvoM1ljK9ptE16nJE5Lxpq8tt4d1vUJCWmW3kk3Hu3T8ua+N1ztGTk9/rX1l8VP8AknPiLv8A6Mw/8fSvk6vEvzanji0UUUgCiiigAooooAKKKKACsLxT9y2/3j/Kt2sHxR923+p/lV0/iGjjPEWnrrXh/ULFpxbedbsnmsqsqDGcsDwB7np1r5D8T6q+qSW/2hvMu7WP7I86tuWVEPyMD3OMAHuAK9++KerS+Hb65+0tImkazpklmZF6QzryrfiMCvmCTO85619PgYcsGz08PGyuEmd3PWm0UV6Z2Dlzt9ute0/A3QRqmk+IIJZmt7lYEu4oHX5ZY9xQsD7E4rxZR0J4BzX0F8LbHUdW8IrrEDLC+n2Ulq8nQyxFwduP4uSaxqy5UZVHZGFqGFfCDaPWp41X7Aj5A5PI6mjVIYYra3KPvmf76+hz0ojgkksQFYMpJwvfPf8ASqjsmXF3SO01CFF8I6YBE45Zt0n3ScDpXp/wh8Pxavp2+OPyJYWdg+OGbFeb67dX3/CF6NBPb+XAobZIe47V0HhL4kajo9la6fYQ7yXZd2MfMRnr+NclSMpJqPc5akZSi+Xue/6rpa2/w7DOm5dj+ce3fH6187+A9Ct/EHiSeCaQxIgL4jONx/uk17Tf+LLi6+DbHUVEUrCSM4OTmvD/AAPcXSeIXjsJIop3UkNN0IUE7TXPh7xUjnwsZcskmdsvg1W8O6gUu/Kk+dlt85U7T3P41heJfCL+HrOwla4Mxb5GU/8ALM4bj8sVd0++8Qz+Gb25jLPaoDvZQpAJdT+VVvGa6otvpyX8scvmDeFQADGOCT9K3pyd9TopuXNaTudPa6pe3kdyq2H7lYAnReRjAP5V1/wq8IxC6t57kAuSSoAGRx7VzXhe6kgmjgWzuJA8SDGc9utd74TWZ1jMP3gcH04rCcmrpGFR8tzV17wrDNrUbRw7wqfc77sGqXhXwjp109vBc74nWTeM9C2K6/TIpXvp3nUNJjAx9K47UtUvLbxBZxwW5Q/aABLJ93P90VjGUrHPCTktDu7jwvarfF4UJikRQQvYjg5/EVxXxatzNdRQhAY40AVh9a9T0u4MzS+adsu3lPQ96zvE+h2eqWvnsMNGOtVGUnK5pTk4yuzwbw3prXHia1gClk37mx/d4r037DGLjxOk0LLHFGXWQt935Tt/WuPXSZofFVsljzLkMSOu3NdTJquqXFv4izbxrHtWORZeo42hv1rsm23qd0pczILfTdPkt4mknbzGUFvm745orHsdP1BrOBgu4GNSD68UVmZn0do/hqG309WD/vCuemM1FbSvp3nQyJiTBYVDpmqD+xFkL5YR9Kpw64s7rcSrygxTa1sRJTepyXiXWEhba3BL81W8Dsl94hRM5QtlhT/HN/ouoS25jYh9xDhfTHet74ZeFVsNQgvBdJdW7qwGOvQVXLoaxSUdTZ8VWv2O+t3jGIif1qPWb2GKw/ejHy7ia2fHFwkUcUYUnD7tx6V53431KL+yZJvtAwq8Y71zyXvHNJK9kbllPatarJH86kc+1a1kxjUHORmvM/h/qg1TTZw74ZG3LXcWOoBiYt4LHpUcvLKxm1yyH3UyyXTc5APSuI8bXapeWSK2xmkAC10+sahawXEYaTy3bjd615z8RNSFvrGkxxN9olZt+1OoXPepkk5akaydkL4wk0m8tXkvIQfLAidh1AzVfwP4OTRbO/uVlWaydZHiRjkk4GOK5j4l3407RLiNsLcXBDBR1C4rP+F/j5rPS7mG4l3PCjOnmlSNvHygVfLJw900UJ8jscv4q1C3Z0jEssNyl35jwzDCsueD+ddJaeFovHmsS298Rpqw2nmPNEcqxzkNivO/E3jSXXtan/tCON4JJ1LMiASKu4/Kpr0P4U6tp0evX0dpqG+Oe0EcSXHruX5T71tOLjTTN6kXGmmYmvfCRfCeoaRfxXIurGacAyIMc54P510/xA8baE1xa6bqNvJ5i4HmqMOHAHQ0nxM1D7FY6DbxSzRPHOjNGV+Qt5nr6Va8beH9Pv7vRL7UJbf7ZC0LkR/dYf7VYSlzWcjjlPmacjnvjF4Z+16LpmpaOsjzRwqWbOWxgda8Hj12aHy4rg7Xjm8zzR1HrmvqP4ueJYfD+hxSWSiRpotqGLoor5o222uQLNNCyMJijSR9iR3rfDSUotvY68O3ytPY7Xwbr1rbs6SQrOLpt3nQ/e4OQp/Gqnhvwr/bnxcLX6skEty0m49Qc/dql8N5D4Z1a5uGlXyVUjLegwSo+ors/hj4ustf+Jm7yzGrSvIuemO36UpyspW7ETU4KXKa/wAXJLi18XaHZ3Nm8ukOwRFfrkH+Gutk0G20PSdVn0tjDcFPOMR6cgnFZnx78WWsa6VHFsa4tj9oAbp94DA/nW9o/iSx1Dw5qeoySwrO0Pl7JDl84Iworz9eRNnmNytHsc38G/E0N5pJh8ry3MylwvQtmvY7eRXvrmUQn93tLbRgjk9TXhnwVhNxpc83k7Hjn+WRDjByMZFetalrp0fUtQe5mESNHkMD1POf1rjqq8ziq3UmkcJqgh1a6vLWeKSWAyb3YHMY4O38ea8N+Inwp1f41r4p8UWCDTtH8KRS2qI0ZeS4MW5pCx3fIMhgPYCvZl1aK70uGW1uV81J1k3blDdf1+9WR4J8aReCf2mNa8PX2xfA3jWygt74qo8m3uJkKxyN3X51bOOu4GumjKUZOUeiOvCcyk35Hgmn659q+Dtowkh0q2aeOyeUvL5UEYbDPKUDSFTjlVUn5uO9frhoMdrp/h3S47ZILezjtIRGsAVIQuwbdvAIH1APrX5C/tHeB9R+Cfxc1PwlCPIsLsQ3TWLgGKRWyUztOSPlGeQc5r7G/Za+K2sfFS11efX9SN9fwpbxxQAKscMQQqqRoPujcPqep5JrtrUfbRjOOzPbnTdZRkfb/wDw0F8OPhvpen6b4g8WWdhfGLzGgkV3Yg/xDauCu7Oa6nw9+038JtWWOC3+Ivh5Zs4K3OoLBuPovmFc/QZr8i/23PjRZaf8T7XRrKD7fd6RarDcOsmER2bzCM4OcZ9q+Yp/i9rknCraQ46bY+n6124eh7NXO2MeVWP6O7rXrK+028v7G9gvbURsRPbSCRenHI4PNeIs5kJduWb5mwMcnr+tfh5o/wAePGfh+b7RpWryaZcEYM1mTE5/EHJr1zwb/wAFD/i34U8tLm9sdftVwDFqluXbHfEgYOD/AMCrhxOBqVHeJyYik6msT9MvjJeLZ/DfV9zbPOVYR7sx/wDrV8t+n61yGrf8FEND+JXhm10rXvD134du1uFeS4tJVurZhjr0VwfYBvrVjR/iNoXiK0E+m3gvYSAN0e1tp7bhkbT7Yrx6mHq0t0edKnOHxHUUVTstSt747Y2bcOqtjP6GrlYNPqQFFIzKASTgDqScY/Gq/wBvt+1zEffzFqbXGizRVOTVbWPlrlD7Kwb+VVn8Q2a/dLP/ALqrn/0KqUX0Ktc1aKx18SWzdUlX/eVf/iqs2+tWkxC+cEb/AKaAAfgc0OMupPLYv1jeKIvMs4pP+ecn9K2FYMoIOR65zUF/AbqzliHUjK/WkgPHfiVpcuqeE7hEtRfxRnzZbTjMiAclCOVdRz6noeK+S9bs7e11CVbO4+2Wzcxvja2MZwy9iOh7cccV9wHMOQ33kI6eue9fNvx88D2Xh/Wo9SsHjjS8ZvOtVb5o3/vAeh6/U19FgaqXuM9DDz5fdPIM80fepXX5j7elJ3r29tD0Nx0eeB9fevpX4V+LbPwx4AutHcefFc27PHcAYO484x7E4/CvAvCunQax4g0ywupTBb3NwkTyrjKKWAJHvivpi38D6dZ6He2dpfxCC1mK27z482RUHAGPWuPENXUWcdaSuos4DWgVmiZkKIASCe+Tmt7wKxvNThjS0Nw4RyVAUE8HvWT4zMqSQSOwZ3iBCL24roPhiqxqsqbZJtkmI22pt+X7wJ60Sf7ttGjdoaFvxVrE1xoukW0ltNDHGm75yCvA7U/wvDcr/Z7Gxlmj83zNy7ct7DNZnjLUtQvNL0qKeJobVVfY0mPmPfFbOi69fR2ulxpazmON2SNiMK+RkDP0NQk/ZpohJqnofRtxbrcfDc6bPayK8imXe2MLySBx6dK+evD1xDYeOkeSJ2jTK7IB83Q9K+g9J8VRSfDFb6Z15DQFXKnY4yMDP0rwbwheW1r46d7hgqFJCzEheNp/Ouahf3rnJhm0pXVzr/DfiCYeBdcht9Lnudu5hJs3Kqk5LH0IHH4VzninVvtmm6bEsUqxrucPKcseBjb7V6Do/iq2HgfxPHbkRxbpgQvGcnCkiuA8eXATTdDtROk7RRbmZDk7+OKulqzWi79Do7TxReSqsSWcsZVIzujb+HJ616z8Nbvbp/nTIwjJ+8TkV474dvb2PUwiwNCzwZfd/d5y1e2+GXhk8K6dHBMob5Rt/ve9YVtG4mWIOyiuF/ezcuoXtXPaDGNQv5Lm5hzFCxZQfXNWZdW+xXEyBfO+XAT8OaxPDOvCa9ktXDW6tJ8jH7p9f1rKHwnNCLUbo7/Tr61vtUMcTM25fm9Aah8aSDS/D9x+9y7fdFFjJFHrIEcib/L+bH1rkfizrDDR5DGcnfsJqoR941ppNpHD6D4lnh8UQzpEZvLADgdcZroZfElzqK+JJY7OdPMVU+X7qHJ5b/gOK4v4eatDpviISTjdHJGyfw8NkV3mn6i1wvimW1/eIwKBDjGdpBb8q7pR5XY9KUeVmLZ62kdrCn2S4faijcO/HWiuzs7aX7JBt8orsXH0xRUGZutpuo22meePkiAxg1Sm8RLb2xTd82MV6/ql5BPo8hyPLkTKqowQccV45B4ah16SdIrjyZwWO1v51spJ7mikpbnC6teG4kZ855qbQ/G9/wCHv3cE7LEWLBe2cVW1ixayuHQsH2nG5eh96wZt1dFotHTaLR7VY/Gi1ubeJL+Mq20AsBnn6U3WdF0PxVZgi58mSTlTu2fpXiaKTIpPQEZ/Wt7xZGy6No9zbkgCLBPpyK45Q7HHOFn7p3+j/DS90WEyWk3noxweMfpWVJquoaPqEguomiUHAPY10HhbXr/+w9DUSiUOoR2Pb0/Sob7xppsl1PZ6nasDG5CnGQ3PWudt31OWUmpanmvjTxhLcIdrkFemK87ste1GfXrWSKUtcBtq59K9w1zwJofiLTJZrCcxT4yir0LH1FeZ6t8Kdb8N3UF9D5d0mVxs67s/dxXTGcHFpmtOVPld3Y2viBFaTx2lzqRUoFWOQKemf4qzfAfwu0/xNa6neRXZWASGONM8nBB3UnxY8N3n9j2+p7GU4VZoyMYPPFS/DvSb1vAUlvFKbGS4lAEi/f27eMfjWXw07oTfLC6Z414m0efSNQuI5InCByAW7+9WvAGlPqmuLHHM0DIC6snXdxVvxJ4q1K1up9NvjHdxwyqXaVfmcg4xn6V6t8M28La7qU9zpJSy1Bbcb7eboGz1FdFSbVJJm1eo400mc34w8Y6r4TvE0m7CajDIyMGnX5xliTz+Neka94U0m5tdCuIXWKa62BkcbtwKNlR6V5v8UfAPia+1yK6MP2vcVCtCc46YOPpXSfErw/qdtb+FZ7W52y28sX7thhQ23nP4150nGyaPPlyuKa3NjxR8I7SSKFbeeSIRQtIqMd67gOmO1fN95YqGjtSv2d/PdpZP4CoxjH419R694uGg+HjPey/vmgI+boCV5xXy8fEFpcNGbc+XN5zuyt0wQCP1qsNKdmPCym00d18MPhtceKNQvtRltRJbRkRhUOVZ8jJx9Kpah4Xl0H4uWtvBAtjL577fLXClc1o/CDxJc2us/Y7a5NsJnkaUR/d3dzXVaPbQ678ULJ9SbF2hlRZH+5IvbH40qk2pO4p1Kik/Q8l+JXhvVtH8ZRxXE/2iO6bG5zn5SQeK95s/hLp8Xhm8yzf6kTR57MFNcV8dL/8AszWdAeZVjeOdy0a/3QxGa9C1DxBaf8IRdn7aymSzLrvGBt29jWFSpUaikccqlSdOkcJ8J9aez02e3kRZbVnwJsshVwRkE9+KvfFJ7nVtWu4rYDy0twyCHPLZOBz7V5h8Ite1XVo7jSx+8hkm8wTMVPljIxiux8beHfFWl69qM2m35eNEV5klILFf9kVEqdql2RKFq3vM8wvLo+HvC885mL399IsEYY/dA+9gd8HI/CvYPg74DbxV8Wv7GuLdWlk0axu5kdvuRJcF/M/3snj2Iryu48E6rqWj2/iO5O+3tfMmmQjCxIuWLD8v/Hq9I8B/FDWvhToOn6loWhReIfil46t31SX7RKFGmaWreXbRjPy4OwHB9a6akeaLS6nfyKSumeYftieIB45/ajuJ1tpEto7G1gjBxvKpFtLk4PfJrM8Iy6h8PGvr/wAOanfWWom2eFJoZSGHGMggYz92vU/Afwz8U/tEftJalH4s0qzsdVk8PSTLLYyhljmLbIGJHAO/II/uk1w2uaDf+FNZv9H1W2az1KwnaG4gYY2yqxBH09PbFd1GS5Iw7Hp0pe6kfK2p3dxfahcXF3LJPcyOWklmYs7N3JJ71WruviZ4PfRdSk1CBCbK4cksv8Dnqp+pyfxrhW616C2NwooooAK09D12+8P3sd5p91Ja3CZ2yRtj8D61mU9eme3NFlLRgfYfwu+LWkato+nXuq6vp2nXzBoriOe5SL23bS3AOM++c16nbeMdBvpNltrWm3B3YAivEckdiPm6V5N+zf4Ni1LwtocB0uK+vbqSV41+zrK7/MNvBXJ79K9p8WfAey0GxFxrHgnTorZwQkz2ULAEjIUsq/Kfavk6ypKpKJ41Tk5jivG3i600yxutQu7hU061XhlIO456Dn5mz2r548RftJajNM8ekWMFtBk4kuAZHPvjIA+nNaHx68I6J4b8P2Mmn2C2Vzc3JjPkkgbQucbO9eCseelerhMLScOdq510aMbXO5vvjN4wvM51mSIHtCiJj8gDWLcePvEl1nztf1Jx12m6kx+Wa5/j0pPwr1I04R2R2KMVsi/ca1f3X+tvrmXPPzysf60+31zULXiC/uYD1/dysuP1rM49KXir5Y9irHc6J8YvGPh+QNaeIbw+onkEo+mG3V6t4P8A2uL2GWOHxJpUVxDnBurHMcir3JQ5B/ArXzjSHNc88PRqfFEylShLc++LfWtJ8Y2a6lol2l1ERukSNiGX3IPINeCftNLgaK/kRncJB9o53Dp8p+vWvOfhzq0yzPp4lkjDAyxMhwY2UZyDXWfFjQNQt/A3h3WdT1XUr67vpZMw3ku9FGSAyL24A/E1wU8PHD1k09DmjR9nPQ8dk++acmXwFGT0A6k05YzNIqoNzNgBU5Jr2T4a/BK61Caz1LVT5USybzaunLIAeD6HgEexr1K1SNPVnXKSirs4f4fWtxY+LNLvpLdktLS8h+0SzwsY4wzgfP6ZHSvfNT8F6bNpWv6lA7+ZbzOixpnYQSCCD6YqLUvGPhbT9Y1rRIIftd3dW7/bJFw0Q2I+5d33twHHAPSo/BPhjUNS+FK62NTdGWCQrbqy8naoAP4V58pyqNT6HDOTk1O9jgPEkis0CIpXauN2c5rf8C29xfebHDaSXTLC5CxjGDj7xNZmvs8lla+bCqybmX5SOCQM9K2fCOuXHhG8M8Mq4aN4zv68r1rrleUbI7HrHcs+LNYnl8NaNaSoyRqGBMh3gnK5wO3NdDYXUtx4W0ULaSTstzk7W+ZlXJAA+pri/EDSzaPp8skTIGLkOzfeyynOK6/RfEN9ZeGNGjGnrKonk8qSI4dzjGP/AB6s5K0NDGUXyaHvVj4Rtbz4Qjes0Uux5XjIzh+uMV4R4WsY7rxmYJbYTqAd0cgYKMdWIHtX0t9qvZPhfBLAgV5YWd0J+6Ocj86+cfBenax4j8SX1xYXCwzQptZm+7t9q48Pe0rs5sNLSTbseoeG/DumzfDrxJcR2mFLMgeTP3M4XFef+PtHstFXTms5N0vlq7r33ZrrvD9j4hh+HfidvM/dq5xt7ndgn8q4nxp4fvNMtdPvpbn7THLkKJOxwcAfhWlC3NqzSirN3dzf8O6pe6trm+4gKnyNoDbeFwRuGa9K0uCPS4bSBVdDNArBmUHBz7dK8t0fXb3+2rlv7PeSaGAqFX+FfU12Ggabr2oWsG2+VYZW3gf3TzxSqRabYq0bO72Oi8SeJJrPVkjs4/MV4tgCvnL4+Y5q34TsZfEcdsLhvLhjuOWPXbisjXNDudLbSkMH2l1iMhkBxk49a3PAUl832a2mtwkM0pO5Tkg47msne2hndez0O20+xsLLxQlnGZnPl7/MTsM8Zrj/AIrwyW1hMsbb4Hmzndja1b+neGfEGm+NJJ2mV7XCnc38S8fKKb8R9DufsVyUh3QzPu3f3G7CiLSkmKm/fieVeCNOg1DXI4bkkRlHY55APFeoeEdDtY9N19Y281fM2rIjfcPoa810PSWh1BQbkQNIDGWHUciuxsbW/wBP0PxEluxkRX3NMW6bea7KnvandWfM7ne2/h9BbxA2sbHaMnd14ormrHxFqE1lbv52d0at971FFY8phynuel2N2bWRLm2wjHcR/drGv/BtrFcLNAWTdlWKe/rXoFrLJDEscibnZcsfesabU7drnyZEKgnG4jA/OqkTzO+h5R4z+HBs9OW8SUS7pNmB15rynUdJurO8aKSFlKjP+FfT/ifT/wC0tHMBl2JvDKynI6968u1rR/EUN3KIzbXcDKy87fu+2apVLHRCq1ucJpfhtr21JIxnvWnqng7VINFltmIeFQZSG7LjtXoGg6XFZ2VuLu2eGRQCzLjBGK29QtY7qzmX5cSIyLj0I4rnlPW5lKpdni3gxtSnWJBu8qLGPpXYX3hVbjY8i/M3Oa6Xwb4aGm2pQqpLGtm7t1DgbehqJ3b0MJtyfMjy2+8FzNlbeV4pD0K964+91bxH4b1RYZWe7UjascwYgHswFe/3NquFb7vFcN4yhjhura74Z0Ock5z+FQp20kZ3tueZaz4/fVLNLDWbPMbTx75FUrhQSDnPtXQQ6Ixt0fR50ns2U+VGDwOmPm7cVT+KWtW03hlVS0hBmb5m2YOfrWh4FQaL4fjjknyHtzKFHYDr+lVJqyaE7KKaPnr4geEdX03Vr69vbUxoZmDSAfKOaxvC66lDqgl05HM6gYKBvX2rpfGnxCvrjWL+2DrLYC6Dxq6+jHGK6n4U+JdGvNUkaXNrcOyAY6lsmu3nmqT0uejzzVJ8yujnl8feMtB8QI6GR3kOPs84Yo34V3+teMNU1bTrJdZ0ea3TzFkSRAQpfnaMemafqmgx614ghuLTUlkkhZv3cjcn1q18bdQ+xeC7a0MspmkaNs4Y8BTn9K4pSjOyasea5Rm0krM4j4k2uteJtIsYYJFlfy98kES8ggck/QV8/XFnPakho2VAcBsV9P8Ag2M3Ggaze2yyNJs2I7A8Jg+tfOV54guGuEhnCSW8TFQrDqe+Pwrrwk3eyVzrwsm7xR6B+z/Y6lda5PJa2hvo40LHd9xW46102t6hq1j8StMuBYyQzrPKRbqGCtx1Bp/7NHiCy0q8vLfzzGt0zKoYfdGAR/KtyLUk8TfFq6YXH25LdWnSNugNclZv2kro5K8n7SV10PLfi7Nqesajb3F7HNFKi52qSQo3Hk5rZhtvFeseHXsngkubbycpNH2XIzn8K9H8eWmm6pPaXUifY5ZGWJkj6Nk8/pXptjZ2OkaL9kiWMw+Wwide421zyxHKkcrxS5Y2Vjw34H+GzDbiExnYZ1XkYyv93NepeO7G90/WGa2sd7yQiJlzkCPBpfANtHa2u9YsqJSSfyrv3vvtGrStJjbwq+/WvPq4jmqXOCpU5pOTPlTWG1fxld6D4DtLV7GDXbxLSWRThfs4fdMc+yr/AOPV1Hw6z4o1TXfGcu2L+0pVsLC2U5FpY2xMUUWf91Frr4/EGneH/jl8NZZikVr9turJpH+7FJcRBVORyMFc/wDAqyV8F+JPg54T1Kw1rQrjT5bWO+ubWZ5YporjbvdeYmJXp/Eo/rW86knSsup6VOd6aUT2T9jpN/7Tuuq6kZ8PWTAdDkXE+CPXmvT/ANtT9kuT4pW7+NPB9on/AAl1rEq3liq4/tCNc52j/nqAMAHhgBjmvDf2JtF1/wAH/GrTb/xFqUmo3XivwxBqSm46wKLtl8qLbwq/Nyvc5Pev0q47htqgNgHG3ngg9jnjFdVOTp2Xkevh7KNj8HNS04S+fZX1qQTlJbadOVYdVdf4WHTB5GOa4T4ieG7LTvBZ+w2qQeTcJIPLGTk5ByfpX7N/tD/sa+Evjg0+rWxXw34tIwdSt4j5U56fvowRk8AbwVPHfpX50/HP9ljx58LWu7DxBoj3mlSxnGo6aPPgZQT8xIBKH/fAPFerCupJNnU2lufC7Z3U3mux8S/Du90PfNAReWeeGj+8o9xXIsCrYP8ALFd3MpbCUk9htXNNWBru2+2bxZmVRK0YywXPzY98Vu+B/AOq+OrwQ2EBWFTiW6cYijGepPc+1fRV98O49D+H58P6FYpeXd1JHCZpEV8uxw0p9CoPHsRXJVxEKbUepnUqxg+VHvv7AujyeJtX1vxTGrQ+H7ALZaTbuigqMAFv944J/GvsDxZocXiHwzqenSKPKngZecZBAJDfXNUvgz8Erb4JfAXwvphTy9RmQS3T8ZUFQQPwyD/wKukCtNIExt8z5dvp7fhXy1ezqNo8molGep+N/wC03q08eoafobxjy4A0xl/vsTt/9lrweTJYk9TzX1B+1J4Xa+t5dTij3yWN9NE+OfkZyM/mBXz74o8LXPh1rSR0drS+t1ubaVhjch68exyPwr6bByi6KS3PToNOOhgUUrfePpSV3HSFFFFABTvSm1YtYZLiSOKNTI7nCovUnPQe9Hmw06nTfDi1ebXCyrv2xMNvqW4A/OvoH9oTwy9v8GdD8w5uNOeIt7bgcj8C1XPgN8C5fC9vFrGuxj7fIVlis+8a/wAJf3ro/wBpCQf8Kz1BH5J2v/wLeK8KtiFPExUNkzz51U6qSPmH4R+G5tW8ZabO8TLbRsZRJ2yvT9SK9w+JeratHJpvhbw2jLqGoh98qjHlxDAJz+fzVn/CXT00/wAF+HJtuxrgyzZHc+Ztyfyp3/C6NG0P4halLEv2tobJbSNo4WcFw4Z+F64wBz6VdWU6tVySvYcm5zbSOE1z4bTfDvxxPZSzNJDcaTNNHdSHOWMZDHPfDZ/Ot/wf4p1Oz8GX2iQW0zwNbgrtPEQ2ruLfrW7408RQ+PPANz4kW4LXWmxzwp+72tiQFSCO2GAH4Vl6V4ojt/DK28QVry4CxfIrZWNQhOf++a2pzlOPvx1K1nvExdaaFdHsFVpGxK27d0K4HSmNJaM0hVJQuCAZOnSpPEkh1CG2ZECgSbEZc8fWmxpNaRv5ZTeuRtXd0xy3HtXXH4djojtaxf1q+nm8O6XG6RiNMhWXqa3fDdxqMOj6WILRpFjnkMZZu5UA/pXO69b3cGiaWZ7QwwbWaN1BBkGTgk11ujzanDoOjRxRQvG8xKbW+YnHeom0oamcmlHU9m1HW9c034QSvLbBY2LRGRd25UyvSvIvhVcXUOs3q20bXLyxbfLViN3PBP419JalaXF58H/sbbBO1rIWkXoPavnX4Q3sei+J5TIN7kNGjFdyBsjr6Vx0ZLklY4aLvCVjvI9W1PTfAuv6d9jlhMYMk08ZbAYupI/WuT8YapdXuiaHJNEYsMZMMSQ2AAMA13VxrZvtD8ZSOoQyIybc/MACAWHtkGuH1y6t7zw3olnFOs0kErOZgMZ6bVz9adPRXNKVuU6XwbNfTa9NKLHyJJYBv3nHyYwGA+tey6LpL23h2xC25B2Bzn+Nu5/KvNfCepam3iTbPpyozQLuXd/Dnlq99m1C2k0uHy1XagG6sq0tTHEP3jmte0W81BbcmMLtRtgHXGOK5zw/perWuyO1QblnyfM6HjPFew2csM1qjlFPB4/CudsWEepsQnkwq6Nu9WxWUZe6Y35NCpbzawddiku4MfuwqR5681s31jPe6LdLd/IiybgtWZpS+p2+05Qpgt/tHmn+JtQ/s7w3M7NxgqfrVReppD4rniWqx7tYgFlbNLOkmfLTuvvW3p8mtQ6N4hjOmoYmjJlDFuF2HpXN6RrksniK3y0RXzsDzPpXUw+KpXtfEbCMIfKaMxqMdmG7P412vY75c7sYNpFqH2WHbZTbdi4+ZumKKow3hkhjb7Q53KD/AKz2oqC+WR9V+E/FTaokYlXbNj0xmqjaxHFqk9tJH8rZbdjO38Kt+G9LsrKKNY2fzfJVxu/3QazrK8g8++mZVcoP605GMkr2RLri2lzpK77n7PGW4cDGG9xXBw6fdR3m201u3vYpG+dA3I59KueMdXS508orcBy36VxPg+RDqiPnDj7ppdBxVonqc3nQ2UccsSzRZP3fpSTRwzaerOjQjbgn8KryaoyskTOGGa3JL6GWybcM7VxisFa2px2vcydO1FHtovs7b4kwCPSp7qaWTnaHGe3UVlW0dvLC5j/dNv5rVVTsVg3ArP3m9BxelineX0cEaNJnPTmuS8TaHc+IIkFrNGnUlZDj8q7S+WNY185BIG/OsLVIbJGgRJXhl3hl29c+9JqXMZyvfQ8N8b6ZqmkWM+n3VrJO4HmK0QaQDv8AhUvw++IqXKJplzH5cvlFEZieeny16z40nvdPkh1KzEN0yoIZYZARvBIxz9a4DUPCJvNUu7m60/y2mMhMloSWjbHBGfeujmi0kzdckl7x86+OvLfxTqRixs89gNv15H51laHqJ0nVoLgHiNg5HrzXRapo1iYQ7TSJe/amhkjb/wBDNXdD+F9zqXiePTxcxvE0av5qHOR9K7vaRVN3PSlUgoW8jB17xJc3XigX1iJIWZvlEbY59/WvcX+KEE1l4ftLuLzZZ/lfzY1XIHB/i9RXK+PPA1voPijRLawg8xyRnAxub1Nafxs8FhtL0W9hOyXzBF5MPZsctXBUnTm0jzKsqdRo2vF3xB8OWix2Fs39myyoEYgD5eTnJz6V86ap4AuLu4updNlivrfzPlKPk8nI4+hFexeJvhNp8FjFqFxNIFFoCZH6+ZivnqPVLzR76RrWVkZHypz1Oa2wySvyG2FgteQ9J+Dmgz6R4vnOpW7BYEL+Sf4sgimHxJJ4Z+N11Pp0e5WnMaxsW24J5B/HNdZ8CZLvxfq017eSLhUkQ+pODmtW++HNg/xcgI+V95kYN0xtOP1rGrU5aklJX0OerVUaklJdDzn4ufEm7mvns0gW1jWXzMEHh/Y16Z8JfiJaa54Kmi1C4Aurdi7vK3O3HH61j/tAfDhF+zagqqrZYyKn8XzEVNpfwts9J8H3erCRoImtEdE/vPk5/Ssp+ylTUbGM3QlRStZnpnw7vpL5UK4a3kuAvJ/iNej6hc21rqMysMNEq59uTXzR8A9c1DULgW0TYtxOpDk8rg84/CvV/ikz2euXKtdtGkkA2NA33jk4zXmzw/LNWPNqU5QqSj6HG/Eax/tL4deJLqwX7Rfxv9otpIVzJDNGdyMD2IZV/wC+q9V8X+In+LHw58EeLTH5umato6xT4fcVmYYlR/c4P5V5r8LdJaTR72Ry88c4KyrMcoRu5z+ArsP2fdY1vwf8C/Fml6d4SbxnFoXiS5iTRt4R5Ld33FoQVYMy5+73zih2ceVb3RphndOC3Nn4V6pdab8VvgzDcsQf+EO1KyznZveG4BBx/F8mK/RezuVvLWGdDlZEDD8q/Nmy8Z634k/aB+CWq634T/4Q5rq11aC20WZgJYLf5dnmKFXaflB24GM47V+hfgGaSXwra+YSWjeSIH6HH9K6IXTSfb9T3cO2nys6CvNfiY2dcgHOFgyNvDZz29a9Lb7x+tec/FC2ZNQs5h914tp/3txxSrfCbYi/JofPHxf/AGevDXxV0+NWsrHTtTjlMv25LJd7jHKvgqzD8TXz3qX7Bjw3i3FvYaHqB7M7SJj2ZGUgj6s39K+1m4Yg9c0VwqvVirJ2PJU520PnrwD+yXp+lrCdfukuo0wF07S0McQPpuG1iPoAPr1r3/wX+yf4P0/WrDW7jQ1tGtXEsdusryBiPuswLYBzXTeA7Jb3xNbK67kQNIfbAr1tm6H/AGc100Yufvydzuw9JT96RwnxUkPlafCcA5d+PYAeprgY/mmU5zlsY6dSfzrt/ixlNSsIx937OWP+9uNcN935um07vrwayrXVSxz1/wCIfAvj6xFr431+3YfL9tlyNu3qxPT8a47xN4EsvHmg3NleQsY4+UeNcyRnH3k9fdfSvUvjtpraX8W/EKldvmTrOo/2SAD+tc94VXa1yc4wAPrVRm4JSRMW1qj418XfBnxH4XmkkjtzqdkDlbm0XeAPUjtXASRvHIyurK4PINfo7daLaXjMxi2MTyytzWXeeCbC+P71VnH/AE8IrV6lPM9PfWp1xxTtqj89Np9DV/TdD1DViFsrK4um6fuY2b+Vfesfw+023/1UMEbNxuW3UGr8fhm3U4aWQheML8oNaPM1bRFfWr9D468L/s++KvEUkYmtk0yNjjddMQ//AHyASPxxX058MvgjoHw3iSaOH+0NXC4e+ugCUP8AsKCQP/Qq7yzs4LH/AFUaRf7QOSfxqf6V5tfG1aqsjmnWlLRifxYAO48c14h+0tqH2vwxBpcIzJdXkNumFzznJ+nSvXtX1ddPjKIwa4YYCjqv+1XC32i2ep6lZX11D581mzSQ+ZyiseN23u3pWGH/AHclOSvYzi+WSZ4v8YLfVPAnhnRtM0+TZpP2f7M7dWSTJZ039t2Sce1eP+HdSudA12x1CNGJWQEbhjeD1GfcV9Y/EjS7XWPBOqwXjhEERdZJCFCuvIb354/GuA8Q+F7LxF4R0w30g04WsMcxchQIx5YLIfavdo4iPLtud9Kora9xPD9iLr4Z+L7eFV86YXEyxKc7WbawH124rd+H82j2XgW5vWgVPMR1imcbiQwUqvsdpFYGh3TzeE/iFq9tG8enSRbLVnx82xCoI9s4xS/D/wAJP/whF1fPcM5s4lm8tfuH91n5vypxV0+buQ1G1n3OeuEgXRbN0lYu0z+ZG5ztHqKf+5WZx5jKoyPcqRmpYZlazspJLTezSyYx905qfzppJG/0dQodiPqM5/SuxP3bI6U+iLfiiS7m8PaSZpC9oiMEVuqnJxXSaTFqNnp3h1oLPOZC6f7Z+Wua8TvdN4X0Qz2/kRFMrJ/fWuwtNQ1X+x/DUnlxxRo5jiZjwckYzWUrWVzOXwnvWv8AiiSf4OtIIvs8/wBl8v8A4Hzn9K8G+Dtw0fidGVDOVYMYyisCvf6V9I2uizv8M1juY0kJt2dgD1ODXzl8MNJl1DxZNaWzBbsvviBb72Dyv5VxYeS5ZpdziwtuSpfuen6l4W/tDw34kuLRTbq0plO5htZVILKPl9DXMeNrLStMgsIreHZuXzAob6Y7V1sWl6n/AMIb4qLTY8oP8ofIVc8jFcXrmktbaHpEsckkk02c/aSoYLtOCM/w5qqch0r2Oj0wajJ4mWXyGjT7PHhj2XJr3e1WC40m1QMVZo0Jz3XNeO/aNW/4SmNLm2XP2ONSqsMbfUfXr+Ney6bpJstCjOfMdlQr7A1lW1ZjW3Ld9fS6bvaNN67CAqd/rXKaT4mlW+tRMoeOa5CHH0NdrcD7LZs+2KSTP/LT+7jnFcd4XjbULqZTbqP9IZo8dVNZQVkQlc7nTZRdX0LpHt4x+I4H6Csr4kag3/CK3xC7lVHDP/dbitcRjTbm3jVMbip/4FzXO/EzT5LzwJevuCOqF298HFawV5I0pvVI8Y8E3jr4isWRPMkM2059D1r0jS9HndPFkbRxpIyt+7znjacED6V5n4P0ya+1OGGGQQzb2dH3cbuK9MtbC/sl1+e6nxMsZBKN1G1s131fdZ6lTcpWdrbR2cCHTJnKooLbOvHWio7HSfMsrdg0mGjU/e9hRWBgfRV5d2VnbNdZVdsOxc9G47Vwen6lbtY3zPMQ0oZRn612uoeH7O+0NkVAjNGGTBwc1zlj8ObZrNHklYSyHB3etUHMup5Z4ivZfOmUOSgYgH8a5ux1qXT5iylg+eDXs9x8N1kgkjUxsNxBZq8s8UeAb3R9SWIlJvMzs8k5P4it4un1OiE4PRjJ/Gk+VLSNXoNr4ys7jQnkWbEgj5HrXkWs+H7qxjVZIth255GKjTw/d2+lreb/AJGzxWdSnB6oipTg9j1vw74mgurG4ic+W5+ZT61o2fiZGIQtwOlcZoOi20GhwTTOySSDI9OlV9LhnMzjdwDxXLpujjlFbI7fX/EDRxxFTkr82K5/UPF1rJqmnStgrnDpV+zsUvN6TDcNnB/2q4TxJ4WXT9S06UzkxTzqjAdepqFa+pikr6ml8SvHGnTbrMXX2eJwGWdf4XHUflTfhvrQ1izu4bTUY55bcsyGYZyMfexXC/FfRbLT7FVikczqPuN/FWb4P8K6t4f02XXomUIEw0Kt8xJHy/rW3IuS6OmMIyjc39WF1aytFqeg22oRyThhcQLyGIyAR79an8ITaVD4m85rKbSrgQLG0ajC5PQ4/KvE77xrrNvqcs7XsxmDlmVjnBzyCK9Q+DXxAu9d1a8OrGCWNIxJ5mzDDH8KmnKnNQbCrRlGLaOs+I2szafr2jz+XBIiyomVChwNy859+v40ePtWi1KxtYHglW3klDBkALq2exrlfGV54c8TeLRAtrcTTzFMNC+3byfzrvrzTbTTdH0rdctDMrlQ1x90rsPWuOUVZXOBpJK5zPivxHY6zs8LvMY3MIZWk+Vt23v61836p4B1OHRZdWCB7VZvI3DqW6dK9a+JmkyzeKLS7tXhu1t48SrGx80gkFWI9s8ewFZuneIYZvh9b6a0MsU8ku5XZTsL5Od2fauynL2avE7qUnSUeUxv2f8AxBc6Hr11bLDuDxtneMbSDxj8a6LXPFUuqfFqwms3xcbmWeKQ/KpAIP8ALP41d+C3hm7v9aF00cM1hDNIMR9d3apNK+H4j+NSy3MU8ANxJI6sMAL25+tYzdP2jlLsc9SVOU5yl2KfxE8c2WoX7QXc0qtbXhR1ByGQnJ/nXYaH8SrHxF4Xv7G0gWW1s0Yo0gwX+U5H5Vg/Gn4Vx/2G93YRiW+muihw3OCKz/Bnwx1Hwj8P9Uu9TtpY23K0SxnJbKkcisv3TipLuc0lSlSTRyfw31SWwtLq70h/JRZkfk/Nn+4PwrqfEWseMfEGv3Ui26GKSJVBc/Iiep964zwX4P1mDR7uSCJ/I8wOWxjDdlNek2ek6xosbtPE5luIQYljGYwcH7wrSU1CV0rjrSVOUmlfY4Xwr8QvGHguxJu7KQ6RHcc3Srx1YDB+ua9s+Cfx2tvh18RL/SLuBv7M8RKt7brlQwnBIkAJbBY4J2n1rhtBsbfX7ZdPv0mVGjTzNyYQsCTxVHxz4e0L+1dP0+/gaW0ukVoljZo5Y3XoysOQfcVzTlTm9VY5/aQ502raH0BfeOrT4jftdfCoW9jJDDZaZqJi844csdoDFc8YHH4V+jfhfS4rfSbeALjy4l59yMn9Sa/Jv9lf4a2fg79rjQZrWe8uUvNEu7lzqEu+TcZFQYO3nr1r9b9Hk2yhOm5B/npW1CMOeK8v1PdwsoyXNEbeWJtfmHzxnr7VxfxJszc6As6nMlvIG/4CeK9JuFUwSbvu45rkPEVv9r8P38X96Bv0wa2xVJR2OupHmizxX2oxnj+9xgc/n6UmA2ecZI59DnNfPvxe+K02sX0+i6RM9vp0TFJ5UbDXDjqueyg5B+lfOWVndHgW1se9W/xS0XwNJJcvd2t9qEzLY2enR3K+dczuQBGPm5AALH2FeraD45/4SDxHNp8USfZ0hZ/OVh87jGSACeM9PbFfBn7Nnwt1f4sfGy51e3tUl0LwdahFkdgkZ1C4UHJ7tsiPUetfcfw98C6joviBp55LVlWFoiIpQWDcdQK9SnCquRJWR6FJzi0kV/itKsniO2U/eS3XP5muJGMe+2us+KDI3i+bac7YkVsf7rVx93dw2NvJcXM8dtbxLueWRlVFX+81ceI/iM5azvUZ80ftJeFr3xB8SrWPRrKW+vl0v7TOkQywjQnJHqdo+71rx3whdRzebtYkSIHTIwRz0I7EdD34r7l0f+xtavT4j0ua3u5poTafboGEilFO7HHTBz+dfJPx/wDCafDH4vQ3tlEsOieJRLdwRL923vFwZ4/+BKQ34U4+8rCiVick/WimxyJKivGQUI+XHpTqw8iepQ1fUG02FHVPMLNt56CshfE9wrYaJCPRQw/UVv3lol9A8L8AjOf7rdjXGXEJt5njbqpx9fetYpS3L6Gz/wAJUQObXn/rof6rVe48RXVwpVFEAPXHX88VlUVqopbAKzFiSSzH1Y5NU9TvPsNv52zewOAvrVuuX8S6mZtag0iL/WvZyXGVOSpDKoJHvu/8drSMfaPlGo8xgePrP+2vFfhaK5Pm6W1vcXSwfwyzJ8oU/wC0M5+lRWumWfizxlPaapuuNE0m1+2XUUZOxn4IV8A54B+X8a1/h94sv9J0e6sPEemf2k9rKxhl2KfOXGTtDdyK5zxB4y1K90XU4oNBt/B3hFvmulsljFzdAsMIAOA7EgZ9M12x55Pl7HQuxl+JE8TeML688O2ItNP0e3t/tElvaAsTHnhS2Nx4Hajw2uux+DtVFokcdlKNssjPn5cY2gfjXR/Dma8tbvWb/VbUWVxfQG5aOEAFFKkIieyoP1rFuPF1rpumeINP01ZEt5LgCGOWNdyx88E+3NdtNyS5C4yd+RHPaXJu0ewcS4dJWAST+E4GCPwqxK0fmP8AvmdvMO7cevXP61DYwJPpenbrZgS7gSR4yenWrOJPMkAtiTlwCenAxXXodfqbniKG8n8N6A12yLaBNiKOoXGat29/eRaLpOBHd28dwQqM3zA9uPpWXrEl4ui6O1xaiG18shSP42/vfh0/Ct7T21CC00OEWEHkSyFozJuw7dy345rOXwmUvhPpu01Wb/hWK3M7Ki/Z2DH2x0r5t+FupXkPxDhFjh55pGVOMAD619HXmlyXXw1W2MCrPJAcqucDjtmvnH4T350H4i2n7gTnzWQr74xXDh/gmcGEvKNRo9SuH15vD3i3ftg3H97tbJIDAbR9cZ/GuO8bavNcR2CXcX2W5iXYPL+U7CuVzXf3Guz2+l+JoZ7J5E2bmZF/hdgP6VxHjnULTVLe0vLG1dpuY2Ey8FVTjH40U1do0oN7M6f7Zqtv4ui3PtRbNC0jHPGTzn9K9U1jU9QtvD9vN5yhmSNI1T+MnBBNeJajeam+uxHybe1lezXET9WB6tXq9/qd3b+FdKa5s/nWONyyj7qjaN1FVWZFeNnc6u1v7nVBHazLuuFTexj9Aec1ieG7o6fqTxu4SOe6ZUeNud3vV3w/bz6m32qKJoQ0AVH7OCVPzVDomgmTTphNH9nkjud6tH3YGsr2RknZHW3M019qlvE+2ONR8shbqw9KzPHF5cTfD3UmtSGiUtEWkPJPf9c1uW9iJb22LsjoOeOu6jxRo0Vr4M1K3jUlJN+4HoCcH+tVRjd3Kp7pnz34Xjuf7Sso7SQteGVtqyHjdjtXVLrGuxw6zBMq5eMpKG5YDvtrG0mNdP8AEGm5jJWOfh4znd/skVpazfxWt1raT7o72X/V/LwFJzivQk1KSuem5c0kZNv4y1CGCONZPlRQoz7Cisbcw4+zg++3rRW3JE35D7qs7u11SEY2tEwyG45/Ko5BbHEcfHbiuc0PSLvTdNBlkYd9v04p0NrPMWYSbDnI964npscD93Yu6laNDCBHIYnLdT0K1x9zo18+tR3EssMiRg+WGXnGK0vFUzR2YKOQynqG5rgNK8QXp1Bw904+b7rHP6UlG+pNup2fiLw22pw2CGGEk4LN6VV1bwnHDpUlvHAoOTIoXoWAp6+JpriSAA7fLbB2jGfrVnxX4in0yz8wIpRU3MKzb6GT1Oe0zSUvNIELwiLB3Yb9cfjWnpfhm0TaQCyk857VU8G+IG8QW00wj2hG5rb+3QRtgf72aly5dyfhKGo6cmly74jv3ZXHpXnXiqylTUdKUHP+khseg5zXpr/Z79HywOTz6iuH1/wu0mvaaP7QdAz/AHTtx1NZaN3RL+K55l8WbGRoVvZpR5cYUKv94c113he4t9SQS+ZELXyNv7xvlU4A5/Gud+KHw91rVdRht1vI3iwoEZb3PzcVV8LfB7VI4Wgub9xbMrfLC3U8V0S5OU3ag6e9jw/x1Yix8ValCGVh9ocgx/dwTnj862fhHJMviJAjgRH/AFinoVqHxp4H1PRtau4vss0sSyFVkAY5zz2+tVfBeg6rcawYbfzrVv42wRgfU13OzpKx3SalRVpGz8SYf+EM8ZJd2k4KsVlAjOSOR1Fep+MPFml+JPA+nLEVuHu8BmxjyyD8zfpXini7w3qUniK2sbt2lknZY0LHPXpWprHgO48MXGlWV3MdtxcFdoOBt71zSjCyOSUIOMdbnHeLvFlyviCU2NwY4Y0W3Ro+rIBjn8q3oviALH4aW9rIWlkExKbipC8DtXO/E/QbXRPEBt7UYhZEb2rDXSd/huS+ZmAjmEYx05UV1ckZRTOxRjKKufQ/7NXiq1ure+gkZYJBM0uAQAwz6VKfFt4vxuRfM861uHdI+c5Gfu187eH49TW3kew8wKpyzx7uFx7VpaVa+Iv+EisBbi4kv/leBW3bh1riqYaPM5eR588KrzZ7Z8dviVDpSpppVoLmNgzbOo5zn8BXb+EfG0PjL4azXMcyTlP3ci3TcgAY3fpXyd4y0PxFLdLc6tbXRmkbaPODHLdOK9V+EfgvUz4T1W1v4Li2ijBlyGZO2Rn1rnqUIQppR3Oerh4U6MeXe56v4N15rrR7mK3tLWRUIGVPU9v0rt5NUby41vbaKCVYh+XNeU/Ctbm302WSI+ZAHweDwc8da9cvNPttWtkE8rJKqZG3+E+9ePUvzaHh1tZ3vY4ZDJp9jG00kSKzu8Kj0461yfxCvI7j4g+DmuzAiRO0sjJ90L71r/ErwXqPiTTIGsJM3UTbQYzj5c9zXDT/AAc8Qa34m0RNavAluoADo3JXPK5+ldFOMW7yZrRpwu5OXQ9b/Z/mmu/2vtNne58+0k8P3f2dv7q+alfqXp//AB+L+Vfkn+y5oF94Z/a40yGWR30+TTdQS3SQ5AVGjIwfxr9ZopGikR16qMDPeuynanNa6WR9JgUlT0fY1tTk2WrD+8cVzuqOq6XfM3QW7g/98tWjeXX2jadu0DtXMeOrxbHw3dBWw82EX655/StsTUjP3jtqO0WfOHxa8TP4X8E3k0LbLq6/0aFvQnq34A/rXyXqerW+k/ZhIWa4uJPKhhj++7DBb/gIH8Ve7ftXeILTwz4V0y+vrhbfTrWSWWRy2M/KAo9yeAF9TXn/AMAfgHqXjTPjvxvFLp736bNO0hsRvbWh5VWI5Tf95m+8cgCvFjC6dRniWW7KPwl/aK034A33jXw74pnbSdG8QXK6npWrbGa2edISr2sxRSy5YIQx4xjla+db79rP47+GfGEOu2/ieLxLYyN9oNrY2qT2QXJHlMUXKkZIyH3cZyep/RTUPgv4I1bSJdM1Dw3YajYzLtdbqAuzf7WSQQT1POc1Z+HXwm8I/CnTX0/wloFrotvJMLgrEC7PKMYZmcknAz1PGcdK7aeJhGPvxuzeNWK1PL9W/aAl8e/s46b450CWSxvdUdLWfB3NbThgsyqex9M84xnmvkr4rftGXGkLHp+u6vqetzsvmfYmuiyrxlWYEkA/hXr2ua1p/g3xN4+8P21vJe+DtX1L7emlRSCFrK8Bw0kUmCCrDkoVPJJ714Xa/DTS28SarrWpwxatc3cxMSXCb1t4uiqFIG5uB8+BRCNHn5pbBFQb5mP+Hv7bWt6THDpVo99o+mK5ZpI/KnWMuQCW3IMKW9D3r1n45/Gb/hYXhfwDpepxRr4ih14lpYfl3xiE5kVe2eleOeNPAuoX1paJ4burPTGjYmW0lgQ20ucYdkCMC4IPzYP4Vq+BPhjqdz4gh17xTqv9rX0ClIdsWyGHJ+YIuFycewraXsbe1iVLkauj0fw1e+ZDJB0MfKj0X0ra965SzvorfxsdMVPsNwYvNhWRvluIsffU/wAW3+JOxINdUORnBGecN1HsfevLqKzuupzu4tcv4njVL5GH3pI+fzrqK5fxLLnUFX+7H/WphuJGT06UUetFdaKvYa7LGrM33Rgn2r591H4lGb4qTX0UDzWNnC8EjR/eC5G58fxY4GPavT/i74oHhfwXdujBLm4/dRY689T+VeVfs46YZPiNockkZcTTM5DDh0AOc/nXo4WmlTnVkr2OqmlGDqvoet2/jTw9qEIujcW8sjcFlcD8Tlhj6dulcH8S/Flt4mjsNH0kpLbRzie7aEhowo+6pbP3t38Na/xQ+HOh/wDCyrHS9J02C3uLx13xAZQHPUCq3irRdT8KarbaRPbi4EanykVMR54PH51dOEIyU09yacqcmmt3qdR8LJdU/wCEgvZtSMCP9mKjzOCPk+Xj86abnwxb+EvFkUpWaf7W/lyEZbd22/hirug6Fc6x4iuUvYBb2gtFEphDA7v4cH61ws3hG102x8R3V5NuSPzI0SNyP3hPGfWtIcspt+hEOWU2/Qw7OZ4tJ01Ptfyb3Yrt5Ru36U4sftD4nkB3OScckY7VFaMJNNsUNqVYO2ZAM7+vy4p8aqGMv2Ylm3KVKYC8V3NNI9Gy6HUazHfz+H9E+1z2otuAoi645xu960NNk1GXTdGeKSNoI5tsbvu+U59qxNXW/Oi6IbiHdCUISGMYLdeprdsVvU8P6KiiOOFrptqucjPPB9qwl8JlP4bH1Xcag7fDHzfOj+0CEqWTH3se/NfOfwjjih+KCRvJgvkiRgoyxGSM/SvY9N0tW+HUck1vPI25htxxnjOPbHT2rirrwppll8T9EENu1tFPAXRMYJbPDGuCnJRU4s82i+VTizp57XUrfSfFLi9hlhkdY0jcghV3Dn8K4z4saK+mX1qy3EawyrtHkbWG/b1x2rrI/Dl9JpfikXMLEs6qPm4HzDLD8MVifFrw/Y6TpdiltAzTvMxMrHLFNgxx9adOSjZI1pyUbJDb7TdQtvFUAupoZ3js0YOcZK8HbX0XcWdrqHhyzRlRlMSnaPTH3TXgXmXWpeM5B9nEDRW0UZWQMAcjO4Yr3eGMW+k2MX8LRKO+OnvVVZcrsFZ9Bmk6itncG3zHEnl52Lt2jB4HPtXNaf42VPElxp07xKHl2huOc8/1rUuPDk15ePKrRgLCyKPmwMnO414zrHhm6s9cj8x5FkmvGj8wbuFrOmoSIowU01I+kIrxLG4Rvk8puAwqxrOr7tGuIZBlZQQDXC+G9GuFvbbT7jzJ0jXeJnz17Lz7Yrd8VWsmn6C07btyk59OtXdxeg4rW0Ty/T/Kg8VWm4hkDtiLCj5tp71ra9fxaPfaw91DbtJNIEjZwJHweu0dq4u4lbUb+1VY9pluVXzPXmuin8J3F9d6xLeMXa3hZY2z0OGrtsmrs77RW5vWOoeHBZwB5IA3lrnI74orn7fwtpRgjL6iwfaNw3d8c0VXLEv3T6wmiuZtPVBGEZlGdvSq1lbSxKqOnmEH8q56z8cXtvp6yTWquMcsKtQ+MmeAyx23mRAZbb2rDlkY8n8xzni7Wl0vVhHdQnyGxnPTr1rhtW1TT5NcaSOIpDjG+M5J9yKs+O/HUWpXUbpbsssJI/eHKHjuKzbbxjaXVtBH9mUSq8ch+X5Tgnr81X7OSVy1FxWh2ukrYWtlE5kDszg8jHy1H4yjWbTLmQNmBgI9wbuTxx9KXUvGnh2TQZhHazLNIhCBY+PNxxzmvMvEWoa/e6LHvtZ44AuDJtbnisnGRh7OTZ6L4R0ZdK0mZIzu3tyfSp9Qje0ty/meYO3tXFeA/F7x6ZHa3e+NwQA0iEAr7GuvgkTVFb98djNgZ/u1hUTvqY1E1LUh0CYQyO0pyxb5a434nakY9W0t4C0cnmgJJ75Ndp9h80TLDLl4snj9P0rzHxva3ls1jcyP5kaXKybJPvH5hwv/AHzUxV2KKUnqVfF2tyLZLq26RpJEEKsG+66nn9BXV+CvFUus6QxttzzBHZQx+993ivKdas7/AEzSnikIe3v22hSf9Ux5Bra8J+G/FXhloI7WLz/MRnRY24JwOWrolCHKjWVOLSKfizxNrlrIhaa3UNMqNCdoZc55z7Vp/DvXJr+4vre7sreSZ0R1w6lioJGPxxn8a8U8WWOqtr2oPc28hmEzGUYY4JNJ4X1LWfDd4l9bRShvuhtrfN/s1rKgnT0OiVFSp6Hu/iS3stY8SaJF/Z22eN45BKuPlUE/KasfFrw3pN1b2F1qF6bRomJg8s7drdifXFeETfEbXbfxDFdu82+Bgwtzux19K2viD8UrzxRZ2K3VjLFH5yyuxUgEAkcZ+lc7w8ro5fYTUo2dhmvfCm48SeIPl1eOY+Qj+cVydu307Vz2o/C3XrfwHb3SPDJZLcugijZS2RxuOauL43vre+uZLa0uIzNAqJgsSEx941h3XxM1FvBI0nLBRMzSTc9MDHX3rp/eqSSOiHtr2v1O5+BfhO/aR1ubRTYTSyQPNkHn6V12hyXZ+NNpbR2gQWqtFFIy4DAK3SvGfDHxI8Q+G/DcsFrLuhe5c5xn5yoJ/Q1veEfin4j1rxhpsdtHHJdx7lUsOCMd6wqUasnKTOWrRqtykz0b4lXtxfaDbvfLiWPVVjVm6quR3rt4r/ULq18URK4FpHagoWGQWGM4P0r54+IPxQ1qK6fTdRsUSWOUSHd0Jz2rqvD/AMcLi10W/wDtemyGO6TykZPujgj5vyrCVGaUWzldCbjG5h/C/wARapN9otLYkWzOpbI6c17DrFnrc29EvBGHjEbtnLBWz0H4V5d8I47H+yry7iuDEyurvuOWAJ7CvT9evLm5juTZzrcT+Ujw+WMc89fwxXNVs5I5sRbnWpzml+Nrm1sgt9d+dDvSLyYhsJXPc96kvPGEetePYbGF/scMQPmNJ/zz4OBXmHinStesWso3gy7yfaA0Rzkdsj61lWevaxJ46Q3GmSXFzND5TRqMMQOcj8a0+rxabW5awsZJtM+nPhLqQsf2qvB04A+ySRahbpJIe5SIgfjt/Wv1ARt0aH/ZH8q/FLwv461vwX8U/BOtazC9rp1nrUSzZOCFmDx/MfQZH/fNfs74b1BNS0a0nUqRs2NtORwccH8KfLy2PUwC5Icpo1wPxSmLTadaqQuQ0vPck7c/kK7+vEP2sJtUsfhze3GiF11a6tzplm8fWOWZ1jLj0Ko7Hd/s1FROUWjtxCvBnzn9k/4aR+LwnnjMnwz8D3rJbxyL8mr6uo5cnvHByMf3ga+gNxbk96wPAfgnTfhv4N0jwxpUSx2On26wAoMGVxyzse5Ykt+Nb/8Ang5rzqs1K0Y7I8h62QVV1a+XTNLvLxjgW8LSfjg4/WuY8YfF7wb4FvRY61rsEGosgcafbq9zdlexEESu+3PcriuO179oXwRfabd2mrS6ppVhdI0R1CewkaJc/wATeWC0a57yBQO5FQoT3ElY+bda0u51TUJb1CJHmJdlJ6E8n9adoejy6fM0syqSV2qB1Fes2PwZ1DXLaC70DVNL1rR51Hkaja3OYmHTBKgg/gT0qbWfBvgLwC6W3jX4haXo+oyLuFq1zFEwX12N8+3/AGgB/Wrjzt2RZ5w0KtjcA+PXtS12998OYdS059W8G69p/jLSlHMmlXCzPH+Ckhh9DurimVo2KuNrqcEYxg9/xqXFoTOV+IPhm58QaTHc6Y/2fXtMkF3p0/pKMgof9l1JU/hWl4T8QQ+KPDthqkMZhFxH+8t2+9E4JVkP0YEfhWt7nJx69OMEfrVHTdFi0Vr9bbKR3dw9wYj/AAyOAG2/XBP41TknBIfQvfmfrXK+IP8AkKN/up/Ous43cdO1cf4gbdqUv+yq0U9wKFJ14/i7Uvr9abJcC1jaZjhIwZD/AMBGT+ldG+gLex4F8eNQn8S+MNO0CwRpZIlUBF7yP0/StX4S2OoyeOfD1nY3MdvIu9Im27hHgAMD+ArB+FWpN4g+MlzrZt2vTE8txEignDD5Y2OPQV1miTfYfinZXVtDtkWdsBVZV7bv0r3fgp+y8jslK0XS8jqm0LUG/aKt472eO5k3q4kiXapUccCul+P2krHdWF3FdrHdksgBOflyOoryzx58RJLH4tTarYpgWpVVXJO7J56++ak8QeIrnxUsF/d2zh5FPlkqxAbj5v8AdrD2U7wn5HH7GXtIVOyt+B1mkx+J5PFFzbRXkMEbWg3zBf3YGBtH1rhda8KeJLzQ7yVgZrW1u283aOS55LH8DXaWMmr6Drj3kSGdYYEaVUzll2NgLntmuFvvF2qazp+p2aQyFZp2luAn8C5HFbUlK7a8jppc3PdeRViWVtL03bONyyPtCjlR70s0M7NNtdXIZvl7Hjn9KuTW9n9ltFgt51VGbczK3OQD2rPktUkkmxHJt+bgK3H1rpXmdkVe9zs7PR9U8Q6f4dtJ7u3jgYN5DRnLhccAitmz0/ULex0UNPDNHFdlEXbxneF+b8qxfDOi3KTaJMJI23o+IyG2qMY3f71btvazRxolq2wfa2Jd92d24/NXPKV3Y5pPWx9Vafayr4LgxJGhVAhVV4zxXjHi7S9Xj+LmjuuqRLczI6RSKvyKuTgH8a39N8YXlr8P3hlspLmXz2BKK3zDPXNedw+JLvUfixpq3On3KrB/x7wDO4EnO7n61w0ovmk0cVKEuaTOxWy8YW+ja/J9ujLeb5UitGxYnjkY7VzPxU03W9Nk02S+vorguCVCIcKQnQ12EN1qNzoviWU2Wy58xum7a/zd8d64/wCJmr3DS2Ud9YujCHLCRTt6cYz71vDmbsa0nJyOh0RtV1jxR5t15Mdwtqg/dfxKMAZ/Cve1tpo7W2jd1YMqYK9B1r5d8D+INTvtSM8O0yQ2wD87cqOv1x/SvZr7x5JDBpz5Vv3SkZDDLZ5x+FRWjLmHiIu92eg2NtdRxiMASLwzN61w2raDq19r4u0EJtre53iP+Ld3/SuusvF25Y5vs7IrjjdnNcR4o8ZXGgQm7jRiZbkR49c5qIx5XpuYxUl8J6X4fS6kvvNYgIORmk8aedceHb1Tt9x/s1R8G6/PqWkwuYfLlKABfXik8QXxbQ7pHDDOd7J/Wn8LsjSKadjx610G+uZLaawaNpEn2pCwxg/3s1ZuLDWrfUNVS4uVhukhO6NTlWGDWjoNzNYRyzW8YnG4bj827Ge1Udc8QTrrWo+Zbbrl4MLsztRNp5bNd9NysehGUnoPt/CeryW8biSLDKCPyoptv4ouFgjX+zHfCgbh3460Vp7xXvH0/qHhtW0lbZJh/q9pwOaztP0YRaO0MU+0pnPGSfwrev4LePw/Lcw3ZlaOF/Lkjb7xAABP4VgaJcfaNLjnlny3zFpM/dHFYTckc75rHluvfDu8u9VCxS5WZiWDDBH4VUb4aa7okgurRo5CvAwVJP1FdNfXl1feJLtTdzsLc7o/ICnIzXO61far/wAJINPGqtFHJiQvNhSMgHH61onKxsuZIkutF122W28zT4A3meaQqgbuK6zWv7UuPCcUdnZLvYZdCc9+1Y97cavpt5p9r/aoZJmwctuPSug1fWbnTtJSNJo1lYhBvX9cVzyvfU5pSlfUwmj+0WVqJNEkWRM/eHU45rWV4/sMQ+xlHXHRaSwur/yEWW4guGkbA2x4rRumnt4BkqNrZzXO9zFu5DYxw3Dbo49h5B9+KwfE9rp1xDZPcW4YRyjO5en0rZF5PbzKSVlR+cdxVDxBrElu1vElr5imRXYN6c9KcSNeh5J8T9MtDqkDSTTW1qqiSLC8bt3P6V6X4ckja1tJvPZljj3RzSfxDHSuX8VeNILu2DNpKzXEOAY3Kg7c9j9KsaR4qbU9PZLbSnj8lvnViD8pwev40S9AnzWV0eDeP766i1HULqxvy4e6ImTO1x14HrxVP4d+Irq7urbTpIo5NzBkfbtcHHau88catp1rNeG30GIyy3G3dJ9T0rl9N1qw8PalYqujy2l6kkbssYXBQkknn612c14WsdileFrWItCvBr3xMmjmtIVjCOsgkGQccdfwr17xxBpniTwhp1nbWNqjIwXfIFCqoVt2TXm2qavpVl4qk1XS7KSbzvLUBQAN5PzLmvRdTvLO1/su2+wTC2mQST5GQgKngmuSq7SRyVpSi00eTeH9UFt4m1aS4hD2qxmCJgFIKBgoXP4V5x4h0n+zfD10JIRDPPeFkiCjKxkcfrXcfGyzTTfECxaT5sMcwEiQxD903X5jWDrGiz3Xw4h1QC4luWkCSKxYjAGN2PwrppvVSOun9mTLHwb8Pya35umXdsHhuWYRsy8rJtGf0rpIdDtNP+LWl2WkqLeaJSruV4yKi+COryx2bxm2M95vbymwQ4woAx+NU28XRWPxcsruS3Md2JGju4z3Pb9azkpyqMwnzOpKK7Gp8aNAsbvxJos0pXzLh2ikcd8EA/qK9M1DwDpVn4Gu7aOCIFIJGR/ly/3T3rxf41+IEutdsjbXCxLD85Xd91y2f616Jo/iD+1/AZge6SeZS/mSM33VKZGPxrl5ZRpwZwzjUjTpM8j8GeFteGh3slmYfK83npvPP3RXpOi2OvWOi6tdzBPPhgDxpDu3ocdKo/Cvwhey6O8iXweCSdQUJ969Zt/BrWM995t15yMuXRm4K4IH61lUqK+pnWmnK0keX+FfF1xe2+lWWoQxfap4sCRweAefz3Zrkp9YmtvinaHUtmnPZliwbgSgYIH6V6frWmweGdBhv79IxLCFkWRRnAzx+teZ/Grxlo8UY8RXNt5l6LMrBleJZzwufpyadJKpKy6k0mqkuW1r6HlP7TnxEk8UeKpbCxnEmmWEgdmizt89gf1HQfQ1+sX/AAT/APjh/wALX+EcFjqEwfXtKUWV/G3V5EUAOPZ1CsPbFfjRY6C194dufNIa7vSZ9zevVcfWvbf2Q/2gJvgh8SdJ8RSuy6dJs0zX7c9fKJ2rP/wA8n/ZJr0KkYuCit0e/CmqUVFdD90OcnJ3HOd3r71xnxWvrWy8NA3B5EnnA43FVUEkr6Guo0rVLbXNNtdQs5luLW5iWWKVPuupGQR9a4H4oW7ahqlrZsiyRy25jEbBirhmIIOOleZVb5HY0rScoOx8F/GL9pjxxo6Q3XhTTp9QuLi5WGy0+0tjLkY4aQhW3E9cHHWuR8a/tEfHJbPRLHWvD1z4Olu4yAkTxQy378AokzEmM7cHai7xnO4V+knw9+AnhD4fObu20mObUmHNxcsZig7ogPAFS/GL4Q+EPiZ4E1XRvEmkwT6a8XmHYBG6MD8joy/dYHo33gRxnkUQhBRSkjljRfIro/J/WPEfjHTbOddH8AXdpeys0jzDUIJjI543tJuLSt/v7ia4ix+PnxD0GSKPWfBv21I+JPs8ciS5HG7jcF49sV9HeOvhz4o+BXlm9ll8W+EWby7fUoWzqlrnqk8S8zgAYMsXzEDLLXPx32i+MNHuodHvrO4ik5doSrGLJBIZdwKtj1ApSnCOjp3Rzcyjo4nz1q37RXh271BobrwGtkrtuluf3f2jPfK7Fz/30KuaJ8bvA9tdzw29q2lW7IHMy2u3zW/ulUBx/vGvdL74b+HtRQw3Fl5sIOMSNnOO+Ca5+4+DvhLSbyXUzYW8US7WZWVAq7VYDGP4s0/b4Zq3K0/Iv2lO2x5hD488B6rrAurDUm0PVl5h1WwMllcRN6iUbc+nOc12cf7QWr28luvjG2Gq2sabB4m09MtKueDcJgLuAwN/tmsTx0vhfQLhob+SxeLYCBMiSuT6KoUkmuT0b4Uw+KNTTUk0Obw1oyncZJpJI7i6/wByJQNq/wC0a3j7KpD300vM0jyNa7Hv1v41s9RsYrmw/wBLhkXKS7gFI+o61oaPqjaksvmKqOnQqMA14hbfC7VvDXiCzv8ARdcuv7M8zMtjqMrOpTPzBTg57dh/vV7N4XUmK5YjBL4PU89+5/nXBWpxjrB3OeUY3902vUYxnB/WuM1Zt+qXB/2q7CadbeN3b7qAsf5VxEsnmSO/94lvzrKnuJKwyuE+NniQeHfAd0Ebbc3x+yxAdfUn8jXdMwVdzPsTPzMeijGSW9sV80fFrX38ca1HNE5GlwzfY7Nf7+OZJPoBgfTFelhqftKiv0OijHmmrnW/ss3lhYajdx3J8q8u42EcjDI2444+tLq+palpXj20kSSISRyNt2owUn/aq18D/D+mXUOpTSStFeW2GgkR1Xbjpn1yefxrivFl3IPFlzKZtxWYbnXHB/j6fjXpJKVWRoqalWk0b/htrHxF8S3OtsIoZ5NrmEHhuOa9z+JvhfTbXwdp9tpBjiMErHfJ/wAtFOMH86+W/tQh1aWaCViAxZGPfjj9MV6zfeOP+Eq0HR4TuOoRKE2sWKZyMZFTXpT5otCxFKblFo67wjcano/ia+GsTWqwRWBLyN91cABRXDah4mt4dJ1R4I4xf300kQZW52ZyWP410/hrRT4o1LXILyUmSK1dphhgd46Bfxrk/D+kxw+D9ee8sV/ckoLhs792RwM0qcYczbM6ajzO+5Na291FZxyPcwvGyuyxtu44HI+vX8axN1wZJArLlixPB/u+9SaS1lLJP580zRL9xFLfL65x75qtJJa7jsVmDE4PPpXTFa6Hck7nU+DtR1jVLvSdPs3hjZEbazBsE5HWuz03RtbXS7SQXVr5RndZM5BDZ9e9eaeA47ufxFZJaN5MmDlnLcdemK73yLrT9BtQ920O64bBG5zu5+YjtWNVcrsYVItSSR9E+Hbqaz8M7vtVvLHDKAT5e35sVwOua5Z6h8Y9HWMRJIsB3SbuCcCsj4d38E3hG6tdSnaQPckK8YblvXNXI/A2jf8ACyNKlt5JXiFv5rozHduX0/OuKMVFu558IxjKSZ1E2p3djo2vZmgcec6iPc33i+Q35V578XdYvrmexhYJJMtuS5jLfdz3rpryOay0/wAV2kkMUsUDoI2VW3ZJBGSPrXKfFRPJi0sXaLHefZmZhHu+7gY3V0Ud9DooRtK6MHwTHfTas0UT7A0SsxVTyuO+a911TUwtvoCyTR+Wqpwi9MRkD9a8P+HNpeTawZIJCqCL97uzyDnNfSdn4WsbrRdHeRRvVF+bOcr16UYjWReK+M6TS499jbm4cSNLCDuPrmuQ1Hw/HdyPDqU25PtBaFY+udp613jRxRQ7dmCi5jGMcDt+NeS+NNVuIVgv0Y+at4oEX8IXa2Qa5oRd9Dmhfm0PUNF/dahCkWI4MBNq9VbHeq/jm8W38M6i0h2lQyYHfpVTwhImqSJOymJQoc5+laPi7TV1HQ7uJVGcA7vxpuLvqOCcZWZ5x4HvJobF55HjjtYyx8tw3PNO168gjnvrmVV+03H7qIwg/cKkmr/gjTY7OaaGd42XDfu5Bkde1YnjOxMniTUzvV44owy7RgA8cZrtjrqegtZHT2+paVDbxRkrlVCn8BRVS00XSJbWF3tcuyKWPmdyOaKovlPaJtKP9goiiUKI89eOeapW+khfDs7ZZWX9a7K11TT/AOzleWQAEfNGRnB9MVJDNaMPLjTCsM5xgflU8z6mXM1ufNPiKGW3unxuUsa5i4aXzN5JZvXvXvnj5LGae2uPsxlWF8SsoYjHbI+tch4h8QeHi8RW13XKq24xoAvT+LPPWtYVLq1rnQpu2hyPhOOfUtUhSV2bLbQz/Q9K9G8V+EImtblo7p3lhj3BD3q94J1rTtSs7ULa7JQ3LbAPmx6itrWdUs7FphKuHeIgDP3jWE5a7HNUk3LU8p8E3k7T7C7Oq849K9C1HdNaZDcsMVleF/IsdzNpxt2dsg+ua6VpFKFmj6ZxXNN6nNOXM7nDxTXTXWwsTsOB7VY1yzgdUWa4kZ/lwAeDzXS6ekZMvmR7VY5z61na5eiGW0i8hZHkkwAewqDJXtoeOfF6xn02eC6sC0WV8t2J6Z6frXeeC9PCaXaecxjuJYtszDqeOayviTdS6hJDptraqZ96ybmOFXB71fXxcum6ejxwLNdQZR4Y23M3oT+NabxWhT5nFep80eNNavrPWtRsIZma3huC6ZXoQ3Fczfa5qN5fG8lmkE4ABcemcD9a6fWPFU0ev6tO9vGWuS6kSL8yPjqtZEni9V0+1tTp8DGFlkZmX7xB616cVZL3T1YpKO1zX+FV9eTeL0gmieeOUkzRt+j/AJ17P460eaz0C4khv3hed1ik9MeorxjRvio+l+JJ9SFhDEZIwmE6AZx/SvTvGnxcgh8JQSpbw3M0rAosq8H+8BXBiIT9orRODEU5yqRtE8Y+JGpapp/iK1ha4aY2qDypHG0spHJz34qxZ6tqdx8OmlguGZrdxF5PlcFDz1/GsnxJ8QLrX9SN29tbpwqIoT5lTkYFalj8TdT0vw+/kaRDHAVVPOEZ259v9quqUHyr3TqcJcqtE6T4A2+p614wjLjyLWMMjL6kg4/UVUurFNS+P0yrDtYXTbgy7gXyc/Sur+CXja91i4mupUgiSOVt6qpU/dADc981k6L4ka2+NaI5jk8ySTcx7k85z+NcM5S5np0OCd7zdraFX43eE7RtW0hYSonlcLMYz0Hoa6zUvAtvZ+E7hLaF7cJCrq0P/LVucj8q5L4mapDoGuRyC5+13BlD4ByFXNdtq3jR28H3l9ayRzqyCONCrfK2Dn9KzbnyRSMLVXGByfww1y/t/Ct4IXxFG4XY3VTkYP4V6PJrGoTXEySlnRlViyfxDJyT+NePfDXVNS1LT5VhZUtt6h1RT831r1bxJrMui6TAScSyJs+Qc49q5qsGpHHWj+81Knjf4d6j460aGKK+DA7WWNjtU84UH16V8zfHmSPUPiDp3hS3uo7m20a3Vbt4RhPNwGkA+gIH1Br1/wCJnxQ8UeBPC8GoSpH5O7EEsW75nIPlrx+J/CvmLSppYdPu9XvGaa+1CQuZG6tknLfiefxrsw9OUFzS2PRwdF6zlsWdU1iaO8VYCAkXAA7mmzD7VIdSsEDXAXZc23/PZTkMD+Hesg5ycnPNS29y9nMssTMrLz8vr713qKWqPXd7n6f/APBLf9qqLxfok/wp1y9J1TS42n0eSbq9t3jPvGSce2K+/NQ0W11G6tp7iPfJbNmNj2r+dLR/Htz8O/HOheLfD8jWGu6fcJdDyumVPP5gfrX71fs3fHbSP2iPhNo/ivS5FSa4j23lsj/NBcAAOpH1Brjr0uV80dh6R0Z6jz35rgfiRrTM8GlRNhSRJN+PCrXfNjJYdMkj6EjP6V4r8TrqXSdU1u5b78MbTRew25X/ANBrz67ahoYYiThTtE+Ufjv4pl1nxbeRQsXi0yLyYoydo8zq/wBec14JqEdrq1wLi+sbG7mT5Vkmt0LIvsSAfyNavjrxjPZ3LRixvr2a4G+WS1tvMyxOSoLEL39a4x9e11nb7P4N1huPlNxJbx8/9/Oa5qVOTVzzYxlY3RZ2OP8Aj1kHptup1H5CTFNm0nSrqExXGnmaI9VkupiD9Qz81gf8JRqds2L3wlrFvj+OJYpQPXgOT+QrS03XrLVPkieSGf8A54XMTQy/UKfmb8OK2cJR1KakXtO03S9Hk3aToun6dcdBNa26rL/31gk/nXS6fobNIJ7z95IefLJyPq3A5rBhlMMySpwUOevWupt9es5owzOIWxkqwb9MVhKUnqTr1Ls1vHcxGN03KR91xj8jWNJqVto2bS1jaQ/eYs2APx703VPECshjtc7j/wAtH7fSsH88993WogtPeAt32rT6hxIVEQ/hUYFVF+YgHPzHA2jDE+gP0oAywHPzHA28kn0HpXlfxO+KLWUh8PeHXW41icFJJojuEA7gHu3t2611UqXtJKMSoxcnYf8AEDxVN4k1hPBmgz4muMDULyPpDHnlQfp198153rEMDeNxZWCKthosK2se45Bbks/1LEn8a6zwJp8PgzQ9W1SRvMlt4mkmmJ3MznkZPfkda8v8L6iNQk1ATu6XE0omyvckkc/99V7uFjHm5Y7I9ClFJrl2PVPhH8O9T8ZLPcWOo2+ntHcFR5zN87Y7fLXFeLNOvNP8Q3dtcsj3kUgUsudpIPbIFejfAzUvEBaSz0e3jkUS+fJcsjNsyuOPSuE8YxhPFV4k0hdvtA812zn3xn3reEWqsoipyftJKRrfD/wgvjPx1aaRfzi3W4YK8ijIGR6fQV7L4o+Eun+GPDEWq6ZqKStbsYS7fJtbIw3vXk/wv1a10f4kWtzLMxgjfJkbrtxXr/i3xNpf/Cur+K3vTNcSXJmiCnOSQ2FIrir87qRRy4iVXnjbYx/DelX2oeIL6xm1COINaiRniVVL+nX3rlLDT7mbTPFMD30vn2xaR4WIKsAf4q2/DuoXcNxLdExTMbdVeBl+YMRkbfxFZfhiXVtWs9bn+woq3LyNLdt8gXIG5Qe/FKCak7hTTUnc57QL+8ikuTHFEQw3bfQYql5c8kzz7V2ktuAPTirOlyWtnNdB5ZwqnarocAjtUlrYpqNxJGj7hhnzu56V23szvW5b+H1tenxDYG3ljikcN5bsc8/SvQLtNV1LSNOgnuLYq9zMgKq2VbcAWrgfBMBXX7BILj7O/wAxLyHI4I6Cu/j029m0PTZob0syXMpYqMfxDrXPVXvJnPWdmj1vw14dj0vwXbWp2NuJ/fc7vM3DJ/KuGXQ7rT/iloccWoTRSTQkxM3XIGQp+tdz4Hs4pvBMkd5qG9g5cGJvmDfwgfjXEW7ancfFDRmktVjZFIHzdB3b881yU3rI4qcnzSsbsPh/VY9C8TXjXys8r7nTHDYbP6VxfxK0/Vv7QinvbqG7RoR5fzc7SAcY/Gu2uptSg0LxbG0rbI8spTrkkHA+o5/GvMvGy6q+owT6gY4W+yL5axnA8scjPvg1vQV2dWGTvdm38NIbj+1H2yLHtjGU9RkV9IeF4VuvD1k7ybsIqj24r5k8Babd3F1OtvceTEkeGMx5OM9K918O6lcWuh2MbxbBsULhuXb0NZ4iPvGeL3PQjo5upEieXC4Zs+uMV5j4s0+5uLueCVA1us+VK9c4OM16vpMjIscsxBk2/cXoo7j864nXbpYdTWSWRTbSXGxUzzyKwpy1MqbsU/hpqFxfy+VHMqmJF/Q4rvdat2jjaMt+7Ylzj1rifh7aiw165iU+dHsDls++a7rWpkm06Vlbc/OF9Oa0l70ipL3rnB6daXGqai1uJ/IgUM4kH3t2fuisjxJ4dkbWNZSe6lMUUXmN5a/fOD8pqW4+26dFBc2TFm847oz0PSrFrDrNw3iC8uGhCmJleN+3ynBH4V1Q907IvW5ya28xUFb0ovZdvT2orZtdYMdtEv8AZgfagG71460VtzG/MfSkmkXF4H224WNlzub71W9PjbyxGsZOwYLHpVmPVGXTiN374D7notUbHWGkDFlVIuBu/Gsmc0knuQajZ7baZETdKeR82B0/WvBtYt9R/wCEkmbyQ88YJKbMDb9K9W8QeNv7NvrhPlmA52+vNeR6z4guL7XJL0P5cmeNtOlE2pRZ2vhW5nWKHzbdYMSbhgY7elL8QLi6aGzmIxFvGSN1Zdn4ge+t4reSYySyMFAbqa0fFFhdjw/ParK0hixIMdu9ZyjaVjGpHUZoVve28i3N3LvQt8qc8CuuZjcBdrcGvOfB95eXkf8ApDtIqdPau9j3Qxq1ZyST1OaasxmqWs21VjOADuJryrxc9/YeKtOkmlYIJUKn05Neuw3DTb64Lx9pt3qF5p8iqxhjnRmbsq5GajToKLtuee/EORrFptQj1KT7bjhR02k1i/D+x1R9Wa/mdylzC2GPchlq98UdDu7iGynhG6KRhEB/eJ6V3/gfwzPoOk21ldyBLxvnjz/dPWtbxjDTc1clGFkfKnixmm17UJHGHaZifzrnZlr1jxj4DuJ/FutDzIlEc7u3zeoz/WuSu/CKWdhBdPeRHecbVOWHUcCu6M4cqPRjOnyxuYXh/Q7jX9WtrG1QyTTOqqvvk16j8Rvh3Lovga2nm83zrbZGVP8AqwNxzn8c1a+GfgrSLfXNLvV1YSbPLYCNMndjofSvXfiFpNlN4Lv/AD43uIsrIyR7svw3HFcdSs+dHDWr/vUkfEj27bsYx2Ue/Ndy/iK1/wCFcJp6wsZCqqU28btw+bNdQmjeH4dLe5Tw5eTyqy7hKGAVSVPXdWofEOkr4Nt7ddGhjtp7ry41DEsCBls81vUqczi7Gk6vM1p1OM+Edzf6WtxNbSFYwHBQfxMFBqh4Jsb7xR8UopJGZbmSZpGOc4XPPFew/By+07UtTneOzt47ZnkQR4xztGK5rQ/MX4vJPA0VnIs0ieWv3cA45/z3rmlU1k7HPOXxu3Q5L4p/DV4PEkYtrg3JuJMHAwQ2a7+x8E6h4X8C3ENqzyXDlQ6heVBB3E/hS/Fy3Gg+I9O1BLtxBdMN2fmBcYzx24r1TUPEWmr4Xv7mEqY2iDsSMcFSBg/WuWVSbUTknVnaCOI+DvhCWx8MPJhQjvzxjtwc/SneONDl1KNEVuIwPunOOcAn8azPh342eDw1dGPJij4KyN1PfH4VxXxU+OK+G/C95LaqDdzqYbUP13H+If7gwfxrP2c6lTlOf2M6lRnlnx+8dTeOPEOmeELS6E2n6PkzzL91psDe3/ARx+deeavcLc3TRxLst4R5cajso4FQ6bE+m6ZPf3D7ry+bJY/eAPWuautTe4vEjVmESsAQOrc969iME1aOyPfp01TjyR2N30pOpA9TinN949Ovakzt/wA/StPI0OZ1iTzL5/8AZOP0r6d/YD/aquP2d/iVDY6ldvH4P1qVYbxd2BBKeFmHsBgH2NfLuqNu1C4P/TRv51ChKqp7c1tKCnHlZpa6P6cdE1q01/TIL6xkSS2lVWXyzxyMjHtjp7YrF8deFIvEOmySKubhVaMq3SVcfMp/Cvzg/wCCZ37Xt1PCvw28RXZmvLaNm0uR3w9zCOtuD/fQfMvqOK/TBvFWlnT2uheQum1sAEBjx93aen0r5+rH2d4VDGTUk4yPzs+I3gWfwR4gktmX/Q5sy2sjdNv90/Q5X8K5bOcHOeO9ez/tJa5DcXulaeo/eRmS6c8ZXOMLx7YrxjuevXvXivfQ8fyQVHJDHJ9+NXH+0FqSimnYEUZdGsphzAoPqhAx+VY2qeH2t1M0TNLEvVc/MPpXT1S1S/jsbZt/LyAqq+vFUpPoUjjvwx9KCN2BzzwOcDPqTTGYRx7nYRoBuLMflUAfeY9hXhXxN+L02uTSaD4adhC25J71TtL+oU/wr/td+lehRoyquxrCEpuyNb4mfF52mk8PeGG8+/b91NeJyI/VUPr/ALXbpXMeGvDkWhW7NIfOvZPnlmb73uo9T6++ab4T8Nw6BYhtu67lUGSYjBx/dWtxvlHv0H0xXovlpx9nDY6klFcsSt8Qb7+z/hzFaLlJtSugg29dgOea810OQ6b4qtxGqlZV2bex4NdR8V9UVvEGjaev+rs7ZD/wJyW/rXG6lK1ndWV0pw8Ljn6c124aKilc2p2tqfQH7PvjT+wV1SwQRpPNGTEWOAW6bc15p4rWdvEN2Z/KE7zBmEZBGSc4zXoHwbj0r7HqkV8YlmfHlzyMybG9j3rgvEcKQa3drGwmQSffAPPPrThb2krGdOKWJmyfR9Fu9c8TLbQQgzsQNsOMdK9m1P4e6t4VsdMDQRukkCsWkOVXnqR7VwvwZ1y10Hx9a3dxlYg4zk54wa97+L3i6yfS4IEudglhSVCApIy1cuInP2sYI5sTUmqygjzm30O8tdYknv7xFtowJWDDHmLg4A/GsHRfGy6b4duLVFd7iaeRBE391+a7nwbp8kniK6FxqP2i3kg3bWjUn7pzx24rNhsdCfQdZkit4/NW+kVJiy/KMD5qzUlflkZxacuWR59Yz3EzXTxxxBS+S8n/AKCK3fC+pPDAfKSKKUec2Nisc7R+Vc3FGkmoXcP2r5VY/MrLhqt+FZNQ/tuWK3k5SN3HCn+Hn9K7WuZaHoON1oSeG4ru88QWRgVVlLF+oOPm+Zq97+FehXUulQrLdpDFOWSLA57kt+S14P4SsZtQ16CL7X9nMiEebtU7c5OMdq9x+EMOoWP2RJNU3WbJLGECrJhh39vWuet0OfE7I7/w58P10iyVEn86JpnBDdeM4bFebr4mSH4tWUTIqRRqYopFCgM2f4q9g0fVYU0kyTXEjIJniaRgBhsn0rymzbSdX+JBgaOGRLeLarSnG6QupJB+hrjpWbbZx0LNts1tYaUeH/FUnmgySyBXDAFQuRyAK4T4kXkd0trYJP8A2hMkB3TbcbFOPlx+Fe3w6VZy/DzxLHLsbNxNG0inIXpsOfbivHPin4esNLitPsxAvfKAdlP+tHcmuqjbnVjopW5tBngeG8vLe8cP5MO1SQe/Fe46LGt14csLf7oEaM7R+nvXzx4XWX7LNEL8qzKrhYwpyADxzX0L4L1S3bw7pKSzxq7KgCkhT3B6deKmtrJlYm19TuI7Yw2RnScSINyoo7cV53ceF73xJpTxD52W5z97pxXZaTqkUV1PZmdGV4jJEihR8o6da47V/EUuiyWlz57Kk10FaLj5RtYdqxjF3ujnjzdDsvB3h2bRW8udsTNGAD/s5rX1axEaNJJJ1bbWV4b8QLc6o6yyli0QKZ9KTx5rJUw28WN7MNjg52tn0q5Wk0ymm7XOa1PxB/YGqwQsVFouW+Y53tkcAVnalqMkM+uv9uysigBZF5IY5YfhnH4VmJIZPF0aXAS8bfho5vkUe49a6m7023utL1WeaO1JUSZPTagjwoA+orotY7YxUdyra69p6WsKpc3GwIAvy9sUVzkNleNEhEZIKj+KijkNfdPo2z8I6mYftL3PlyY2hG61i3Fjdw3hsZ7nyWHKn1J5r1iGxb7B5Ukxww+8OtYsnhbT7iUySFpG2/eJrS7e5g3Lc8/1f4cR3k1u32pneRcu3bHeuT1zwLomhtObvVG80r+7ihX5ie2flNe3W1hZwQyKWYxJ0bOSPoK5vXl0O6uMNHBI+Pu7eRS5uUqMpI4bSNL8O2ukm5jO+dEJEk27IbHHb1rStbxLjTo40tZJ5HTMkgU4z3610cqW01ssUVvtRlwfLXr9aswz/ZdOby4AixrhsDGa53K7MJScnZnNeHY4bOzeNLF4maQ/eTH61ptO8duD5PfANcjcePLjzJYYbcLySWNMt/Fc99GIjhcHduHekzOaszpFhumhkQIAZCdprA8QWd7caYto08UQkkVGL+nPSuohuCbeIsSMjPNeXeJtauW8V6fbq5aEzjEZOQ3PpUWuSr9Dn7zwjP5LWl7quLOF0kjKnacgnP14q/oljBdala3NxqU86xowXnbwCQv6Yq7401I3Gl6+jQKv2dVYNtxhiTWH4M8Y3OteHJ4be1hluoYljKlc5AGAWP1qnGbVzT3pROM8Yan4NtZr9cTXV7JOAQpYnG3nLD3rkD480ezlsYoNIi+xxBfNLEmVxz0rm/EcM8esXi3KbJ/NYuvoSc1izLXfCkmk2ejGhHkSZ6F4b+KTaTPKmn6VCHmb9053ZQE8V3fjzxN4l0HwnHqDSQlpl2vCwOFyOGH4V454Ihgl8QW63P8Aq8j+de5/GyNJvhyhTLIhUKq9uO9ctaMVVijirQhCrFJHzrqXxI8QXdoIHvm8oKTtQYycDvVCS3uZtCuLtpZBEtxghW+XcRndWZMCzduD2qzJq8jaSmnj5YlkLnZ1Zsd671HlaSO/lSdkjtfhHoN/q1z5sPnmFSwCxHLeYFBDAVTmh1ux+IYaY/Zr15GdZJUbaFw3zHHeu+/Zzuo4cr9pVJWZ/kP0HSsfxPGPEnxUiiW6mPzspk/iXBxgVwub9pNM4PaP2skzjviC3iHUZF+2tLLEspWJ2ztZic5FeheE/But3fgu9F5JMYwo8qFX2/N3Y+vFdF8RtG3adoluiDyluFRpG6tyK63xDNL4e0u98g70k2x+X/d6/NXLUqv3UjjniNFFdzyvw/4Mns/C2pXD3P2azhEkjFhhQABkk/SvlzWL9vH/AIwklRf+JVZfKik5UqD3/wB4/wAq98/aa+Jx0XwTpfgPSjjUdRRbjUTH1EZPyR/Vup9sV4M0Mfh3SVskZftDjMrr355x7ZrppqUYuUt2duFg0nJmT4svvOjnZD8i4ij9xnrXI2/F0g/2x/Ot7XV32O4ZwGHWufDbGH1zXoU0lE7jsDnzjnpuxWBqGsStMyRnYqkrkdTW5C26JD7Z/SuX1GFoLqRexOf61NPcmO5WY5Yk5P1oHakorc1Rr+HdZv8Aw3qllq2mXMtlqFnKJoLiElWRwcgg/UfjyK/Vr9l/9tbw58adKs9G8Q31voPjhAsTwTSCKK/bu8LHjceuw/NnIHGK/I78KmjYbRxz05J59q5q+HhiFZ6GFSkqi1P1d/aMvm0f4hXDOrO81vH5asMZUKQf1ryVvE1xuO1IgM8Arn/2YV8V2Xxg8aWK28aeJNQmht4/Lghu5vPjiX0VZMqPwFasPx88YQsN99DOB2ktoxn/AL5Va8j+zZx2ZxvCyWx9e/8ACTXWekZ9trf0anr4ouP4oYvx3f418sWf7SXiJMCXTtPuP9xZFb9HP8qu/wDDSmrng6DbsfUvITWUsvq9CXh5n0zL4nuGUrGkae/P6ZrnNe8R2ej2sl/q18tpAvBlkbnp0Udd3+yK+fb/APaA8V6jG0dpY2lh6MsZZ/zdsfkKy18N6t4smS/8R6nNOx5WNmLED6n5V/CtI4Hk1qMccO07yNHx98VdQ+IE0mlaMjWOkZxI54aYernsP9mqnhnw/FY4VQ0jY3SSNxu9B9M1r2nhm2sYhFA2yLuqrz+JrUht0t4wiLtXOTXVzxS5aexvdJWQ7nv17+x9KRm2KXONkeHOBgj15+lY9rePrGsssXFrbDJ/2mqHxpq39m6PKit+/mXaP93vWSg3KyBK7PMPEWqPqeu3d2zFt8h2knPyjhf0Aq7qTi40uOQdQAR/I1z/AFrc08GfSZY8btobHt3r2GlGx12s072PffgX4U03xJazXuo6hNaBYcLCiqwfjrz05rkPE1qLXxHLGqgKsgESnGCOx/HrXXfs/wCg33iPwfDHZaxHZSmWRHRhk7VGf61yfjDS303xDcWslyszLKFNwv1rnj71Vo5YO9WWoyaxuZr5dkXlsHJIXpjFdZH/AG3ffZru6RnWKPy4fTA5pngS8sNP8XWbXxa7s/N2D/eI5z+Feu/Fa+sI/C6RWUaWohR5YWi6lSB1rOpU5ZqJFSfLUUTg/CJutc1Jp9TkkhtXj2yCI43YPy5P1NamieCdOtra/wDNknuGiklYWzSARtjgZJ681xHh3XLvStPurmOYFoVyI5E3Iee/pV7w7da1rtvdDz/ItCWuHkc9Oe1Q4T1J5JpshsfMtdRv2j03fIzjKYX5aTwxcXkfie9a0hxO0bnZx8vHtUluB9vvfMu3CGQ/Mu3J+tWvB2m3g1e6uLC9WKQRu25sdMdq6I2SZ0q0Y6jfCdk934jsFn3I05I/dlSc5PUV7OvgvWNL8IrcWz7BCsjx7QAd/vivK/htpL6340sIhc+VLliWznvzxX014suptC8GvHZkyywIHPy8e5rjrzcZRSODEVLSjFHF+H9L8Q2vhmC2uN90k0vnOilRySSefxrBTwPA/jzTLZJXt5WiEnlsRIWbr0HSvWfDt8bjw7pt3HdoVcN5mF6E5PNeTzWeo3HxVs4bTUbeOe5UlZ0/gA4xj8KwpSbbTMqcm5STOn0y5sZPh/40t1S5t7q1lIebf8hYkBcCvMPEuj3uiagiXJN68lsCzMOEPPSujstW1J7LxZbXF7GkH2lfNYL88jK21R/u5FM+JS6skdglzNDJG8W9WiGNpxyufpXZDR2O+Huyt/XQ5rw7DPcaZctE4hMcakmQYG3HODXp+i6Dts9GmWUTrNFEu1W+dSSc4/CvM9K0yXULGcxXGyNI9xVjn5do4rs9Dt9ZttQ0q2e4FqDHGUH8JQnNXUTexdWLauj1fS/A7rrhvBcTLGkaLGF7jn5TXKeIfDOra5CkC/PEtyZP93HGK9Wa11K20iYrMrTqcoV6Z5x+lYfgm0mOkhrq5LvJKS8foa44ycdzhU5JXM3wf4dvG1KKO8Qq+IwrfLwvNR6npupaprkNo+VEMjBGXGcZ74r0zT9Pe3vkmRuiAH86nuLGGC6llZdzs3B/GiL1uOM2/eZ4/qPh0Jr9vFdTNAGbH2iMZ+btxUn9gR3kGuKLqeY2wUq7/Kp6ZyK6LxDZy3WtRw2xVpPMYkn+Hj7wrNtbK7RtXgW6Vh9nDyGQcsADzXTF3OtSclodNY/CbSbizt5WmuNzxqxw3GSM0VXt/C+tyW8bJqUwRlBUbe2OKKeovePUbXxLdXtkIgCjKME1PYQzXSv5krEAeuK0bfR7G3t0jWJhIYRJk9M4zWVpt06RyqUyNxxQ/IqVuhRWaa2uGiX50OSe9cLqmvPHr7ErsClR9a77TZJWvpflxtOD+Jrzfx1a/Z/Ej7OAWB/nSgrtkQ1Z3Wl64kmnhyMOqjAqhrPi0wwsqLmMqwb8qxvDu0rEkzbEIGX9K39a0OzbTZdj73baRnp15/Ss5JRepD91nn+i2o1C4cleGGRVyHQZIrwDorHArrbGO1kt1Fqo+VsfKvH51bkjBYSleVrPmZjUd2Y9011arEiqW28c9K81+Is99pN/p995GI45Q6mPr1PWvWlne6u/m4VV5rnfiNbRSaTaNModI5g5U9GXnilGWoofEeIeIvG99dafeiWNljuowCwHXmsr4b6zNotzfgWk1yk0IUxxr6Nnmu0+JE1va+HdLtxCiI4MvyjHHpn2roPAknhqPTRexIY5fK2uScgnArp57QOnm5YM+cPGVwb7xJfzGNojJMx2N1HNc9NDjmuu8cyLqHizUWt1+Rp2VfTGa0vF3hGSGxs7iD5yqIskUfXGPvGuuM0lFM7o1FFRTOAsmeK8hZMls5BHXrXqfjjxxcXngZbGeyeMzBR5ki/KMDHB/Cue8D+FZJNc0qW4EYglfALN6HH9K9Y+NUemr4NaykdTchwIRB94n2rmrTi6iOOtOPtEj5UmiPORiqzRsvSt1tJuZnYeSVC4DZ6A5qy3hp7fWIrG5k2q/wAzSKv8JGa7uaKO1yidN8H4ptJvE1145JbWGRotsYzhyo6j6U7Rdcz8VjeRWrNFJP8AKpXp1+bFerfs82ltYeHdSaWPfDHck/ve4HHArC+InxA8JfDnxVaardottbbHlWFFVppWx/Cp5xn14rypSTnJJX0PJlUvNxir6HLeKfFWt32rJburW6RTiVZNqqFAP3jmuV+Jn7UosNMudD0Xy9U1ppMNqjANFFxxtX+N8/gPc9PNviZ8WPEfxs1HEEC6RoKHaqrwXz/fYcsf9leKwbTTdP8AC8YYDzLrGBIeXJ9v7lUoRjb2mr7G8aEbJyRyt1darp2uR6tqfmXNzM5kaWZizOc8nPriul1JU1S3TUbRvMiYcj0/+vWZqNw2qOxmGUb5fpWVp+pXPhe+xzJasfnj7MP8a6pRc1e1mdTd9i7cQi4t5I+7DArlJEMbMh6g7a9CvLSK7txf2TCSBuSo7N/jXJ65Y4/0hR14cehqqUr6McS3otwZrPafvRnFN1u1M1r5o/1kf/oNY9jeNZzK+dyfxL610qyLdx5VtyOOT7VclyyuJnHt96kq1fWptLpo2+71H07VVPWt73NAooopAFFFFACq23BzgjuK0bXWJ7cgMfNX0frWbRmluI62y1CO4wy7i6/N5bda9Ps7lLu0hljOVZR/ga8IgmeGRXQ4Za7fw/4kmtYN8Db1Y/NCxYjd9N1ctak3sZTi7aHo+4joPfJ6CuZ8ReIkaN7azcSMRh5F6D/ZrI1DXrvUF2yOEi7xx5QH9Tms78vwGKwjR11M4wfU6vRdRstK0dWabfM+WaNDlyc/dxXG+LtUkvkMkhGZDhUUY2j0our6KzXLud3aNe/1rm768e8m8xjtx91R2rppwSfMjaKsys3BxW14dO5Z07ED+dYh61seHW/fSD0UH/x4VtU+BlS2PeP2WWZZNdz5xVZAiFBlEOGOW/Ksv4hNt8Y3/Vik4GD3weTXa/sZun2DxNE88MH2yZYVaT7wYIxytcV43sTbeML23Z1b99zL2Jz1rih/HmcVNt4iaRfvme8ktZbWyeIqpGV78VPdeLG1TSVtrtHmkiRlRn/h9q6TwR9it/FFiNZmaez5UeWcDketdR8XvD/hLR9HD6XHPHczpu+Y5/WhyXOkynKPtVFnm+jaW8nhe+mBFsscI3oP+Wi5qTR9UktfC620cEs8TTnzWC5ATjC/nVjwvanUdA1KFbxkC23mbW+62CflNTeGZZY/BWpr5qrtlV443OcN3YD2FW7p2NNbsd4b8ybWb+RtOM48uUeT8uV+U+tXvB9oZtSuEjhe1c73DjGfocVmaNcTtfTTRX2Jc/6xl9q0/DdrcT6o+btAuJC23vxTmKRB4He5j8X2zQuts4dyJcfe617/AKh4ujt/AMk99BJMGZ4j5SKM8ckn6V4B4VtXm8RWsC3BQkEhl9cnrX1DaaXaL4DsdOuZIVEyFdzLk72zXLiLKcbnLirKULo8+8C69eW/hC5mhhkmtPNkEKtg7BzgD8K5/Rb6XVviRpl19juItkYG1Uxzjlj+New+CPBS6LoRtTcl4o5HGMYHAHWuSk16Cx+Jq2rGNS8BjVoex3cZrKnJXlYypyV5WRyE2gzXF14mLyGVVdm+7wOQQzfjVbx3qVvPNZwDzJDb2211YYw/Utmtaz02S+1bxJcyXwgtkvMSJ8uHAcDvV34vQWTSpDBImcszeWozs2jGSPet4y9+J1w+OKOR8O2FzdW05gYQqEXezHO7j7o+v9a9A0rWtP1CbQ1aznW6txGnTjFcN4djMmn3bfbTboMZXGWfr0r1bwhaQ311pMkTxSRLDGj8c1VV6sura7uelt4kks47grbSzqvKR+i4wa5Dw5q0tpdNMx8yKeZmMbfeWvSb5o7G3nmJV1QDP+6MiuJ8C2P2ya4vpGWWKR8BNvT0rmOKPLY7S21QXATEbKxUKKuRtLNavGy5kVvlaqljCbe8kJCggAKuPeptS1IWbeVuVCzce1ZrcmPM9jh/EOrRaHq6NcRtM21l8xOoziq0clvbyapKktwTKgUZ6HIJ+arlxJbXOuQiWUSBW3Ix6b6uahpkOoafqaWl3GZQySuvuMZxXYdkUkjobe8vFt41ETkBQOPpRVi11ayW1hVnm3BFB/KimM9BuvFViG8qNedpTcBjtVFdWEVmjRxKzqPvuv8AKub/ALMZ9Nku852tjFZ1xqkiQsmMDGK35V9k3dNPYs2viqOC+vftbsRKMbvTmuR1m8Gua7vH3Puj8OK0tP8AD8+tyMypuVDyfSqXiLR/+Efv0QHPy7h+VJRVx2jF6bjdTuRYWpUHBC8GoNP8UNdacbdnxIpOD68ViaveS3SgnpXQeF/DQuNJmvJOq8LSnGyJlFLVnY+D7FfsBb1wfzq1dN5O9R3qTwuv2ewKj6VDcxtJO5X1rmlscNS19CnZxBZ9xGPeqHiTS5Nc8iAEG23qH+nNbKwllOKp6paN5US+eYd7cY7ms0ZHnnjTwbp2rJBbXN0tuluFRRuXJHU9fasrwtofh3TbqfS/tP29ZSwWM44XHykYrV+Kej2v9lAW8byX+8E+475rD8A6Fea1qbXrAaetpD5fyLwWzkZq/sM3XwHCaxpsIuprWw0llktZlkkmkGOATkZ9+tS+NbZl0mxnuHjsZLpVR8Nk+XzjFWvGFvJb6nNJ9pllmln2zwW5ZQUHH49KsfEPRb2SHTry2tQ9qsKjZcApsA43Z3c1pr7tjX+W5x3g28stN1iC4YXF3bw7IVkmGFV8nOPxrvPiQ1pd+H4JkeK3uFZmDSHOcAEKB9a4PTNIm1pYLFbkSvNcE/ZoRghQxy2c16h4o+G8lt4dWbyfPmRDGkcxysa45apqW5tSKtnNSR4aIbW8vYy8s13NLuluI4lwAe361QjkkSzt5FRLdkkkYzM3PHB3e1ani7WtE+H+k219rmsJHcFisWm2SqZZMYBK56cfxHivAfEHirWviL/osS/2N4d3ZjhHEkw7Fm/jPv8Adrdaxu3ZHVF82p6Pe/tHf8Irp91pPhqH+1tZnmZhMy5toM8Ehf429D0Hv0ryl9JudYvpdW8R3sl/dty/mPux7fh6dB0pyNp/h2Ew2qbpMYcA/MT7t2rLvL2e+b96QV7KO1Q+0V8wUIxd1uad5ryQgRWaKoAwJMYCjtisWSRpWLOxdj1Y96b+tFaRgolBUF5brcW7q/THy/71T1T1S8+y25/vuNq1pG99BoztD1y50K4yn7yIn95CxyrfhXTXC2upW/2qxG+BhiSJvvIT7VwZqezvJ7GYSwSNG47itZQ5ndblFrU9Ma1beh3wnvjGKgs76SxkBByp6r61onXo7hSJoRhvvKmOT61j3BjaRjGCF7A4zVJPZjRp6ndW95bpIjYlX+GshutJRTtYdrBRRRTAKKKKACiiigAq/pd/9hkyRmM/eAqhRRZPcNzel1+MA+XExP8At9BVG41a5uMjfsX0jGP1rP8AwopcqWwWsK3LHP8APNJRRTAK2NAOz7Q/olY9X7eTydOlx96RtgpPUWvQveGvFWo+E9Wi1HTLlre6jbI/usO4YfxD2rr4vH1tr9+095HHa3LtvcMf3TN35/h+lecIzRuGXhh6Vsw2lvq1v5gXyJV+VvL6E0pJJ6i5UtT6cj8P2kng2LW4Ub7QDtEWOOn3hUWsXlvrXg9LidXa4tlKfL0z/DmvAfD/AIu1/wAE7I7efztPDZa2kO+BvqM/KfxFetW/xj8M674YltoYTouqSKA8M53Ryeu1xwB7NXI4PmTRzSh7yZveD7OO88O6hNISixwfvI4+7Y5z+NTeFdJsb7wVqzPFi8j3SK7LxtGOlZ3h2K8l026Fvc+Wi2xYgdCKseF9PubzwnrHl3TIsaeY8CDhhxzU2b1fcqUShZ7Nw/0TB3Fj+Vbngyxt73VmDtLbjaxKxjdkY7+lc/aXE1vb3Eqyr8h+bjA56fpitvwPbzeINWmjjuBZSNEzeYucHj7vHrW0loXJWW5b8I6clx4ysYSzQR+YR5mc5GTivpq10rT9a8P2arKJPJBjjkbdnOecYr5q8E6Hc33iyys47keZkqG5yOTX0Z4Z+H97pegr9o1GWM/dMYGODyOfrXDiOhwYpRurMp6HqENhb3UFxNNKhu3gHXpk4/SuP1nwlpNt8QbCPd+7uE3ZkLDH+1xXZw+GLSz05l+1Mtw07BWlbI3+1cBq3hW/m8V2zpqil1jb97jG3JAwKzp2vqzOjve5k61YLFfa1Al1M0STxBdpJXGfvMa1PiBo9lpcWmSlt3nQ465zxxx9ahvPBeq2cOsSQztLAJ0iYuNzMdy8+1UviDoup6bNp7XsxmjMMaxuW3bevy11Rs5KzO6m/eWpY8H6bHfQybh5UkShtm3rwc17J4I8I6dHZadOF3sw3N7HFeOeGJ5IbeRfOZVIB3RnB6H5SK9S8HyanbmxhMwYTIjJI38I9BWdRNXsRVvrY7zVtStoWmS5YfZ4oMkduhxn8a5L4c+JrG10p3kkZGkcgLJ0/CujufCJ1ax1CG5uGMjyZ3eowcfrXBeGvCdpNoN1FJd7bqIOyJ/trx/SojZrUxjFTjdnsWjzRaq5mGVAVVGa5/4hXkdvc20KyMrsxG/FU/Ctvq3lqouIYGdFwz9Suef1zVH4gWtxDf2ERuPOR2Khu688miMVfQqnGMZHKa0w82FbeRsB/wDXY+83+eKvQ6Jd28kpivGjXAYjONzHBqK80mW81KGwt2BQfNuIwAfUn3PP41JFo93FHdrPLLviYblznK9q7UrI7tOh6xZ+F4ZLOBn1Fg7RqT83fFFUbPwrqklnA6XUoRkUqPbFFSZnql5o8celyQxPnK5ce+K82uLV2mKKvfFe0R+DS9qPMmKOV59fes2Dwfp9lcqz7mUHnd61TlysObl1OA0Wzm0e5G4squOR7VneKfDepa1dL5VuTGBwxGOPrXr19HZCSNI413dttYd5qky6olrHAA5XJaQ8bfasW3uiJSfNdHA2fwmllt1NzOkbHkYOTXU2fhu10nTTbs25COa0bi5uB5ayt+7ZtpH8qTULHzIiEOGX5lHripbb3IlJtamTp/lW6sqr7CjDpuymd1La75use3mr08a7Rk59qy3MIq5iNbvu27sr1qG6jSWWHapcKcH0rcFr5wwqYPrWZfWstqizGXywrcnGP1qLWY5ROU8WaLNcTCX7StuF2qDtXoSeRVLwzpNl4fSbEz3G8F5GKg8f3sDpVrWrVLqc3AWa8AIA+b93uz3qpppvZPtQli+wxAOiyN8/P07UuqM99Dyy78XSw6lq0FtaW9s+/wAwyS/M20D5T+Nc/wCItc1PxF4e0uWZZp/3ixmKNdqMcHOa6LV28L6Hql1cXdz/AGlfmTB2nKbf9ofWuH+L37Rlh4NhgSFIoDGqNFEq/vZWyfujoFz1Y11RTb0VzrUXfQ67R5n8CwxXP2Gz0j5I3kvbqUllAJP0Vfl6txXmnx0/a/h1Szfw54HUazfuuyfVDGRbR9iEU8Mf9s/L6ZHFeAeLvH3i34yXCy6zctaaODmO1iG0N+H8X1rKeaz8Ow/ZrOIeZjLbX5/E9/8AIpy5VLfXsaOmr3ZCujiO4fVNcuWvr6T5i0zF9p9Md8dOOOOKjvteknBSH91H09zWdcXUl1IZJJBI38OBjFM/Wr5b+9Pc0dw6ep+tI8gjXc7BVFR3VyLOEyMeP7v972rmbu9ku5N0hyo6L/d9q1jHm1ew0rm1NrsEfCgyn2GP1qP/AISKLvE2fqDWA33qSt1CJXKbk3iL5SIosH1c5x9BWTcXElxIWkYs3qRUNFPlS2HawUUUUxhRRRQAUUUUAFFFFABRRRQAUUUUAFFFFABRRRQAUUUUAFOLMyAdhTaKACtDSb77DIM/6tuG9qz6XHFFrgdkjpIu9GLL6noaq3OkwXIJC+W/+x/WuetbyW1bMbke3atW315TgTRn6of6Vi4uPwmdjV0XxHr/AIPV4rOfzbOQfPCRujI9/SvSPA/xn0qPS7jTb22+x3FxlfObDRhTjOSSMV5nBfRXHEcqlu3GDTLrT4LgndHlv76nB/H1qW01aQtz6S8UaPpVhpcMlhL9piniMnmLhlLcdGBNc5ok0lvcOYpCjkNyO/FeIWNxq/h/cNMv5ERuTErYD/VP4q6jw38XH0+4C6rZDdgr50K4xx3TvVQiraFRXunt3gW1LeILRkuJLdwrSeav3t3tX07oOqrqnh+1eOZ7ps7JWIwR1A5+tfI/gHXLXxNqNsunXglJIyin5h16jtX1P4N0l/D/AINtne6HmzM2yNpM7vYGuHERu7nFileSRc0nSBcaHdx3U5llWd5IiDkqwzxXmutaxeWvjGyiTT2hXZjD92/vity1tdct7a81FZZFSO8dQjFtoGTkcVFqvi62h8Z6XLKYxHDbFZCFPJbHSsYK3S5hTjy9LlazvrqPQ9XBf7TGblfNkfdkvnjH4cfhUfj+GW805HuYpFiRAwdm/ixxxXQ2eq2TaFr0JDjNwQiN3zn5vwqHxdNb6mt1ZRyGd44C5cnaDjt71cXaWxtH4trHD+F7O3ug6zM1uwAbCH7wweor13wrDc3ljYXL2R+UIkTgYyAcV5d4T017yR/LVjhVAaPscdCK+gvDc0cfh+xiXaGEaBlxggDr+tXWd2XiDZt2a2tJ5fLYsjsxT8K8u/daHqNvfeYzSXFzgp6Kc16vDF9pM+HZl3Ar+GRtrzLXNDa6NpGUZi1wQAegzXPTMKWx3Ok6X9s1KFlRjbG3+ST+7nk/rmo/GXhcXkdg0MuCkgjy/wDSuk8O6PLp9ukc7DaIgBjr1p2taTK7w7WJTdxntzV9bjXxHj8kjeH9bd9xuGQFHQ9xUtj5utT3t27+XGqH5c9Pl4q545s2sb6TccgscP61m6JppuLe5n80xbQqlQMbufWu+OseY9COseY9mtoZfs8WJuNgx83tRXJxafF5af6ZKOB/y0orEzPqZoZFWTzGGeQWHrXLwRxtKQ7Izbj945O32Fb5jmuLcfargt656Gsm5tordjPAp+XgqvT8auRDV2YEUzx6g5MLPGWwNwxXO31neTaxJMzCKNFOCO9bWoLqEkqtsjRd33l7VUvrVPMcz3TSvgbVU579xUbitYmtYIVhj3HzHx1qxKCI2wSRjr2FTSAR26iOHefpioLq3lltzvby8DHTH61k1Ygw7e3VVeSScYUnpUxlj+Xb8/8AtVAdQ0y0Uosyyy9OuTmo1unkQAJgbt2amRnezNNZhgZ+Xiue8SX1vBCvmHeuenrWrMzR4cknA6HpXnPiy6k/tW3OAEeRBx9SP61Cv0Gpc2ha1jWmt9CkmjjWAxkMEfuM9qq2OpJfNO1zL5dl5fnOZDtQADLMx6KB6mvEPi98YbbwfZ3E2rXot4G3JHCPmkl55VF9cfhXyp4y+L3i/wCL9sNOF1No/hVDgW0Zb9+o4G8j/WHj7v3RW3sbe9J2NfYdTqfjB8braXxRqFh4KP8AaUzTOVvsZji5/gzww924rzC10KS5vG1LWLhtS1KX52eYlgD7Dvj24GOOKu2tnaaDa7Y1WBM8vnLPWRqWtSXRZIwY4s8lfvH61pzSmrRXzN1tYualrQjHlW+0v03N0X6VglixJJJJ6k0nPfrRVQhyrUYUnr6dTS1natqP2eMwxnMrdT/drS1wMrVr37VcYH+rTgVQpz9fWm11JWRqFFFFABRRRQAUUUUAFFFFABRRRQAUUUUAFFFFABRRRQAUUUUAFFFFABRRRQAUUUUAFFFFABRRRQA5SeMHGPzq9aavPa4G7ev91qz6KVk9xHWWOoRXi/KSr91NSywpMCsqq69g/b6VyCsykEHBHStO21yaLAkAlH61k6dtYk2NGOxm0+ZLrTrmW0uIyWSSNirAgZ+Vl5B5r2j4f/tWa14bWz03xjZya1psKmNJ4n8u5jGByCPlk9wcH3FeMW+sW8uAW8pv+mg4/A1cZVuo8MA6e5zUyta01ciSUtJK5+jPw4+IvhD4k6SU0DVo76LIaS0kURzRDHJdDyBnPP8AOsrWfD+mXvjVFe2RtkH3QQg5bAYHvX56Wsd5ot9Ff6PezabfRHckkMhRl9wV5Fer+Df2itQj1i3HjRp54RtQ6najEqD1K9G+oIb61zew1coSOdUOVu0j7GXT9PXwxrkDny3huZI9zdVG5cN+dYPi3QYofKlaZvm09dxjbbuYBhk+tZ3hm10fxt4R1a/0PxImqwtMmGEuNvP/AC0jYgqfr9eetXvEHh2fT4RGbqSeRrcuyyEEBBwG4J4zUxi4vVhCye5Q+Htmt3dPiQqqqC0cZwWABzmvdPD2lpJoljtGCw3Y/wBnNeQeAdPiaGd5NiOqAiVfu5wcg/WvafDtk9np9m0c3mhoVG2TtnniprfETiNzqdJtjbwsAuRziuKn0ueTxNDN80kPm8p2WuzjWXbIAzYwa5KO7needoNxmEirz071kjGLsehSSKGQ7abfShrdMDA38mqFjHPNawiVtrKo/GlvhL5ITOAzDn05qXuNO7PMviNJH9oCxuSd/IPSsfQbH7ZBOpYrydpRvlB4+9Wl44jePUHUv5gLbt1Q6Hpq3NnNI0rxgHlQMKy47mvUh/DPTj8J6fb+G7HyI99o7PtGSG6nFFaEfhGJo0K3d2FIBG2TiiucxPcVjjWPBYsVHcVz2ofbZ7yKO1j2k9GZeK6y+13T7OzDJtLMNoVa4bXPFl421bUeSi8Ed2rbl1Hy3LbWci+Yt5IrZ4KqMD865rV9Z0vR/ljjHmZ7DJ/OsLUNU1BpvMkmdtp3BT0zWF4jvEv5I5FGGH3/AK0clxqnc7WPxVBqLKsY2x993WmeIJkk0eYluMcV51ZySK2FBJznFbsl9dXFn5cluTEyFAx6bqzmrSM5U7anA294I9SBJyN1el6beJcQrjpiubtfBsOnxJd3szFzJhY4/wCtbX9rw6Xp8tx5MdrbxEs80h2Iqj7zM3QDHduKznuZVLy2Ni4aKTCvuCthcgKc88AA9818sftVftN+HPhrcDRdCEeveMU620b74bVzyGlYclsEfu1/HA6+bftGftr3OuXVx4T+GM8jsS0dxrwwRt7rbjoAO8h7k7McGvmfTNDTTWlvbp/OvpSZJZnLHaTy3Lck57nmnZQ95mkKbWrFvLfVPGetT614pupL+/mJkEbEMqEsflCjhR/sipL/AFqKx/dQhZJhwBn5V9j/AIdqz9Q11plMcG5Yu7fxH6Vlc9+tCvU1qG99LEs95LdSb5HZ3HQHoKi/I/Sio5riK3TdI6p/vHOfoK1V9oiJKRmCKSxAUdTWRca+FyIEJP8Aek/oKzLi8lum/eOz/wAhWqg+o0jVvtaVfktsb/8Anoe30rCkYu5YkknqTSNwetJWyjylpWCiiimMKKKKACiiigAooooAKKKKACiiigAooooAKKKKACiiigAooooAKKKKACiiigAooooAKKKKACiiigAooooAKKKKACrNrfS2uDG5X2zkflVaijTqBv2uvq2FmXaf7ycCtNWjuI+Cjxt121xtTQXEkDZjfYfWspU+xPKdZY/a9Dulu9Jvp9NuhwJIWIJH4dfxr1rw7+05qcMnleMbOS/jEYhW9svlYKBhQyH5W6eoNeFW+vyJjzUDj+93rSh1K2nXJlA/2WO3/wDXU6rclq2p9w/CbxZ4W8bWUzadrPn3CYZ7NSVmHXJKN820H04r6J8Pxi2tNPZZDKWgGxSQQB+Ffkutn5dxHc2k7Wc6Hcs0BZSp/vccj/eFe8/CX9snxP4DurKw8Xg+I9DV9v2ogfa4F7lW6SDHOGw3oyjrhVg6mqMakXJ3R+jVv5nkuWAO4du1c34Z02eO8mnMqi3WZjjvVfw58RtP1rQU1SxP2jT54lmtpVIO9CDjOO4OQR2IIrN8K+LDb2tx5kcspmbLo33VJOeK5VGSVjmjGSPULXZ9oClsBkztqvr08EdrGh+X5gD7rmuf0vXBqeroSjomwLle+MjmqOr3c+qeTb/dkUgL+dUou+o4xd9TmvGEMf8AaG1DmPJyvpzS6Lp6y2spJbAA27P61Y1zR5be+SOXJdnxuq9ZaXHiUwzMgXCn/ervT92x6NrRO9s45xZwAbMbF/lRUEGoWyQRqzNuCgH64orMwPbrrRY7tbcxDy0K5Y+tZE+kpuwBkDiur06zuJbFkI2FTkGoZbGG3ZWeTe2cmqY2cgfDlvdqyShg38JrnNU+H0KzbluNibc/jXo99dBTiJM45yelc/q2lmSTM1yViZdxRRgH8am9hXscxomkafBxCgmlHDH3q/q+km6s0AIhAfqBg/nVvSVggwkUPlBuNxOc14L+1h+134X+AGny6TA0eueMp4g0WkQyEC3B5V52H3ByCF6sCMYHzCF7zsQ7y0RufEn4oeD/AIM6BPqvi3VRDEpZYUH7yWZsD5I0/ib9B1LAV+e3xy/ac8X/ALQ91LpViG8M+B45PlsY5ObgBvledh/rT6KPlB/OvP8AxNrniT4veJJfEvjTUJb24cYS3OVSNCeERRwq5/h6nqeSatMYbG3w22ONBj7pUDHYCpnKMHZbmiiolWx0yz0G1dIh5ca8s7D5m+p9fpxWHqeqPqDbSdsA6LnO6l1TVmv5AqlkgHRR1ZveqA98Z9qmMW3ee5QVHI4jDO7hI+7N/SlmlWGNpJDhF7etcxfX0l1LknCD7q11RjzavYaVy/ea4zZWAeWP73c1jyyNJIWYksfWmnrRXRyqOxaVgooooGFFFFABRRRQAUUUUAFFFFABRRRQAUUUUAFFFFABRRRQAUUUUAFFFFABRRRQAUUUUAFFFFABRRRQAUUUUAFFFFABRRRQAUUUUAFFFFABRRRQAUUUUASxzSR4KSFfoakkvJ5o9kkrOv8AtHOKrUv8NMD7l/4J3/F6G4m1D4b6y/mmVJLzRzIf4gN00I+oG8f7r19i6fotpDDd4CvCj4x2zuOK/HPwV4ov/BPirSdf0uTyb/TrmO5iY/dJVgcH27H2Nfr58L/E9h448N6f4itzttdXhhuUXupZGLIfdWyp9wa4a0bO5yVY2dzrtN8P2sOqLJ/qkKcL/tZrVbw3aLM7RjDMwJPvmrqxQNtG37qjH51YREkBbGCrYrBOxhex538QNPVbqMA5+bBbGNp7c1kyabFaSvGpZtyKwdTnDe9dH42i33UaSLtBcfN61l3GksskjKvyRqp+9XXTd4nZTd4nbW+g6W1vEXhty5UFifXFFYyaPE6q23qM/eopGx9OXFjcSWzZcRt1ytY620EE24O0zd66vUIxLCcEr8vOKyJreO3jJVBnaOfxqjn6nM3Ec17NJ5QEKL1Ldd3bFczqFg8euWyzPJdMw2lflY57AL6ZrpIGaXUrjLMOegPvXzP+3h8a9Z+Bfw1utV8NokWr30osIbyQ5NrvB3SBcYY4xgHgHk54AFroNanC/tsftpW3wXjbwd4Mnhu/HEyqJ7hNskelA5IJx96Y5yF7AgnsD+aP9qvNqFzrOsTvf6vcuZnuLyUuxcnJY55cn36dKw73Ubia8lu7iaS6v7qVnlup2LyO5Y7mJPUk5OT61fh0+CN8uvnSEZLOc/pT5UlYq1i9N40Zj8swX12R4/pUT67HqBHmXRbHQSHA/Cg20XQxRkf7tV5tJtplYiPyyP7tZcsLhuXP1pGfaC2doUferm/tcunzMkbZC9N3I/KmXOoz3S4dhj0UYFbKDY+Ul1LUftjhVG2Jf4f73vWaetBNFbWsjQKKKKACiiigAooooAKKKKACiiigAooooAKKKKACiiigAooooAKKKKACiiigAooooAKKKKACiiigAooooAKKKKACiiigAooooAKKKKACiiigAooooAKKKKACiiigAooooAcudvHfiv0i/wCCeOtHxV8H7zSbiZjJoOouqr/chlXeP/H/ADa/NuvtT/gmXrVzb+M/F+mqxFrPZQTyJnqySFR+jtWVVXiZVFeJ+jOn2QuLyKFW+UDBrak0yO3VdjfIG+aqegRq2pDjA2mrviRjCsKr0ZxmuOKsjlSsjz/x7GJLiNAw278e+e1ZVtHbFZVcuXG1V2nHfnP41peKkD6mgYZGf6U+PRbdo5HAKsuMY+ldEPhOmn8I/wCz2y8fJx/tUVeTQYGVTubpRWhsf//Z;clipPath=inset(0.21% 0.33% 0.21% 0.33% round 2%);opacity=16;" vertex="1" parent="1">
          <mxGeometry x="36" y="37" width="1026.41" height="833.5275838926176" as="geometry" />
        </mxCell>
        <mxCell id="POBGn_9Outm2-H0OH8fw-16" style="edgeStyle=orthogonalEdgeStyle;rounded=0;orthogonalLoop=1;jettySize=auto;html=1;exitX=0;exitY=0.5;exitDx=0;exitDy=0;" parent="1" source="POBGn_9Outm2-H0OH8fw-1" edge="1">
          <mxGeometry relative="1" as="geometry">
            <mxPoint x="25.28571428571422" y="451.8571428571429" as="targetPoint" />
          </mxGeometry>
        </mxCell>
        <mxCell id="POBGn_9Outm2-H0OH8fw-1" value="" style="rounded=1;whiteSpace=wrap;html=1;strokeColor=#00FF00;fillColor=none;perimeterSpacing=0;arcSize=2;" parent="1" vertex="1">
          <mxGeometry x="32" y="35" width="1029" height="833" as="geometry" />
        </mxCell>
        <mxCell id="POBGn_9Outm2-H0OH8fw-3" value="" style="rounded=1;whiteSpace=wrap;html=1;strokeColor=#00FF00;fillColor=none;perimeterSpacing=0;arcSize=4;" parent="1" vertex="1">
          <mxGeometry x="1090" y="35" width="474" height="834" as="geometry" />
        </mxCell>
        <mxCell id="POBGn_9Outm2-H0OH8fw-4" value="" style="rounded=0;whiteSpace=wrap;html=1;fillColor=none;strokeColor=#4dff00;" parent="1" vertex="1">
          <mxGeometry x="1117" y="564" width="420" height="281" as="geometry" />
        </mxCell>
        <mxCell id="POBGn_9Outm2-H0OH8fw-5" value="&lt;h1 style=&quot;font-size: 22px;&quot;&gt;&lt;span style=&quot;color: rgb(0, 204, 0); background-color: initial;&quot;&gt;Triny&lt;/span&gt;&lt;/h1&gt;&lt;h1 style=&quot;font-size: 22px;&quot;&gt;&lt;span style=&quot;background-color: initial; color: rgb(0, 204, 0); font-weight: normal;&quot;&gt;Lorem ipsum dolor sit amet, consectetur adipisicing elit, sed do eiusmod tempor incididunt ut labore et dolore magna aliqua&amp;nbsp;&lt;/span&gt;&lt;br&gt;&lt;/h1&gt;&lt;font color=&quot;#00cc00&quot; style=&quot;font-size: 22px;&quot;&gt;adipisicing&amp;nbsp;ng elit, sed do eiusmod tempor incidid&lt;/font&gt;&lt;p style=&quot;font-size: 22px;&quot;&gt;&lt;font style=&quot;font-size: 22px;&quot; color=&quot;#00cc00&quot;&gt;.&amp;nbsp;&lt;/font&gt;&lt;/p&gt;" style="text;html=1;strokeColor=none;fillColor=none;spacing=5;spacingTop=-20;whiteSpace=wrap;overflow=hidden;rounded=0;" parent="1" vertex="1">
          <mxGeometry x="1138.5" y="581.5" width="377" height="246" as="geometry" />
        </mxCell>
        <mxCell id="POBGn_9Outm2-H0OH8fw-6" value="&lt;font size=&quot;1&quot; face=&quot;Lucida Console&quot; color=&quot;#00cc00&quot; style=&quot;&quot;&gt;&lt;b style=&quot;font-size: 35px;&quot;&gt;Cybernetic Sabotage&lt;/b&gt;&lt;/font&gt;" style="text;html=1;strokeColor=none;fillColor=none;align=center;verticalAlign=middle;whiteSpace=wrap;rounded=0;" parent="1" vertex="1">
          <mxGeometry x="1117" y="48" width="426" height="71" as="geometry" />
        </mxCell>
        <mxCell id="POBGn_9Outm2-H0OH8fw-10" style="edgeStyle=orthogonalEdgeStyle;rounded=0;orthogonalLoop=1;jettySize=auto;html=1;exitX=0.5;exitY=0.5;exitDx=0;exitDy=0;exitPerimeter=0;" parent="1" target="POBGn_9Outm2-H0OH8fw-3" edge="1">
          <mxGeometry relative="1" as="geometry">
            <mxPoint x="549.5" y="451.5" as="sourcePoint" />
          </mxGeometry>
        </mxCell>
        <mxCell id="POBGn_9Outm2-H0OH8fw-11" value="" style="shape=actor;whiteSpace=wrap;html=1;fillColor=#00CC00;strokeColor=#66FF66;" parent="1" vertex="1">
          <mxGeometry x="1475.5" y="581.5" width="40" height="55.5" as="geometry" />
        </mxCell>
        <mxCell id="POBGn_9Outm2-H0OH8fw-13" value="&lt;font color=&quot;#00ff00&quot; style=&quot;font-size: 15px;&quot;&gt;Restart&lt;/font&gt;" style="rounded=1;html=1;shadow=0;dashed=0;whiteSpace=wrap;fontSize=10;fillColor=none;align=center;strokeColor=#00FF00;fontColor=#ffffff;strokeWidth=3;" parent="1" vertex="1">
          <mxGeometry x="1117" y="130.78000000000003" width="105.5" height="44.44" as="geometry" />
        </mxCell>
        <mxCell id="POBGn_9Outm2-H0OH8fw-14" value="&lt;font color=&quot;#00ff00&quot; style=&quot;font-size: 15px;&quot;&gt;Hint&lt;/font&gt;" style="rounded=1;html=1;shadow=0;dashed=0;whiteSpace=wrap;fontSize=10;fillColor=none;align=center;strokeColor=#00FF00;fontColor=#ffffff;strokeWidth=3;" parent="1" vertex="1">
          <mxGeometry x="1274.25" y="130.78000000000003" width="105.5" height="44.44" as="geometry" />
        </mxCell>
        <mxCell id="POBGn_9Outm2-H0OH8fw-15" value="&lt;font color=&quot;#00ff00&quot; style=&quot;font-size: 15px;&quot;&gt;Settings&lt;/font&gt;" style="rounded=1;html=1;shadow=0;dashed=0;whiteSpace=wrap;fontSize=10;fillColor=none;align=center;strokeColor=#00FF00;fontColor=#ffffff;strokeWidth=3;" parent="1" vertex="1">
          <mxGeometry x="1431.5" y="130.78000000000003" width="105.5" height="44.44" as="geometry" />
        </mxCell>
        <mxCell id="POBGn_9Outm2-H0OH8fw-17" value="" style="rounded=0;whiteSpace=wrap;html=1;fillColor=none;strokeColor=#00FF00;" parent="1" vertex="1">
          <mxGeometry x="51" y="661" width="989" height="180" as="geometry" />
        </mxCell>
        <mxCell id="POBGn_9Outm2-H0OH8fw-18" value="" style="rounded=0;whiteSpace=wrap;html=1;fillColor=#00FF00;strokeColor=#00FF00;" parent="1" vertex="1">
          <mxGeometry x="974" y="674.5" width="50" height="151.5" as="geometry" />
        </mxCell>
        <mxCell id="POBGn_9Outm2-H0OH8fw-20" value="" style="html=1;shadow=0;dashed=0;align=center;verticalAlign=middle;shape=mxgraph.arrows2.sharpArrow2;dy1=0.67;dx1=18;dx2=18;dy3=0.15;dx3=27;notch=0;direction=north;fillColor=#000000;" parent="1" vertex="1">
          <mxGeometry x="977.5" y="693.25" width="43" height="114" as="geometry" />
        </mxCell>
        <mxCell id="POBGn_9Outm2-H0OH8fw-22" value="&lt;font face=&quot;Lucida Console&quot; color=&quot;#00ff00&quot; style=&quot;font-size: 21px;&quot;&gt;SELECT *&lt;br style=&quot;font-size: 21px;&quot;&gt;FROM table&lt;br style=&quot;font-size: 21px;&quot;&gt;WHERE prop&lt;br style=&quot;font-size: 21px;&quot;&gt;&lt;/font&gt;" style="text;html=1;strokeColor=none;fillColor=none;align=left;verticalAlign=middle;whiteSpace=wrap;rounded=0;fontSize=21;" parent="1" vertex="1">
          <mxGeometry x="71" y="678" width="279" height="94" as="geometry" />
        </mxCell>
        <mxCell id="POBGn_9Outm2-H0OH8fw-23" value="Table" style="shape=table;startSize=30;container=1;collapsible=0;childLayout=tableLayout;strokeColor=#00FF00;fontSize=16;fillColor=#00FF00;" parent="1" vertex="1">
          <mxGeometry x="71" y="355" width="216" height="170" as="geometry" />
        </mxCell>
        <mxCell id="POBGn_9Outm2-H0OH8fw-24" value="" style="shape=tableRow;horizontal=0;startSize=0;swimlaneHead=0;swimlaneBody=0;strokeColor=inherit;top=0;left=0;bottom=0;right=0;collapsible=0;dropTarget=0;fillColor=none;points=[[0,0.5],[1,0.5]];portConstraint=eastwest;fontSize=16;" parent="POBGn_9Outm2-H0OH8fw-23" vertex="1">
          <mxGeometry y="30" width="216" height="47" as="geometry" />
        </mxCell>
        <mxCell id="POBGn_9Outm2-H0OH8fw-25" value="" style="shape=partialRectangle;html=1;whiteSpace=wrap;connectable=0;strokeColor=inherit;overflow=hidden;fillColor=none;top=0;left=0;bottom=0;right=0;pointerEvents=1;fontSize=16;" parent="POBGn_9Outm2-H0OH8fw-24" vertex="1">
          <mxGeometry width="72" height="47" as="geometry">
            <mxRectangle width="72" height="47" as="alternateBounds" />
          </mxGeometry>
        </mxCell>
        <mxCell id="POBGn_9Outm2-H0OH8fw-26" value="" style="shape=partialRectangle;html=1;whiteSpace=wrap;connectable=0;strokeColor=inherit;overflow=hidden;fillColor=none;top=0;left=0;bottom=0;right=0;pointerEvents=1;fontSize=16;" parent="POBGn_9Outm2-H0OH8fw-24" vertex="1">
          <mxGeometry x="72" width="72" height="47" as="geometry">
            <mxRectangle width="72" height="47" as="alternateBounds" />
          </mxGeometry>
        </mxCell>
        <mxCell id="POBGn_9Outm2-H0OH8fw-27" value="" style="shape=partialRectangle;html=1;whiteSpace=wrap;connectable=0;strokeColor=inherit;overflow=hidden;fillColor=none;top=0;left=0;bottom=0;right=0;pointerEvents=1;fontSize=16;" parent="POBGn_9Outm2-H0OH8fw-24" vertex="1">
          <mxGeometry x="144" width="72" height="47" as="geometry">
            <mxRectangle width="72" height="47" as="alternateBounds" />
          </mxGeometry>
        </mxCell>
        <mxCell id="POBGn_9Outm2-H0OH8fw-28" value="" style="shape=tableRow;horizontal=0;startSize=0;swimlaneHead=0;swimlaneBody=0;strokeColor=inherit;top=0;left=0;bottom=0;right=0;collapsible=0;dropTarget=0;fillColor=none;points=[[0,0.5],[1,0.5]];portConstraint=eastwest;fontSize=16;" parent="POBGn_9Outm2-H0OH8fw-23" vertex="1">
          <mxGeometry y="77" width="216" height="46" as="geometry" />
        </mxCell>
        <mxCell id="POBGn_9Outm2-H0OH8fw-29" value="" style="shape=partialRectangle;html=1;whiteSpace=wrap;connectable=0;strokeColor=inherit;overflow=hidden;fillColor=none;top=0;left=0;bottom=0;right=0;pointerEvents=1;fontSize=16;" parent="POBGn_9Outm2-H0OH8fw-28" vertex="1">
          <mxGeometry width="72" height="46" as="geometry">
            <mxRectangle width="72" height="46" as="alternateBounds" />
          </mxGeometry>
        </mxCell>
        <mxCell id="POBGn_9Outm2-H0OH8fw-30" value="" style="shape=partialRectangle;html=1;whiteSpace=wrap;connectable=0;strokeColor=inherit;overflow=hidden;fillColor=none;top=0;left=0;bottom=0;right=0;pointerEvents=1;fontSize=16;" parent="POBGn_9Outm2-H0OH8fw-28" vertex="1">
          <mxGeometry x="72" width="72" height="46" as="geometry">
            <mxRectangle width="72" height="46" as="alternateBounds" />
          </mxGeometry>
        </mxCell>
        <mxCell id="POBGn_9Outm2-H0OH8fw-31" value="" style="shape=partialRectangle;html=1;whiteSpace=wrap;connectable=0;strokeColor=inherit;overflow=hidden;fillColor=none;top=0;left=0;bottom=0;right=0;pointerEvents=1;fontSize=16;" parent="POBGn_9Outm2-H0OH8fw-28" vertex="1">
          <mxGeometry x="144" width="72" height="46" as="geometry">
            <mxRectangle width="72" height="46" as="alternateBounds" />
          </mxGeometry>
        </mxCell>
        <mxCell id="POBGn_9Outm2-H0OH8fw-32" value="" style="shape=tableRow;horizontal=0;startSize=0;swimlaneHead=0;swimlaneBody=0;strokeColor=inherit;top=0;left=0;bottom=0;right=0;collapsible=0;dropTarget=0;fillColor=none;points=[[0,0.5],[1,0.5]];portConstraint=eastwest;fontSize=16;" parent="POBGn_9Outm2-H0OH8fw-23" vertex="1">
          <mxGeometry y="123" width="216" height="47" as="geometry" />
        </mxCell>
        <mxCell id="POBGn_9Outm2-H0OH8fw-33" value="" style="shape=partialRectangle;html=1;whiteSpace=wrap;connectable=0;strokeColor=inherit;overflow=hidden;fillColor=none;top=0;left=0;bottom=0;right=0;pointerEvents=1;fontSize=16;" parent="POBGn_9Outm2-H0OH8fw-32" vertex="1">
          <mxGeometry width="72" height="47" as="geometry">
            <mxRectangle width="72" height="47" as="alternateBounds" />
          </mxGeometry>
        </mxCell>
        <mxCell id="POBGn_9Outm2-H0OH8fw-34" value="" style="shape=partialRectangle;html=1;whiteSpace=wrap;connectable=0;strokeColor=inherit;overflow=hidden;fillColor=none;top=0;left=0;bottom=0;right=0;pointerEvents=1;fontSize=16;" parent="POBGn_9Outm2-H0OH8fw-32" vertex="1">
          <mxGeometry x="72" width="72" height="47" as="geometry">
            <mxRectangle width="72" height="47" as="alternateBounds" />
          </mxGeometry>
        </mxCell>
        <mxCell id="POBGn_9Outm2-H0OH8fw-35" value="" style="shape=partialRectangle;html=1;whiteSpace=wrap;connectable=0;strokeColor=inherit;overflow=hidden;fillColor=none;top=0;left=0;bottom=0;right=0;pointerEvents=1;fontSize=16;" parent="POBGn_9Outm2-H0OH8fw-32" vertex="1">
          <mxGeometry x="144" width="72" height="47" as="geometry">
            <mxRectangle width="72" height="47" as="alternateBounds" />
          </mxGeometry>
        </mxCell>
        <mxCell id="POBGn_9Outm2-H0OH8fw-37" value="&lt;h1 style=&quot;border-color: var(--border-color); text-align: left;&quot;&gt;&lt;font face=&quot;Lucida Console&quot; color=&quot;#00ff00&quot; style=&quot;font-size: 21px; font-weight: normal;&quot;&gt;orem ipsum dolor sit amet, consectetur adi&lt;/font&gt;&lt;/h1&gt;" style="text;html=1;strokeColor=none;fillColor=none;align=center;verticalAlign=middle;whiteSpace=wrap;rounded=0;" parent="1" vertex="1">
          <mxGeometry x="71" y="222" width="276" height="163" as="geometry" />
        </mxCell>
        <mxCell id="POBGn_9Outm2-H0OH8fw-38" value="Table" style="shape=table;startSize=30;container=1;collapsible=0;childLayout=tableLayout;strokeColor=#00FF00;fontSize=16;fillColor=#00FF00;" parent="1" vertex="1">
          <mxGeometry x="71" y="85" width="216" height="170" as="geometry" />
        </mxCell>
        <mxCell id="POBGn_9Outm2-H0OH8fw-39" value="" style="shape=tableRow;horizontal=0;startSize=0;swimlaneHead=0;swimlaneBody=0;strokeColor=inherit;top=0;left=0;bottom=0;right=0;collapsible=0;dropTarget=0;fillColor=none;points=[[0,0.5],[1,0.5]];portConstraint=eastwest;fontSize=16;" parent="POBGn_9Outm2-H0OH8fw-38" vertex="1">
          <mxGeometry y="30" width="216" height="47" as="geometry" />
        </mxCell>
        <mxCell id="POBGn_9Outm2-H0OH8fw-40" value="" style="shape=partialRectangle;html=1;whiteSpace=wrap;connectable=0;strokeColor=inherit;overflow=hidden;fillColor=none;top=0;left=0;bottom=0;right=0;pointerEvents=1;fontSize=16;" parent="POBGn_9Outm2-H0OH8fw-39" vertex="1">
          <mxGeometry width="72" height="47" as="geometry">
            <mxRectangle width="72" height="47" as="alternateBounds" />
          </mxGeometry>
        </mxCell>
        <mxCell id="POBGn_9Outm2-H0OH8fw-41" value="" style="shape=partialRectangle;html=1;whiteSpace=wrap;connectable=0;strokeColor=inherit;overflow=hidden;fillColor=none;top=0;left=0;bottom=0;right=0;pointerEvents=1;fontSize=16;" parent="POBGn_9Outm2-H0OH8fw-39" vertex="1">
          <mxGeometry x="72" width="72" height="47" as="geometry">
            <mxRectangle width="72" height="47" as="alternateBounds" />
          </mxGeometry>
        </mxCell>
        <mxCell id="POBGn_9Outm2-H0OH8fw-42" value="" style="shape=partialRectangle;html=1;whiteSpace=wrap;connectable=0;strokeColor=inherit;overflow=hidden;fillColor=none;top=0;left=0;bottom=0;right=0;pointerEvents=1;fontSize=16;" parent="POBGn_9Outm2-H0OH8fw-39" vertex="1">
          <mxGeometry x="144" width="72" height="47" as="geometry">
            <mxRectangle width="72" height="47" as="alternateBounds" />
          </mxGeometry>
        </mxCell>
        <mxCell id="POBGn_9Outm2-H0OH8fw-43" value="" style="shape=tableRow;horizontal=0;startSize=0;swimlaneHead=0;swimlaneBody=0;strokeColor=inherit;top=0;left=0;bottom=0;right=0;collapsible=0;dropTarget=0;fillColor=none;points=[[0,0.5],[1,0.5]];portConstraint=eastwest;fontSize=16;" parent="POBGn_9Outm2-H0OH8fw-38" vertex="1">
          <mxGeometry y="77" width="216" height="46" as="geometry" />
        </mxCell>
        <mxCell id="POBGn_9Outm2-H0OH8fw-44" value="" style="shape=partialRectangle;html=1;whiteSpace=wrap;connectable=0;strokeColor=inherit;overflow=hidden;fillColor=none;top=0;left=0;bottom=0;right=0;pointerEvents=1;fontSize=16;" parent="POBGn_9Outm2-H0OH8fw-43" vertex="1">
          <mxGeometry width="72" height="46" as="geometry">
            <mxRectangle width="72" height="46" as="alternateBounds" />
          </mxGeometry>
        </mxCell>
        <mxCell id="POBGn_9Outm2-H0OH8fw-45" value="" style="shape=partialRectangle;html=1;whiteSpace=wrap;connectable=0;strokeColor=inherit;overflow=hidden;fillColor=none;top=0;left=0;bottom=0;right=0;pointerEvents=1;fontSize=16;" parent="POBGn_9Outm2-H0OH8fw-43" vertex="1">
          <mxGeometry x="72" width="72" height="46" as="geometry">
            <mxRectangle width="72" height="46" as="alternateBounds" />
          </mxGeometry>
        </mxCell>
        <mxCell id="POBGn_9Outm2-H0OH8fw-46" value="" style="shape=partialRectangle;html=1;whiteSpace=wrap;connectable=0;strokeColor=inherit;overflow=hidden;fillColor=none;top=0;left=0;bottom=0;right=0;pointerEvents=1;fontSize=16;" parent="POBGn_9Outm2-H0OH8fw-43" vertex="1">
          <mxGeometry x="144" width="72" height="46" as="geometry">
            <mxRectangle width="72" height="46" as="alternateBounds" />
          </mxGeometry>
        </mxCell>
        <mxCell id="POBGn_9Outm2-H0OH8fw-47" value="" style="shape=tableRow;horizontal=0;startSize=0;swimlaneHead=0;swimlaneBody=0;strokeColor=inherit;top=0;left=0;bottom=0;right=0;collapsible=0;dropTarget=0;fillColor=none;points=[[0,0.5],[1,0.5]];portConstraint=eastwest;fontSize=16;" parent="POBGn_9Outm2-H0OH8fw-38" vertex="1">
          <mxGeometry y="123" width="216" height="47" as="geometry" />
        </mxCell>
        <mxCell id="POBGn_9Outm2-H0OH8fw-48" value="" style="shape=partialRectangle;html=1;whiteSpace=wrap;connectable=0;strokeColor=inherit;overflow=hidden;fillColor=none;top=0;left=0;bottom=0;right=0;pointerEvents=1;fontSize=16;" parent="POBGn_9Outm2-H0OH8fw-47" vertex="1">
          <mxGeometry width="72" height="47" as="geometry">
            <mxRectangle width="72" height="47" as="alternateBounds" />
          </mxGeometry>
        </mxCell>
        <mxCell id="POBGn_9Outm2-H0OH8fw-49" value="" style="shape=partialRectangle;html=1;whiteSpace=wrap;connectable=0;strokeColor=inherit;overflow=hidden;fillColor=none;top=0;left=0;bottom=0;right=0;pointerEvents=1;fontSize=16;" parent="POBGn_9Outm2-H0OH8fw-47" vertex="1">
          <mxGeometry x="72" width="72" height="47" as="geometry">
            <mxRectangle width="72" height="47" as="alternateBounds" />
          </mxGeometry>
        </mxCell>
        <mxCell id="POBGn_9Outm2-H0OH8fw-50" value="" style="shape=partialRectangle;html=1;whiteSpace=wrap;connectable=0;strokeColor=inherit;overflow=hidden;fillColor=none;top=0;left=0;bottom=0;right=0;pointerEvents=1;fontSize=16;" parent="POBGn_9Outm2-H0OH8fw-47" vertex="1">
          <mxGeometry x="144" width="72" height="47" as="geometry">
            <mxRectangle width="72" height="47" as="alternateBounds" />
          </mxGeometry>
        </mxCell>
        <mxCell id="POBGn_9Outm2-H0OH8fw-51" value="&lt;h1 style=&quot;border-color: var(--border-color);&quot;&gt;&lt;font face=&quot;Lucida Console&quot; color=&quot;#00ff00&quot; style=&quot;font-size: 21px; font-weight: normal;&quot;&gt;orem ipsum dolor sit&lt;/font&gt;&lt;/h1&gt;" style="text;html=1;strokeColor=none;fillColor=none;align=left;verticalAlign=middle;whiteSpace=wrap;rounded=0;" parent="1" vertex="1">
          <mxGeometry x="71" y="24" width="276" height="70" as="geometry" />
        </mxCell>
        <mxCell id="88K8nGgL9I633AfGU3CL-3" value="&lt;font style=&quot;font-size: 28px;&quot; color=&quot;#00ff00&quot;&gt;2500&lt;/font&gt;" style="text;html=1;strokeColor=none;fillColor=none;align=center;verticalAlign=middle;whiteSpace=wrap;rounded=0;fontFamily=Courier New;" parent="1" vertex="1">
          <mxGeometry x="1220" y="215.5" width="60" height="30" as="geometry" />
        </mxCell>
        <mxCell id="88K8nGgL9I633AfGU3CL-4" value="" style="image;html=1;image=img/lib/clip_art/finance/Dollar_128x128.png" parent="1" vertex="1">
          <mxGeometry x="1154" y="202" width="43" height="57" as="geometry" />
        </mxCell>
        <mxCell id="88K8nGgL9I633AfGU3CL-6" value="" style="html=1;verticalLabelPosition=bottom;align=center;labelBackgroundColor=#ffffff;verticalAlign=top;strokeWidth=4;strokeColor=#00FF00;shadow=0;dashed=0;shape=mxgraph.ios7.icons.alarm_clock;fillColor=none;fontSize=17;perimeterSpacing=2;" parent="1" vertex="1">
          <mxGeometry x="1367" y="210.5" width="36" height="40" as="geometry" />
        </mxCell>
        <mxCell id="88K8nGgL9I633AfGU3CL-10" value="&lt;font face=&quot;Courier New&quot; style=&quot;font-size: 28px;&quot; color=&quot;#00ff00&quot;&gt;00:00&lt;/font&gt;" style="text;html=1;strokeColor=none;fillColor=none;align=center;verticalAlign=middle;whiteSpace=wrap;rounded=0;" parent="1" vertex="1">
          <mxGeometry x="1428" y="215.5" width="60" height="30" as="geometry" />
        </mxCell>
        <mxCell id="88K8nGgL9I633AfGU3CL-63" value="Tables" style="shape=table;startSize=30;container=1;collapsible=0;childLayout=tableLayout;fixedRows=1;rowLines=0;fontStyle=0;strokeColor=#00FF00;fontSize=18;fontColor=#00FF00;fillColor=none;" parent="1" vertex="1">
          <mxGeometry x="1118.52" y="297" width="416.96659342447924" height="230" as="geometry" />
        </mxCell>
        <mxCell id="88K8nGgL9I633AfGU3CL-64" value="" style="shape=tableRow;horizontal=0;startSize=0;swimlaneHead=0;swimlaneBody=0;top=0;left=0;bottom=0;right=0;collapsible=0;dropTarget=0;fillColor=none;points=[[0,0.5],[1,0.5]];portConstraint=eastwest;strokeColor=inherit;fontSize=16;" parent="88K8nGgL9I633AfGU3CL-63" vertex="1">
          <mxGeometry y="30" width="416.96659342447924" height="40" as="geometry" />
        </mxCell>
        <mxCell id="88K8nGgL9I633AfGU3CL-65" value="&lt;font color=&quot;#00ff00&quot; style=&quot;font-size: 18px;&quot;&gt;Name&lt;/font&gt;" style="shape=partialRectangle;html=1;whiteSpace=wrap;connectable=0;fillColor=none;top=0;left=0;bottom=0;right=0;overflow=hidden;pointerEvents=1;strokeColor=inherit;fontSize=18;fontFamily=Verdana;" parent="88K8nGgL9I633AfGU3CL-64" vertex="1">
          <mxGeometry width="88" height="40" as="geometry">
            <mxRectangle width="88" height="40" as="alternateBounds" />
          </mxGeometry>
        </mxCell>
        <mxCell id="88K8nGgL9I633AfGU3CL-66" value="Value 1" style="shape=partialRectangle;html=1;whiteSpace=wrap;connectable=0;fillColor=none;top=0;left=0;bottom=0;right=0;align=left;spacingLeft=6;overflow=hidden;strokeColor=inherit;fontSize=18;fontColor=#00FF00;fontFamily=Verdana;" parent="88K8nGgL9I633AfGU3CL-64" vertex="1">
          <mxGeometry x="88" width="329" height="40" as="geometry">
            <mxRectangle width="329" height="40" as="alternateBounds" />
          </mxGeometry>
        </mxCell>
        <mxCell id="88K8nGgL9I633AfGU3CL-67" value="" style="shape=tableRow;horizontal=0;startSize=0;swimlaneHead=0;swimlaneBody=0;top=0;left=0;bottom=0;right=0;collapsible=0;dropTarget=0;fillColor=none;points=[[0,0.5],[1,0.5]];portConstraint=eastwest;strokeColor=inherit;fontSize=16;" parent="88K8nGgL9I633AfGU3CL-63" vertex="1">
          <mxGeometry y="70" width="416.96659342447924" height="40" as="geometry" />
        </mxCell>
        <mxCell id="88K8nGgL9I633AfGU3CL-68" value="Name" style="shape=partialRectangle;html=1;whiteSpace=wrap;connectable=1;fillColor=none;top=0;left=0;bottom=0;right=0;overflow=hidden;strokeColor=inherit;fontSize=18;movable=1;resizable=1;rotatable=1;deletable=1;editable=1;locked=0;fontColor=#00FF00;fontFamily=Verdana;" parent="88K8nGgL9I633AfGU3CL-67" vertex="1">
          <mxGeometry width="88" height="40" as="geometry">
            <mxRectangle width="88" height="40" as="alternateBounds" />
          </mxGeometry>
        </mxCell>
        <mxCell id="88K8nGgL9I633AfGU3CL-69" value="Value 2" style="shape=partialRectangle;html=1;whiteSpace=wrap;connectable=0;fillColor=none;top=0;left=0;bottom=0;right=0;align=left;spacingLeft=6;overflow=hidden;strokeColor=inherit;fontSize=18;fontColor=#00FF00;fontFamily=Verdana;" parent="88K8nGgL9I633AfGU3CL-67" vertex="1">
          <mxGeometry x="88" width="329" height="40" as="geometry">
            <mxRectangle width="329" height="40" as="alternateBounds" />
          </mxGeometry>
        </mxCell>
        <mxCell id="88K8nGgL9I633AfGU3CL-70" value="" style="shape=tableRow;horizontal=0;startSize=0;swimlaneHead=0;swimlaneBody=0;top=0;left=0;bottom=0;right=0;collapsible=0;dropTarget=0;fillColor=none;points=[[0,0.5],[1,0.5]];portConstraint=eastwest;strokeColor=inherit;fontSize=16;" parent="88K8nGgL9I633AfGU3CL-63" vertex="1">
          <mxGeometry y="110" width="416.96659342447924" height="40" as="geometry" />
        </mxCell>
        <mxCell id="88K8nGgL9I633AfGU3CL-71" value="Name" style="shape=partialRectangle;html=1;whiteSpace=wrap;connectable=0;fillColor=none;top=0;left=0;bottom=0;right=0;overflow=hidden;strokeColor=inherit;fontSize=18;fontColor=#00FF00;fontFamily=Verdana;" parent="88K8nGgL9I633AfGU3CL-70" vertex="1">
          <mxGeometry width="88" height="40" as="geometry">
            <mxRectangle width="88" height="40" as="alternateBounds" />
          </mxGeometry>
        </mxCell>
        <mxCell id="88K8nGgL9I633AfGU3CL-72" value="Value 3" style="shape=partialRectangle;html=1;whiteSpace=wrap;connectable=0;fillColor=none;top=0;left=0;bottom=0;right=0;align=left;spacingLeft=6;overflow=hidden;strokeColor=inherit;fontSize=18;fontColor=#00FF00;fontFamily=Verdana;" parent="88K8nGgL9I633AfGU3CL-70" vertex="1">
          <mxGeometry x="88" width="329" height="40" as="geometry">
            <mxRectangle width="329" height="40" as="alternateBounds" />
          </mxGeometry>
        </mxCell>
        <mxCell id="88K8nGgL9I633AfGU3CL-73" style="shape=tableRow;horizontal=0;startSize=0;swimlaneHead=0;swimlaneBody=0;top=0;left=0;bottom=0;right=0;collapsible=0;dropTarget=0;fillColor=none;points=[[0,0.5],[1,0.5]];portConstraint=eastwest;strokeColor=inherit;fontSize=16;" parent="88K8nGgL9I633AfGU3CL-63" vertex="1">
          <mxGeometry y="150" width="416.96659342447924" height="40" as="geometry" />
        </mxCell>
        <mxCell id="88K8nGgL9I633AfGU3CL-74" value="&lt;span style=&quot;color: rgb(0, 255, 0); font-size: 18px; font-style: normal; font-variant-ligatures: normal; font-variant-caps: normal; font-weight: 400; letter-spacing: normal; orphans: 2; text-align: center; text-indent: 0px; text-transform: none; widows: 2; word-spacing: 0px; -webkit-text-stroke-width: 0px; text-decoration-thickness: initial; text-decoration-style: initial; text-decoration-color: initial; float: none; display: inline !important;&quot;&gt;Name&lt;/span&gt;" style="shape=partialRectangle;html=1;whiteSpace=wrap;connectable=0;fillColor=none;top=0;left=0;bottom=0;right=0;overflow=hidden;strokeColor=inherit;fontSize=18;fontColor=#00FF00;fontFamily=Verdana;" parent="88K8nGgL9I633AfGU3CL-73" vertex="1">
          <mxGeometry width="88" height="40" as="geometry">
            <mxRectangle width="88" height="40" as="alternateBounds" />
          </mxGeometry>
        </mxCell>
        <mxCell id="88K8nGgL9I633AfGU3CL-75" value="Value 4" style="shape=partialRectangle;html=1;whiteSpace=wrap;connectable=0;fillColor=none;top=0;left=0;bottom=0;right=0;align=left;spacingLeft=6;overflow=hidden;strokeColor=inherit;fontSize=18;fontColor=#00FF00;fontFamily=Verdana;" parent="88K8nGgL9I633AfGU3CL-73" vertex="1">
          <mxGeometry x="88" width="329" height="40" as="geometry">
            <mxRectangle width="329" height="40" as="alternateBounds" />
          </mxGeometry>
        </mxCell>
        <mxCell id="88K8nGgL9I633AfGU3CL-76" style="shape=tableRow;horizontal=0;startSize=0;swimlaneHead=0;swimlaneBody=0;top=0;left=0;bottom=0;right=0;collapsible=0;dropTarget=0;fillColor=none;points=[[0,0.5],[1,0.5]];portConstraint=eastwest;strokeColor=inherit;fontSize=16;" parent="88K8nGgL9I633AfGU3CL-63" vertex="1">
          <mxGeometry y="190" width="416.96659342447924" height="40" as="geometry" />
        </mxCell>
        <mxCell id="88K8nGgL9I633AfGU3CL-77" value="Name" style="shape=partialRectangle;html=1;whiteSpace=wrap;connectable=0;fillColor=none;top=0;left=0;bottom=0;right=0;overflow=hidden;strokeColor=inherit;fontSize=18;fontColor=#00FF00;fontFamily=Verdana;" parent="88K8nGgL9I633AfGU3CL-76" vertex="1">
          <mxGeometry width="88" height="40" as="geometry">
            <mxRectangle width="88" height="40" as="alternateBounds" />
          </mxGeometry>
        </mxCell>
        <mxCell id="88K8nGgL9I633AfGU3CL-78" value="Value 5" style="shape=partialRectangle;html=1;whiteSpace=wrap;connectable=0;fillColor=none;top=0;left=0;bottom=0;right=0;align=left;spacingLeft=6;overflow=hidden;strokeColor=inherit;fontSize=18;fontColor=#00FF00;fontFamily=Verdana;" parent="88K8nGgL9I633AfGU3CL-76" vertex="1">
          <mxGeometry x="88" width="329" height="40" as="geometry">
            <mxRectangle width="329" height="40" as="alternateBounds" />
          </mxGeometry>
        </mxCell>
      </root>
    </mxGraphModel>
  </diagram>
</mxfile>
